GoudyBookletter1911.ufo
<glyph name="exclam" format="1">
  <advance width="325"/>
  <unicode hex="0021"/>
  <outline>
    <contour>
      <point x="188" y="674"/>
      <point x="189" y="674"/>
      <point x="121" y="634" type="curve" smooth="yes"/>
      <point x="113" y="629"/>
      <point x="108" y="625"/>
      <point x="108" y="611" type="curve" smooth="yes"/>
      <point x="108" y="610"/>
      <point x="121" y="464"/>
      <point x="127" y="242" type="curve" smooth="yes"/>
      <point x="127" y="225" type="line" smooth="yes"/>
      <point x="127" y="210"/>
      <point x="129" y="195"/>
      <point x="142" y="195" type="curve" smooth="yes"/>
      <point x="152" y="195"/>
      <point x="157" y="205"/>
      <point x="159" y="211" type="curve" smooth="yes"/>
      <point x="166" y="232"/>
      <point x="204" y="411"/>
      <point x="204" y="625" type="curve" smooth="yes"/>
      <point x="204" y="648" type="line" smooth="yes"/>
      <point x="204" y="667"/>
      <point x="203" y="674"/>
      <point x="194" y="674" type="curve" smooth="yes"/>
    </contour>
    <contour>
      <point x="139" y="85"/>
      <point x="114" y="65"/>
      <point x="114" y="35" type="curve" smooth="yes"/>
      <point x="114" y="5"/>
      <point x="139" y="-16"/>
      <point x="166" y="-16" type="curve" smooth="yes"/>
      <point x="195" y="-16"/>
      <point x="217" y="7"/>
      <point x="217" y="34" type="curve" smooth="yes"/>
      <point x="217" y="63"/>
      <point x="193" y="85"/>
      <point x="166" y="85" type="curve" smooth="yes"/>
    </contour>
  </outline>
</glyph>
<glyph name="quotedbl" format="1">
  <advance width="389"/>
  <unicode hex="0022"/>
  <outline>
    <contour>
      <point x="119" y="715"/>
      <point x="106" y="683"/>
      <point x="97" y="659" type="curve" smooth="yes"/>
      <point x="39" y="488"/>
      <point x="38" y="487"/>
      <point x="38" y="480" type="curve" smooth="yes"/>
      <point x="38" y="479" type="line" smooth="yes"/>
      <point x="38" y="468"/>
      <point x="46" y="457"/>
      <point x="58" y="457" type="curve" smooth="yes"/>
      <point x="65" y="457"/>
      <point x="71" y="461"/>
      <point x="76" y="467" type="curve"/>
      <point x="79" y="471"/>
      <point x="141" y="581"/>
      <point x="173" y="638" type="curve" smooth="yes"/>
      <point x="179" y="649"/>
      <point x="187" y="661"/>
      <point x="187" y="677" type="curve" smooth="yes"/>
      <point x="187" y="697"/>
      <point x="173" y="715"/>
      <point x="150" y="715" type="curve" smooth="yes"/>
    </contour>
    <contour>
      <point x="284" y="715"/>
      <point x="271" y="683"/>
      <point x="263" y="659" type="curve" smooth="yes"/>
      <point x="204" y="488"/>
      <point x="203" y="487"/>
      <point x="203" y="480" type="curve" smooth="yes"/>
      <point x="203" y="479" type="line" smooth="yes"/>
      <point x="203" y="468"/>
      <point x="211" y="457"/>
      <point x="223" y="457" type="curve" smooth="yes"/>
      <point x="230" y="457"/>
      <point x="236" y="461"/>
      <point x="241" y="467" type="curve"/>
      <point x="245" y="471"/>
      <point x="306" y="581"/>
      <point x="339" y="638" type="curve" smooth="yes"/>
      <point x="345" y="649"/>
      <point x="352" y="661"/>
      <point x="352" y="677" type="curve" smooth="yes"/>
      <point x="352" y="697"/>
      <point x="338" y="715"/>
      <point x="316" y="715" type="curve" smooth="yes"/>
    </contour>
  </outline>
</glyph>
<glyph name="numbersign" format="1">
  <advance width="552"/>
  <unicode hex="0023"/>
  <outline>
    <contour>
      <point x="346" y="339"/>
      <point x="341" y="311"/>
      <point x="327" y="210" type="curve" smooth="yes"/>
      <point x="326" y="202"/>
      <point x="320" y="202"/>
      <point x="316" y="202" type="curve" smooth="yes"/>
      <point x="214" y="202" type="line" smooth="yes"/>
      <point x="209" y="202"/>
      <point x="206" y="203"/>
      <point x="206" y="207" type="curve" smooth="yes"/>
      <point x="206" y="212"/>
      <point x="219" y="300"/>
      <point x="225" y="346" type="curve"/>
      <point x="226" y="350"/>
      <point x="227" y="353"/>
      <point x="234" y="353" type="curve" smooth="yes"/>
      <point x="339" y="353" type="line" smooth="yes"/>
      <point x="345" y="353"/>
      <point x="346" y="351"/>
      <point x="346" y="348" type="curve" smooth="yes"/>
    </contour>
    <contour>
      <point x="404" y="615" type="line"/>
      <point x="401" y="615" type="line" smooth="yes"/>
      <point x="397" y="615"/>
      <point x="389" y="614"/>
      <point x="385" y="608" type="curve"/>
      <point x="382" y="604"/>
      <point x="383" y="603"/>
      <point x="355" y="405" type="curve" smooth="yes"/>
      <point x="354" y="398"/>
      <point x="350" y="398"/>
      <point x="346" y="398" type="curve" smooth="yes"/>
      <point x="242" y="398" type="line" smooth="yes"/>
      <point x="237" y="398"/>
      <point x="234" y="399"/>
      <point x="234" y="403" type="curve" smooth="yes"/>
      <point x="234" y="409"/>
      <point x="262" y="595"/>
      <point x="262" y="602" type="curve" smooth="yes"/>
      <point x="262" y="614"/>
      <point x="250" y="615"/>
      <point x="242" y="615" type="curve" smooth="yes"/>
      <point x="241" y="615" type="line" smooth="yes"/>
      <point x="227" y="615"/>
      <point x="222" y="613"/>
      <point x="218" y="607" type="curve"/>
      <point x="215" y="602"/>
      <point x="217" y="604"/>
      <point x="189" y="406" type="curve"/>
      <point x="189" y="401"/>
      <point x="187" y="398"/>
      <point x="180" y="398" type="curve" smooth="yes"/>
      <point x="72" y="398" type="line" smooth="yes"/>
      <point x="58" y="398"/>
      <point x="54" y="390"/>
      <point x="54" y="375" type="curve" smooth="yes"/>
      <point x="54" y="356"/>
      <point x="61" y="353"/>
      <point x="72" y="353" type="curve" smooth="yes"/>
      <point x="173" y="353" type="line" smooth="yes"/>
      <point x="177" y="353"/>
      <point x="180" y="352"/>
      <point x="180" y="348" type="curve" smooth="yes"/>
      <point x="180" y="343"/>
      <point x="167" y="252"/>
      <point x="160" y="204" type="curve"/>
      <point x="160" y="202"/>
      <point x="159" y="202"/>
      <point x="157" y="202" type="curve" smooth="yes"/>
      <point x="70" y="202" type="line" smooth="yes"/>
      <point x="54" y="202"/>
      <point x="54" y="193"/>
      <point x="54" y="176" type="curve" smooth="yes"/>
      <point x="54" y="165"/>
      <point x="56" y="157"/>
      <point x="70" y="157" type="curve" smooth="yes"/>
      <point x="144" y="157" type="line" smooth="yes"/>
      <point x="150" y="157"/>
      <point x="153" y="155"/>
      <point x="153" y="150" type="curve" smooth="yes"/>
      <point x="153" y="145"/>
      <point x="128" y="-23"/>
      <point x="128" y="-29" type="curve" smooth="yes"/>
      <point x="128" y="-40"/>
      <point x="137" y="-43"/>
      <point x="147" y="-43" type="curve" smooth="yes"/>
      <point x="162" y="-43"/>
      <point x="168" y="-41"/>
      <point x="172" y="-34" type="curve"/>
      <point x="174" y="-29"/>
      <point x="173" y="-31"/>
      <point x="198" y="149" type="curve" smooth="yes"/>
      <point x="199" y="156"/>
      <point x="201" y="157"/>
      <point x="242" y="157" type="curve" smooth="yes"/>
      <point x="311" y="157" type="line" smooth="yes"/>
      <point x="315" y="157"/>
      <point x="319" y="156"/>
      <point x="319" y="151" type="curve" smooth="yes"/>
      <point x="319" y="146"/>
      <point x="295" y="-22"/>
      <point x="295" y="-29" type="curve" smooth="yes"/>
      <point x="295" y="-37"/>
      <point x="300" y="-43"/>
      <point x="315" y="-43" type="curve" smooth="yes"/>
      <point x="325" y="-43"/>
      <point x="333" y="-41"/>
      <point x="337" y="-33" type="curve" smooth="yes"/>
      <point x="340" y="-27"/>
      <point x="338" y="-32"/>
      <point x="363" y="146" type="curve" smooth="yes"/>
      <point x="364" y="152"/>
      <point x="366" y="157"/>
      <point x="376" y="157" type="curve" smooth="yes"/>
      <point x="480" y="157" type="line" smooth="yes"/>
      <point x="494" y="157"/>
      <point x="498" y="164"/>
      <point x="498" y="180" type="curve" smooth="yes"/>
      <point x="498" y="199"/>
      <point x="491" y="202"/>
      <point x="480" y="202" type="curve" smooth="yes"/>
      <point x="379" y="202" type="line" smooth="yes"/>
      <point x="374" y="202"/>
      <point x="372" y="204"/>
      <point x="372" y="208" type="curve" smooth="yes"/>
      <point x="372" y="212"/>
      <point x="385" y="301"/>
      <point x="391" y="347" type="curve"/>
      <point x="392" y="350"/>
      <point x="392" y="353"/>
      <point x="396" y="353" type="curve" smooth="yes"/>
      <point x="482" y="353" type="line" smooth="yes"/>
      <point x="492" y="353"/>
      <point x="498" y="356"/>
      <point x="498" y="372" type="curve" smooth="yes"/>
      <point x="498" y="390"/>
      <point x="494" y="398"/>
      <point x="479" y="398" type="curve" smooth="yes"/>
      <point x="405" y="398" type="line" smooth="yes"/>
      <point x="401" y="398"/>
      <point x="400" y="400"/>
      <point x="400" y="403" type="curve" smooth="yes"/>
      <point x="400" y="413"/>
      <point x="427" y="594"/>
      <point x="427" y="604" type="curve" smooth="yes"/>
      <point x="427" y="612"/>
      <point x="421" y="615"/>
      <point x="411" y="615" type="curve" smooth="yes"/>
    </contour>
  </outline>
</glyph>
<glyph name="dollar" format="1">
  <advance width="482"/>
  <unicode hex="0024"/>
  <outline>
    <contour>
      <point x="376" y="573"/>
      <point x="322" y="628"/>
      <point x="234" y="638" type="curve"/>
      <point x="229" y="638"/>
      <point x="228" y="641"/>
      <point x="228" y="644" type="curve" smooth="yes"/>
      <point x="228" y="646" type="line"/>
      <point x="228" y="665" type="line" smooth="yes"/>
      <point x="228" y="675"/>
      <point x="224" y="685"/>
      <point x="207" y="685" type="curve" smooth="yes"/>
      <point x="206" y="685" type="line" smooth="yes"/>
      <point x="187" y="685"/>
      <point x="186" y="672"/>
      <point x="186" y="665" type="curve" smooth="yes"/>
      <point x="186" y="644" type="line" smooth="yes"/>
      <point x="186" y="638"/>
      <point x="183" y="637"/>
      <point x="177" y="636" type="curve"/>
      <point x="100" y="630"/>
      <point x="41" y="565"/>
      <point x="41" y="484" type="curve" smooth="yes"/>
      <point x="41" y="419"/>
      <point x="84" y="339"/>
      <point x="177" y="319" type="curve"/>
      <point x="183" y="318"/>
      <point x="186" y="316"/>
      <point x="186" y="306" type="curve" smooth="yes"/>
      <point x="186" y="46" type="line" smooth="yes"/>
      <point x="186" y="43"/>
      <point x="184" y="42"/>
      <point x="181" y="42" type="curve" smooth="yes"/>
      <point x="158" y="42"/>
      <point x="104" y="55"/>
      <point x="104" y="107" type="curve" smooth="yes"/>
      <point x="104" y="120"/>
      <point x="107" y="130"/>
      <point x="107" y="142" type="curve" smooth="yes"/>
      <point x="107" y="171"/>
      <point x="88" y="188"/>
      <point x="65" y="188" type="curve" smooth="yes"/>
      <point x="37" y="188"/>
      <point x="16" y="164"/>
      <point x="16" y="133" type="curve" smooth="yes"/>
      <point x="16" y="80"/>
      <point x="79" y="4"/>
      <point x="178" y="1" type="curve" smooth="yes"/>
      <point x="185" y="1"/>
      <point x="187" y="-2"/>
      <point x="187" y="-9" type="curve" smooth="yes"/>
      <point x="187" y="-78" type="line" smooth="yes"/>
      <point x="187" y="-89"/>
      <point x="192" y="-97"/>
      <point x="207" y="-97" type="curve" smooth="yes"/>
      <point x="223" y="-97"/>
      <point x="227" y="-88"/>
      <point x="227" y="-78" type="curve" smooth="yes"/>
      <point x="227" y="-9" type="line" smooth="yes"/>
      <point x="227" y="-3"/>
      <point x="227" y="1"/>
      <point x="235" y="3" type="curve"/>
      <point x="319" y="17"/>
      <point x="402" y="77"/>
      <point x="402" y="189" type="curve" smooth="yes"/>
      <point x="402" y="209"/>
      <point x="399" y="230"/>
      <point x="393" y="250" type="curve" smooth="yes"/>
      <point x="383" y="283"/>
      <point x="361" y="335"/>
      <point x="275" y="372" type="curve" smooth="yes"/>
      <point x="239" y="387"/>
      <point x="227" y="384"/>
      <point x="227" y="404" type="curve" smooth="yes"/>
      <point x="227" y="407"/>
      <point x="228" y="414"/>
      <point x="228" y="420" type="curve" smooth="yes"/>
      <point x="228" y="594" type="line" smooth="yes"/>
      <point x="228" y="598"/>
      <point x="231" y="599"/>
      <point x="233" y="599" type="curve" smooth="yes"/>
      <point x="235" y="599" type="line"/>
      <point x="297" y="586"/>
      <point x="272" y="487"/>
      <point x="335" y="487" type="curve" smooth="yes"/>
      <point x="360" y="487"/>
      <point x="376" y="506"/>
      <point x="376" y="531" type="curve" smooth="yes"/>
    </contour>
    <contour>
      <point x="186" y="599"/>
      <point x="186" y="597"/>
      <point x="186" y="572" type="curve" smooth="yes"/>
      <point x="186" y="489" type="line"/>
      <point x="186" y="414" type="line" smooth="yes"/>
      <point x="186" y="411"/>
      <point x="185" y="409"/>
      <point x="181" y="409" type="curve" smooth="yes"/>
      <point x="177" y="409"/>
      <point x="99" y="433"/>
      <point x="99" y="504" type="curve" smooth="yes"/>
      <point x="99" y="571"/>
      <point x="166" y="599"/>
      <point x="183" y="599" type="curve" smooth="yes"/>
    </contour>
    <contour>
      <point x="245" y="295"/>
      <point x="332" y="259"/>
      <point x="332" y="171" type="curve" smooth="yes"/>
      <point x="332" y="82"/>
      <point x="247" y="44"/>
      <point x="232" y="44" type="curve" smooth="yes"/>
      <point x="230" y="44" type="line" smooth="yes"/>
      <point x="227" y="44"/>
      <point x="226" y="44"/>
      <point x="226" y="75" type="curve" smooth="yes"/>
      <point x="226" y="105"/>
      <point x="227" y="165"/>
      <point x="227" y="286" type="curve" smooth="yes"/>
      <point x="227" y="291"/>
      <point x="228" y="295"/>
      <point x="234" y="295" type="curve" smooth="yes"/>
    </contour>
  </outline>
</glyph>
<glyph name="percent" format="1">
  <advance width="820"/>
  <unicode hex="0025"/>
  <outline>
    <contour>
      <point x="223" y="-123"/>
      <point x="230" y="-118"/>
      <point x="235" y="-112" type="curve"/>
      <point x="240" y="-107"/>
      <point x="238" y="-110"/>
      <point x="639" y="566" type="curve"/>
      <point x="641" y="569"/>
      <point x="643" y="573"/>
      <point x="643" y="577" type="curve" smooth="yes"/>
      <point x="643" y="591"/>
      <point x="621" y="595"/>
      <point x="613" y="595" type="curve" smooth="yes"/>
      <point x="603" y="595"/>
      <point x="595" y="591"/>
      <point x="590" y="585" type="curve"/>
      <point x="586" y="581"/>
      <point x="587" y="582"/>
      <point x="192" y="-92" type="curve"/>
      <point x="190" y="-96"/>
      <point x="188" y="-99"/>
      <point x="188" y="-104" type="curve" smooth="yes"/>
      <point x="188" y="-115"/>
      <point x="201" y="-123"/>
      <point x="213" y="-123" type="curve" smooth="yes"/>
    </contour>
    <contour>
      <point x="240" y="515"/>
      <point x="271" y="426"/>
      <point x="271" y="348" type="curve" smooth="yes"/>
      <point x="271" y="330"/>
      <point x="269" y="311"/>
      <point x="266" y="293" type="curve" smooth="yes"/>
      <point x="263" y="272"/>
      <point x="252" y="208"/>
      <point x="193" y="208" type="curve" smooth="yes"/>
      <point x="184" y="208"/>
      <point x="166" y="211"/>
      <point x="149" y="225" type="curve" smooth="yes"/>
      <point x="113" y="256"/>
      <point x="101" y="338"/>
      <point x="101" y="379" type="curve" smooth="yes"/>
      <point x="101" y="427"/>
      <point x="115" y="515"/>
      <point x="179" y="515" type="curve" smooth="yes"/>
    </contour>
    <contour>
      <point x="113" y="553"/>
      <point x="41" y="484"/>
      <point x="41" y="346" type="curve" smooth="yes"/>
      <point x="41" y="209"/>
      <point x="124" y="170"/>
      <point x="179" y="170" type="curve" smooth="yes"/>
      <point x="270" y="170"/>
      <point x="331" y="254"/>
      <point x="331" y="375" type="curve" smooth="yes"/>
      <point x="331" y="513"/>
      <point x="248" y="553"/>
      <point x="193" y="553" type="curve" smooth="yes"/>
    </contour>
    <contour>
      <point x="688" y="252"/>
      <point x="719" y="163"/>
      <point x="719" y="86" type="curve" smooth="yes"/>
      <point x="719" y="67"/>
      <point x="717" y="48"/>
      <point x="714" y="30" type="curve" smooth="yes"/>
      <point x="711" y="10"/>
      <point x="700" y="-54"/>
      <point x="641" y="-54" type="curve" smooth="yes"/>
      <point x="632" y="-54"/>
      <point x="614" y="-52"/>
      <point x="597" y="-37" type="curve" smooth="yes"/>
      <point x="561" y="-6"/>
      <point x="549" y="76"/>
      <point x="549" y="116" type="curve"/>
      <point x="548" y="118" type="line"/>
      <point x="548" y="165"/>
      <point x="563" y="252"/>
      <point x="627" y="252" type="curve" smooth="yes"/>
    </contour>
    <contour>
      <point x="561" y="290"/>
      <point x="489" y="221"/>
      <point x="489" y="83" type="curve" smooth="yes"/>
      <point x="489" y="-54"/>
      <point x="572" y="-93"/>
      <point x="627" y="-93" type="curve" smooth="yes"/>
      <point x="718" y="-93"/>
      <point x="779" y="-8"/>
      <point x="779" y="112" type="curve" smooth="yes"/>
      <point x="779" y="250"/>
      <point x="696" y="290"/>
      <point x="641" y="290" type="curve" smooth="yes"/>
    </contour>
  </outline>
</glyph>
<glyph name="ampersand" format="1">
  <advance width="828"/>
  <unicode hex="0026"/>
  <outline>
    <contour>
      <point x="100" y="421" type="line" smooth="yes"/>
      <point x="100" y="419"/>
      <point x="99" y="416"/>
      <point x="98" y="414" type="curve"/>
      <point x="94" y="407"/>
      <point x="30" y="350"/>
      <point x="30" y="245" type="curve" smooth="yes"/>
      <point x="30" y="102"/>
      <point x="154" y="-23"/>
      <point x="321" y="-23" type="curve" smooth="yes"/>
      <point x="485" y="-23"/>
      <point x="619" y="96"/>
      <point x="619" y="230" type="curve" smooth="yes"/>
      <point x="619" y="232" type="line" smooth="yes"/>
      <point x="619" y="301"/>
      <point x="585" y="337"/>
      <point x="585" y="344" type="curve" smooth="yes"/>
      <point x="585" y="352"/>
      <point x="592" y="352"/>
      <point x="600" y="352" type="curve" smooth="yes"/>
      <point x="712" y="354"/>
      <point x="809" y="440"/>
      <point x="809" y="548" type="curve" smooth="yes"/>
      <point x="809" y="647"/>
      <point x="732" y="715"/>
      <point x="661" y="715" type="curve" smooth="yes"/>
      <point x="615" y="715"/>
      <point x="573" y="684"/>
      <point x="573" y="641" type="curve" smooth="yes"/>
      <point x="573" y="615"/>
      <point x="592" y="592"/>
      <point x="618" y="592" type="curve" smooth="yes"/>
      <point x="642" y="592"/>
      <point x="659" y="611"/>
      <point x="659" y="633" type="curve" smooth="yes"/>
      <point x="659" y="656"/>
      <point x="643" y="663"/>
      <point x="643" y="668" type="curve" smooth="yes"/>
      <point x="643" y="675"/>
      <point x="664" y="677"/>
      <point x="673" y="677" type="curve" smooth="yes"/>
      <point x="721" y="677"/>
      <point x="768" y="633"/>
      <point x="768" y="570" type="curve" smooth="yes"/>
      <point x="768" y="509"/>
      <point x="724" y="470"/>
      <point x="682" y="451" type="curve" smooth="yes"/>
      <point x="613" y="421"/>
      <point x="519" y="430"/>
      <point x="435" y="388" type="curve" smooth="yes"/>
      <point x="375" y="358"/>
      <point x="338" y="308"/>
      <point x="338" y="255" type="curve" smooth="yes"/>
      <point x="338" y="199"/>
      <point x="381" y="154"/>
      <point x="435" y="154" type="curve" smooth="yes"/>
      <point x="484" y="154"/>
      <point x="521" y="191"/>
      <point x="521" y="230" type="curve" smooth="yes"/>
      <point x="521" y="264"/>
      <point x="492" y="288"/>
      <point x="463" y="288" type="curve" smooth="yes"/>
      <point x="440" y="288"/>
      <point x="424" y="271"/>
      <point x="424" y="252" type="curve" smooth="yes"/>
      <point x="424" y="244"/>
      <point x="427" y="236"/>
      <point x="431" y="230" type="curve"/>
      <point x="446" y="210"/>
      <point x="468" y="217"/>
      <point x="468" y="206" type="curve" smooth="yes"/>
      <point x="468" y="196"/>
      <point x="445" y="189"/>
      <point x="432" y="189" type="curve" smooth="yes"/>
      <point x="397" y="189"/>
      <point x="374" y="219"/>
      <point x="374" y="251" type="curve" smooth="yes"/>
      <point x="374" y="300"/>
      <point x="423" y="347"/>
      <point x="482" y="347" type="curve" smooth="yes"/>
      <point x="545" y="347"/>
      <point x="586" y="294"/>
      <point x="586" y="227" type="curve" smooth="yes"/>
      <point x="586" y="158"/>
      <point x="539" y="54"/>
      <point x="377" y="54" type="curve" smooth="yes"/>
      <point x="359" y="54" type="line"/>
      <point x="167" y="63"/>
      <point x="109" y="183"/>
      <point x="109" y="268" type="curve" smooth="yes"/>
      <point x="109" y="304"/>
      <point x="118" y="340"/>
      <point x="136" y="372" type="curve"/>
      <point x="137" y="373"/>
      <point x="141" y="384"/>
      <point x="149" y="384" type="curve" smooth="yes"/>
      <point x="156" y="384"/>
      <point x="190" y="360"/>
      <point x="245" y="360" type="curve" smooth="yes"/>
      <point x="246" y="360" type="line" smooth="yes"/>
      <point x="297" y="360"/>
      <point x="338" y="383"/>
      <point x="338" y="417" type="curve" smooth="yes"/>
      <point x="338" y="451"/>
      <point x="300" y="473"/>
      <point x="251" y="473" type="curve" smooth="yes"/>
      <point x="191" y="473"/>
      <point x="149" y="446"/>
      <point x="141" y="446" type="curve" smooth="yes"/>
      <point x="127" y="446"/>
      <point x="102" y="488"/>
      <point x="102" y="529" type="curve" smooth="yes"/>
      <point x="102" y="601"/>
      <point x="166" y="645"/>
      <point x="208" y="645" type="curve" smooth="yes"/>
      <point x="252" y="645"/>
      <point x="254" y="595"/>
      <point x="295" y="595" type="curve" smooth="yes"/>
      <point x="317" y="595"/>
      <point x="340" y="614"/>
      <point x="340" y="640" type="curve" smooth="yes"/>
      <point x="340" y="688"/>
      <point x="269" y="701"/>
      <point x="233" y="701" type="curve" smooth="yes"/>
      <point x="140" y="701"/>
      <point x="58" y="619"/>
      <point x="58" y="529" type="curve" smooth="yes"/>
      <point x="58" y="463"/>
      <point x="100" y="433"/>
      <point x="100" y="422" type="curve" smooth="yes"/>
    </contour>
    <contour>
      <point x="228" y="392"/>
      <point x="203" y="393"/>
      <point x="179" y="411" type="curve"/>
      <point x="178" y="412"/>
      <point x="176" y="414"/>
      <point x="176" y="417" type="curve" smooth="yes"/>
      <point x="176" y="426"/>
      <point x="210" y="440"/>
      <point x="260" y="440" type="curve" smooth="yes"/>
      <point x="296" y="440"/>
      <point x="303" y="425"/>
      <point x="303" y="415" type="curve" smooth="yes"/>
      <point x="303" y="396"/>
      <point x="281" y="392"/>
      <point x="261" y="392" type="curve" smooth="yes"/>
    </contour>
  </outline>
</glyph>
<glyph name="quotesingle" format="1">
  <advance width="224"/>
  <unicode hex="0027"/>
  <outline>
    <contour>
      <point x="119" y="715"/>
      <point x="106" y="683"/>
      <point x="97" y="659" type="curve" smooth="yes"/>
      <point x="39" y="488"/>
      <point x="38" y="487"/>
      <point x="38" y="481" type="curve" smooth="yes"/>
      <point x="38" y="480" type="line" smooth="yes"/>
      <point x="38" y="468"/>
      <point x="46" y="457"/>
      <point x="58" y="457" type="curve" smooth="yes"/>
      <point x="65" y="457"/>
      <point x="71" y="461"/>
      <point x="76" y="467" type="curve"/>
      <point x="79" y="471"/>
      <point x="141" y="581"/>
      <point x="173" y="638" type="curve" smooth="yes"/>
      <point x="179" y="649"/>
      <point x="187" y="662"/>
      <point x="187" y="677" type="curve" smooth="yes"/>
      <point x="187" y="697"/>
      <point x="173" y="715"/>
      <point x="150" y="715" type="curve" smooth="yes"/>
    </contour>
  </outline>
</glyph>
<glyph name="parenleft" format="1">
  <advance width="363"/>
  <unicode hex="0028"/>
  <outline>
    <contour>
      <point x="316" y="-161"/>
      <point x="305" y="-152"/>
      <point x="300" y="-147" type="curve"/>
      <point x="188" y="-45"/>
      <point x="121" y="101"/>
      <point x="121" y="263" type="curve" smooth="yes"/>
      <point x="121" y="442"/>
      <point x="203" y="584"/>
      <point x="304" y="675" type="curve"/>
      <point x="309" y="679"/>
      <point x="318" y="687"/>
      <point x="318" y="699" type="curve" smooth="yes"/>
      <point x="318" y="710"/>
      <point x="309" y="718"/>
      <point x="297" y="718" type="curve" smooth="yes"/>
      <point x="285" y="718"/>
      <point x="275" y="710"/>
      <point x="267" y="704" type="curve" smooth="yes"/>
      <point x="125" y="590"/>
      <point x="45" y="423"/>
      <point x="45" y="262" type="curve" smooth="yes"/>
      <point x="45" y="84"/>
      <point x="137" y="-79"/>
      <point x="271" y="-184" type="curve"/>
      <point x="278" y="-190"/>
      <point x="286" y="-194"/>
      <point x="295" y="-194" type="curve" smooth="yes"/>
      <point x="306" y="-194"/>
      <point x="316" y="-186"/>
      <point x="316" y="-174" type="curve" smooth="yes"/>
    </contour>
  </outline>
</glyph>
<glyph name="parenright" format="1">
  <advance width="363"/>
  <unicode hex="0029"/>
  <outline>
    <contour>
      <point x="48" y="688"/>
      <point x="58" y="680"/>
      <point x="64" y="675" type="curve"/>
      <point x="176" y="572"/>
      <point x="242" y="427"/>
      <point x="242" y="264" type="curve" smooth="yes"/>
      <point x="242" y="85"/>
      <point x="161" y="-56"/>
      <point x="60" y="-147" type="curve"/>
      <point x="55" y="-152"/>
      <point x="45" y="-160"/>
      <point x="45" y="-171" type="curve" smooth="yes"/>
      <point x="45" y="-183"/>
      <point x="55" y="-191"/>
      <point x="66" y="-191" type="curve" smooth="yes"/>
      <point x="78" y="-191"/>
      <point x="88" y="-183"/>
      <point x="96" y="-177" type="curve" smooth="yes"/>
      <point x="238" y="-63"/>
      <point x="318" y="104"/>
      <point x="318" y="265" type="curve" smooth="yes"/>
      <point x="318" y="443"/>
      <point x="227" y="606"/>
      <point x="93" y="711" type="curve" smooth="yes"/>
      <point x="85" y="717"/>
      <point x="78" y="722"/>
      <point x="69" y="722" type="curve" smooth="yes"/>
      <point x="58" y="722"/>
      <point x="48" y="714"/>
      <point x="48" y="701" type="curve" smooth="yes"/>
    </contour>
  </outline>
</glyph>
<glyph name="asterisk" format="1">
  <advance width="335"/>
  <unicode hex="002A"/>
  <outline>
    <contour>
      <point x="321" y="639"/>
      <point x="301" y="656"/>
      <point x="282" y="656" type="curve" smooth="yes"/>
      <point x="247" y="656"/>
      <point x="211" y="607"/>
      <point x="198" y="607" type="curve" smooth="yes"/>
      <point x="197" y="607"/>
      <point x="196" y="608"/>
      <point x="196" y="609" type="curve" smooth="yes"/>
      <point x="196" y="616"/>
      <point x="208" y="647"/>
      <point x="208" y="675" type="curve" smooth="yes"/>
      <point x="208" y="701"/>
      <point x="197" y="721"/>
      <point x="169" y="721" type="curve" smooth="yes"/>
      <point x="149" y="721"/>
      <point x="129" y="711"/>
      <point x="129" y="676" type="curve" smooth="yes"/>
      <point x="129" y="652"/>
      <point x="138" y="625"/>
      <point x="138" y="613" type="curve" smooth="yes"/>
      <point x="138" y="607"/>
      <point x="136" y="606"/>
      <point x="133" y="606" type="curve" smooth="yes"/>
      <point x="109" y="606"/>
      <point x="88" y="659"/>
      <point x="55" y="659" type="curve" smooth="yes"/>
      <point x="38" y="659"/>
      <point x="17" y="645"/>
      <point x="17" y="624" type="curve" smooth="yes"/>
      <point x="17" y="571"/>
      <point x="105" y="580"/>
      <point x="105" y="560" type="curve" smooth="yes"/>
      <point x="105" y="542"/>
      <point x="14" y="533"/>
      <point x="14" y="488" type="curve" smooth="yes"/>
      <point x="14" y="481"/>
      <point x="21" y="453"/>
      <point x="46" y="453" type="curve" smooth="yes"/>
      <point x="83" y="453"/>
      <point x="114" y="497"/>
      <point x="130" y="497" type="curve" smooth="yes"/>
      <point x="135" y="497"/>
      <point x="136" y="492"/>
      <point x="136" y="486" type="curve" smooth="yes"/>
      <point x="136" y="472"/>
      <point x="129" y="447"/>
      <point x="129" y="426" type="curve" smooth="yes"/>
      <point x="129" y="393"/>
      <point x="153" y="384"/>
      <point x="165" y="384" type="curve" smooth="yes"/>
      <point x="175" y="384"/>
      <point x="207" y="392"/>
      <point x="207" y="423" type="curve" smooth="yes"/>
      <point x="207" y="437"/>
      <point x="198" y="467"/>
      <point x="198" y="492" type="curve" smooth="yes"/>
      <point x="198" y="498"/>
      <point x="199" y="501"/>
      <point x="205" y="501" type="curve" smooth="yes"/>
      <point x="216" y="501"/>
      <point x="246" y="448"/>
      <point x="281" y="448" type="curve" smooth="yes"/>
      <point x="300" y="448"/>
      <point x="319" y="464"/>
      <point x="319" y="487" type="curve" smooth="yes"/>
      <point x="319" y="544"/>
      <point x="228" y="534"/>
      <point x="228" y="552" type="curve" smooth="yes"/>
      <point x="228" y="567"/>
      <point x="321" y="575"/>
      <point x="321" y="617" type="curve" smooth="yes"/>
    </contour>
  </outline>
</glyph>
<glyph name="plus" format="1">
  <advance width="701"/>
  <unicode hex="002B"/>
  <outline>
    <contour>
      <point x="322" y="231" type="line"/>
      <point x="322" y="-15" type="line" smooth="yes"/>
      <point x="322" y="-26"/>
      <point x="323" y="-38"/>
      <point x="344" y="-38" type="curve" smooth="yes"/>
      <point x="358" y="-38" type="line" smooth="yes"/>
      <point x="375" y="-38"/>
      <point x="380" y="-31"/>
      <point x="380" y="-16" type="curve" smooth="yes"/>
      <point x="380" y="231" type="line"/>
      <point x="622" y="231" type="line" smooth="yes"/>
      <point x="635" y="231"/>
      <point x="649" y="232"/>
      <point x="649" y="255" type="curve" smooth="yes"/>
      <point x="649" y="269" type="line" smooth="yes"/>
      <point x="649" y="284"/>
      <point x="642" y="288"/>
      <point x="629" y="288" type="curve" smooth="yes"/>
      <point x="380" y="288" type="line"/>
      <point x="380" y="531" type="line" smooth="yes"/>
      <point x="380" y="543"/>
      <point x="378" y="557"/>
      <point x="356" y="557" type="curve" smooth="yes"/>
      <point x="342" y="557" type="line" smooth="yes"/>
      <point x="326" y="557"/>
      <point x="322" y="550"/>
      <point x="322" y="537" type="curve" smooth="yes"/>
      <point x="322" y="288" type="line"/>
      <point x="77" y="288" type="line" smooth="yes"/>
      <point x="66" y="288"/>
      <point x="53" y="287"/>
      <point x="53" y="266" type="curve" smooth="yes"/>
      <point x="53" y="253" type="line" smooth="yes"/>
      <point x="53" y="235"/>
      <point x="61" y="231"/>
      <point x="76" y="231" type="curve" smooth="yes"/>
    </contour>
  </outline>
</glyph>
<glyph name="comma" format="1">
  <advance width="227"/>
  <unicode hex="002C"/>
  <outline>
    <contour>
      <point x="69" y="100"/>
      <point x="39" y="77"/>
      <point x="39" y="45" type="curve" smooth="yes"/>
      <point x="39" y="35"/>
      <point x="42" y="26"/>
      <point x="47" y="19" type="curve" smooth="yes"/>
      <point x="72" y="-18"/>
      <point x="137" y="7"/>
      <point x="137" y="-44" type="curve" smooth="yes"/>
      <point x="137" y="-53"/>
      <point x="134" y="-70"/>
      <point x="111" y="-91" type="curve" smooth="yes"/>
      <point x="88" y="-112"/>
      <point x="68" y="-113"/>
      <point x="68" y="-130" type="curve" smooth="yes"/>
      <point x="68" y="-141"/>
      <point x="77" y="-147"/>
      <point x="87" y="-147" type="curve" smooth="yes"/>
      <point x="108" y="-147"/>
      <point x="188" y="-104"/>
      <point x="188" y="-15" type="curve" smooth="yes"/>
      <point x="188" y="49"/>
      <point x="147" y="100"/>
      <point x="100" y="100" type="curve" smooth="yes"/>
    </contour>
  </outline>
</glyph>
<glyph name="hyphen" format="1">
  <advance width="227"/>
  <unicode hex="002D"/>
  <outline>
    <contour>
      <point x="189" y="335"/>
      <point x="183" y="328"/>
      <point x="31" y="222" type="curve" smooth="yes"/>
      <point x="15" y="211"/>
      <point x="12" y="208"/>
      <point x="12" y="194" type="curve" smooth="yes"/>
      <point x="12" y="180" type="line" smooth="yes"/>
      <point x="12" y="168"/>
      <point x="15" y="154"/>
      <point x="30" y="154" type="curve" smooth="yes"/>
      <point x="43" y="154"/>
      <point x="51" y="166"/>
      <point x="197" y="268" type="curve"/>
      <point x="207" y="276"/>
      <point x="215" y="283"/>
      <point x="215" y="296" type="curve" smooth="yes"/>
      <point x="215" y="318"/>
      <point x="212" y="335"/>
      <point x="199" y="335" type="curve" smooth="yes"/>
    </contour>
  </outline>
</glyph>
<glyph name="period" format="1">
  <advance width="227"/>
  <unicode hex="002E"/>
  <outline>
    <contour>
      <point x="82" y="101"/>
      <point x="54" y="78"/>
      <point x="54" y="43" type="curve" smooth="yes"/>
      <point x="54" y="8"/>
      <point x="83" y="-17"/>
      <point x="114" y="-17" type="curve" smooth="yes"/>
      <point x="148" y="-17"/>
      <point x="173" y="11"/>
      <point x="173" y="42" type="curve" smooth="yes"/>
      <point x="173" y="75"/>
      <point x="145" y="101"/>
      <point x="113" y="101" type="curve" smooth="yes"/>
    </contour>
  </outline>
</glyph>
<glyph name="slash" format="1">
  <advance width="435"/>
  <unicode hex="002F"/>
  <outline>
    <contour>
      <point x="41" y="-187"/>
      <point x="45" y="-186"/>
      <point x="49" y="-183" type="curve"/>
      <point x="52" y="-180"/>
      <point x="49" y="-181"/>
      <point x="258" y="234" type="curve" smooth="yes"/>
      <point x="427" y="554"/>
      <point x="429" y="556"/>
      <point x="429" y="562" type="curve" smooth="yes"/>
      <point x="429" y="577"/>
      <point x="406" y="580"/>
      <point x="398" y="580" type="curve" smooth="yes"/>
      <point x="389" y="580"/>
      <point x="386" y="576"/>
      <point x="383" y="571" type="curve"/>
      <point x="6" y="-169"/>
      <point x="6" y="-168"/>
      <point x="6" y="-173" type="curve" smooth="yes"/>
      <point x="6" y="-186"/>
      <point x="28" y="-187"/>
      <point x="36" y="-187" type="curve" smooth="yes"/>
    </contour>
  </outline>
</glyph>
<glyph name="zero" format="1">
  <advance width="475"/>
  <unicode hex="0030"/>
  <outline>
    <contour>
      <point x="113" y="440"/>
      <point x="12" y="338"/>
      <point x="12" y="211" type="curve" smooth="yes"/>
      <point x="12" y="82"/>
      <point x="114" y="-18"/>
      <point x="234" y="-18" type="curve" smooth="yes"/>
      <point x="356" y="-18"/>
      <point x="456" y="85"/>
      <point x="456" y="211" type="curve" smooth="yes"/>
      <point x="456" y="338"/>
      <point x="356" y="440"/>
      <point x="235" y="440" type="curve" smooth="yes"/>
    </contour>
    <contour>
      <point x="318" y="385"/>
      <point x="394" y="311"/>
      <point x="394" y="211" type="curve" smooth="yes"/>
      <point x="394" y="109"/>
      <point x="317" y="42"/>
      <point x="237" y="42" type="curve" smooth="yes"/>
      <point x="149" y="42"/>
      <point x="78" y="120"/>
      <point x="78" y="215" type="curve" smooth="yes"/>
      <point x="78" y="308"/>
      <point x="148" y="385"/>
      <point x="234" y="385" type="curve" smooth="yes"/>
    </contour>
  </outline>
</glyph>
<glyph name="one" format="1">
  <advance width="356"/>
  <unicode hex="0031"/>
  <outline>
    <contour>
      <point x="90" y="421"/>
      <point x="53" y="424"/>
      <point x="41" y="424" type="curve" smooth="yes"/>
      <point x="31" y="424"/>
      <point x="26" y="418"/>
      <point x="26" y="408" type="curve" smooth="yes"/>
      <point x="26" y="378"/>
      <point x="41" y="385"/>
      <point x="120" y="381" type="curve"/>
      <point x="129" y="380"/>
      <point x="135" y="378"/>
      <point x="135" y="365" type="curve" smooth="yes"/>
      <point x="135" y="58" type="line" smooth="yes"/>
      <point x="135" y="35"/>
      <point x="129" y="40"/>
      <point x="59" y="34" type="curve" smooth="yes"/>
      <point x="49" y="33"/>
      <point x="41" y="30"/>
      <point x="41" y="15" type="curve" smooth="yes"/>
      <point x="41" y="3"/>
      <point x="43" y="-6"/>
      <point x="55" y="-6" type="curve" smooth="yes"/>
      <point x="59" y="-6"/>
      <point x="112" y="0"/>
      <point x="177" y="0" type="curve" smooth="yes"/>
      <point x="243" y="0"/>
      <point x="297" y="-6"/>
      <point x="301" y="-6" type="curve" smooth="yes"/>
      <point x="312" y="-6"/>
      <point x="318" y="1"/>
      <point x="318" y="12" type="curve" smooth="yes"/>
      <point x="318" y="40"/>
      <point x="301" y="34"/>
      <point x="229" y="40" type="curve" smooth="yes"/>
      <point x="214" y="41"/>
      <point x="211" y="49"/>
      <point x="211" y="61" type="curve" smooth="yes"/>
      <point x="211" y="365" type="line" smooth="yes"/>
      <point x="211" y="375"/>
      <point x="213" y="380"/>
      <point x="225" y="381" type="curve" smooth="yes"/>
      <point x="287" y="385"/>
      <point x="300" y="381"/>
      <point x="300" y="402" type="curve" smooth="yes"/>
      <point x="300" y="416"/>
      <point x="298" y="424"/>
      <point x="286" y="424" type="curve" smooth="yes"/>
      <point x="274" y="424"/>
      <point x="237" y="421"/>
      <point x="164" y="421" type="curve" smooth="yes"/>
    </contour>
  </outline>
</glyph>
<glyph name="two" format="1">
  <advance width="450"/>
  <unicode hex="0032"/>
  <outline>
    <contour>
      <point x="85" y="-13"/>
      <point x="260" y="-4"/>
      <point x="353" y="0" type="curve" smooth="yes"/>
      <point x="368" y="1"/>
      <point x="377" y="-1"/>
      <point x="382" y="15" type="curve" smooth="yes"/>
      <point x="419" y="140"/>
      <point x="419" y="138"/>
      <point x="419" y="143" type="curve" smooth="yes"/>
      <point x="419" y="154"/>
      <point x="403" y="155"/>
      <point x="401" y="155" type="curve" smooth="yes"/>
      <point x="394" y="155"/>
      <point x="391" y="150"/>
      <point x="389" y="145" type="curve"/>
      <point x="356" y="75"/>
      <point x="316" y="65"/>
      <point x="274" y="62" type="curve" smooth="yes"/>
      <point x="249" y="60"/>
      <point x="203" y="58"/>
      <point x="201" y="58" type="curve" smooth="yes"/>
      <point x="192" y="58"/>
      <point x="190" y="62"/>
      <point x="190" y="66" type="curve" smooth="yes"/>
      <point x="190" y="68"/>
      <point x="192" y="70"/>
      <point x="194" y="73" type="curve"/>
      <point x="266" y="149"/>
      <point x="338" y="197"/>
      <point x="338" y="278" type="curve" smooth="yes"/>
      <point x="338" y="364"/>
      <point x="254" y="424"/>
      <point x="163" y="424" type="curve" smooth="yes"/>
      <point x="84" y="424"/>
      <point x="25" y="373"/>
      <point x="25" y="301" type="curve" smooth="yes"/>
      <point x="25" y="272"/>
      <point x="37" y="265"/>
      <point x="45" y="265" type="curve" smooth="yes"/>
      <point x="46" y="265" type="line" smooth="yes"/>
      <point x="60" y="265"/>
      <point x="61" y="280"/>
      <point x="61" y="291" type="curve"/>
      <point x="63" y="326"/>
      <point x="92" y="362"/>
      <point x="144" y="362" type="curve" smooth="yes"/>
      <point x="202" y="362"/>
      <point x="276" y="314"/>
      <point x="276" y="250" type="curve" smooth="yes"/>
      <point x="276" y="224"/>
      <point x="261" y="204"/>
      <point x="252" y="192" type="curve" smooth="yes"/>
      <point x="216" y="146"/>
      <point x="174" y="105"/>
      <point x="128" y="69" type="curve" smooth="yes"/>
      <point x="67" y="22"/>
      <point x="49" y="24"/>
      <point x="49" y="6" type="curve" smooth="yes"/>
      <point x="49" y="-1"/>
      <point x="54" y="-13"/>
      <point x="76" y="-13" type="curve" smooth="yes"/>
    </contour>
  </outline>
</glyph>
<glyph name="three" format="1">
  <advance width="360"/>
  <unicode hex="0033"/>
  <outline>
    <contour>
      <point x="58" y="443"/>
      <point x="26" y="392"/>
      <point x="26" y="339" type="curve" smooth="yes"/>
      <point x="26" y="307"/>
      <point x="33" y="298"/>
      <point x="44" y="298" type="curve" smooth="yes"/>
      <point x="48" y="298"/>
      <point x="62" y="301"/>
      <point x="62" y="311" type="curve" smooth="yes"/>
      <point x="62" y="313"/>
      <point x="61" y="323"/>
      <point x="61" y="332" type="curve" smooth="yes"/>
      <point x="61" y="350"/>
      <point x="66" y="370"/>
      <point x="113" y="370" type="curve" smooth="yes"/>
      <point x="187" y="370"/>
      <point x="205" y="308"/>
      <point x="205" y="273" type="curve" smooth="yes"/>
      <point x="205" y="224"/>
      <point x="174" y="183"/>
      <point x="141" y="151" type="curve" smooth="yes"/>
      <point x="112" y="123"/>
      <point x="106" y="125"/>
      <point x="106" y="115" type="curve" smooth="yes"/>
      <point x="106" y="110"/>
      <point x="111" y="102"/>
      <point x="123" y="102" type="curve" smooth="yes"/>
      <point x="131" y="102"/>
      <point x="139" y="104"/>
      <point x="163" y="104" type="curve" smooth="yes"/>
      <point x="261" y="104"/>
      <point x="285" y="52"/>
      <point x="285" y="-10" type="curve" smooth="yes"/>
      <point x="285" y="-71"/>
      <point x="262" y="-139"/>
      <point x="194" y="-139" type="curve" smooth="yes"/>
      <point x="113" y="-139"/>
      <point x="123" y="-69"/>
      <point x="72" y="-69" type="curve" smooth="yes"/>
      <point x="50" y="-69"/>
      <point x="28" y="-85"/>
      <point x="28" y="-109" type="curve" smooth="yes"/>
      <point x="28" y="-132"/>
      <point x="63" y="-182"/>
      <point x="143" y="-182" type="curve" smooth="yes"/>
      <point x="197" y="-182"/>
      <point x="261" y="-163"/>
      <point x="296" y="-117" type="curve" smooth="yes"/>
      <point x="332" y="-71"/>
      <point x="339" y="4"/>
      <point x="339" y="35" type="curve" smooth="yes"/>
      <point x="339" y="103"/>
      <point x="308" y="134"/>
      <point x="282" y="149" type="curve" smooth="yes"/>
      <point x="240" y="174"/>
      <point x="214" y="168"/>
      <point x="214" y="180" type="curve" smooth="yes"/>
      <point x="214" y="185"/>
      <point x="272" y="266"/>
      <point x="272" y="326" type="curve" smooth="yes"/>
      <point x="272" y="410"/>
      <point x="159" y="443"/>
      <point x="119" y="443" type="curve" smooth="yes"/>
    </contour>
  </outline>
</glyph>
<glyph name="four" format="1">
  <advance width="447"/>
  <unicode hex="0034"/>
  <outline>
    <contour>
      <point x="262" y="0" type="line" smooth="yes"/>
      <point x="269" y="0"/>
      <point x="270" y="-4"/>
      <point x="270" y="-10" type="curve" smooth="yes"/>
      <point x="270" y="-174" type="line" smooth="yes"/>
      <point x="270" y="-181"/>
      <point x="271" y="-186"/>
      <point x="280" y="-186" type="curve" smooth="yes"/>
      <point x="320" y="-186" type="line" smooth="yes"/>
      <point x="329" y="-186"/>
      <point x="330" y="-182"/>
      <point x="330" y="-174" type="curve" smooth="yes"/>
      <point x="330" y="-7" type="line" smooth="yes"/>
      <point x="330" y="-1"/>
      <point x="334" y="0"/>
      <point x="339" y="0" type="curve" smooth="yes"/>
      <point x="395" y="0" type="line" smooth="yes"/>
      <point x="401" y="0"/>
      <point x="404" y="1"/>
      <point x="407" y="4" type="curve"/>
      <point x="411" y="9"/>
      <point x="418" y="61"/>
      <point x="418" y="63" type="curve" smooth="yes"/>
      <point x="418" y="71"/>
      <point x="413" y="76"/>
      <point x="398" y="76" type="curve" smooth="yes"/>
      <point x="390" y="76"/>
      <point x="386" y="74"/>
      <point x="356" y="74" type="curve" smooth="yes"/>
      <point x="340" y="74" type="line" smooth="yes"/>
      <point x="332" y="74"/>
      <point x="330" y="78"/>
      <point x="330" y="85" type="curve" smooth="yes"/>
      <point x="331" y="411" type="line" smooth="yes"/>
      <point x="331" y="426"/>
      <point x="323" y="429"/>
      <point x="317" y="429" type="curve" smooth="yes"/>
      <point x="310" y="429"/>
      <point x="305" y="425"/>
      <point x="301" y="420" type="curve" smooth="yes"/>
      <point x="294" y="411"/>
      <point x="300" y="420"/>
      <point x="40" y="46" type="curve" smooth="yes"/>
      <point x="33" y="36"/>
      <point x="23" y="26"/>
      <point x="23" y="14" type="curve" smooth="yes"/>
      <point x="23" y="2"/>
      <point x="32" y="0"/>
      <point x="40" y="0" type="curve" smooth="yes"/>
    </contour>
    <contour>
      <point x="115" y="66" type="line" smooth="yes"/>
      <point x="110" y="66"/>
      <point x="109" y="69"/>
      <point x="109" y="71" type="curve" smooth="yes"/>
      <point x="109" y="74"/>
      <point x="109" y="74"/>
      <point x="259" y="296" type="curve"/>
      <point x="260" y="297"/>
      <point x="261" y="300"/>
      <point x="265" y="300" type="curve" smooth="yes"/>
      <point x="269" y="300"/>
      <point x="270" y="296"/>
      <point x="270" y="292" type="curve" smooth="yes"/>
      <point x="270" y="79" type="line" smooth="yes"/>
      <point x="270" y="73"/>
      <point x="268" y="66"/>
      <point x="260" y="66" type="curve" smooth="yes"/>
    </contour>
  </outline>
</glyph>
<glyph name="five" format="1">
  <advance width="381"/>
  <unicode hex="0035"/>
  <outline>
    <contour>
      <point x="104" y="257" type="line" smooth="yes"/>
      <point x="99" y="257"/>
      <point x="97" y="261"/>
      <point x="97" y="263" type="curve" smooth="yes"/>
      <point x="97" y="265"/>
      <point x="98" y="267"/>
      <point x="98" y="268" type="curve"/>
      <point x="117" y="337"/>
      <point x="117" y="347"/>
      <point x="128" y="347" type="curve" smooth="yes"/>
      <point x="129" y="347" type="line"/>
      <point x="137" y="346"/>
      <point x="280" y="299"/>
      <point x="292" y="299" type="curve" smooth="yes"/>
      <point x="300" y="299"/>
      <point x="303" y="304"/>
      <point x="305" y="310" type="curve"/>
      <point x="351" y="416"/>
      <point x="351" y="415"/>
      <point x="351" y="419" type="curve" smooth="yes"/>
      <point x="351" y="428"/>
      <point x="341" y="433"/>
      <point x="335" y="433" type="curve" smooth="yes"/>
      <point x="334" y="433"/>
      <point x="331" y="433"/>
      <point x="327" y="430" type="curve"/>
      <point x="320" y="423"/>
      <point x="303" y="387"/>
      <point x="285" y="387" type="curve" smooth="yes"/>
      <point x="270" y="387"/>
      <point x="130" y="435"/>
      <point x="118" y="435" type="curve" smooth="yes"/>
      <point x="108" y="435"/>
      <point x="103" y="427"/>
      <point x="101" y="422" type="curve"/>
      <point x="101" y="421"/>
      <point x="38" y="203"/>
      <point x="38" y="196" type="curve" smooth="yes"/>
      <point x="38" y="188"/>
      <point x="42" y="181"/>
      <point x="51" y="181" type="curve" smooth="yes"/>
      <point x="57" y="181"/>
      <point x="74" y="191"/>
      <point x="102" y="191" type="curve" smooth="yes"/>
      <point x="168" y="191"/>
      <point x="235" y="134"/>
      <point x="235" y="38" type="curve" smooth="yes"/>
      <point x="235" y="-10"/>
      <point x="218" y="-51"/>
      <point x="199" y="-81" type="curve" smooth="yes"/>
      <point x="150" y="-156"/>
      <point x="97" y="-157"/>
      <point x="97" y="-179" type="curve" smooth="yes"/>
      <point x="97" y="-189"/>
      <point x="106" y="-194"/>
      <point x="114" y="-194" type="curve" smooth="yes"/>
      <point x="140" y="-194"/>
      <point x="212" y="-143"/>
      <point x="249" y="-88" type="curve" smooth="yes"/>
      <point x="274" y="-51"/>
      <point x="296" y="2"/>
      <point x="296" y="61" type="curve" smooth="yes"/>
      <point x="296" y="183"/>
      <point x="208" y="257"/>
      <point x="117" y="257" type="curve" smooth="yes"/>
    </contour>
  </outline>
</glyph>
<glyph name="six" format="1">
  <advance width="483"/>
  <unicode hex="0036"/>
  <outline>
    <contour>
      <point x="368" y="61"/>
      <point x="317" y="12"/>
      <point x="253" y="12" type="curve" smooth="yes"/>
      <point x="169" y="12"/>
      <point x="97" y="98"/>
      <point x="97" y="217" type="curve" smooth="yes"/>
      <point x="97" y="284"/>
      <point x="118" y="365"/>
      <point x="200" y="365" type="curve" smooth="yes"/>
      <point x="315" y="365"/>
      <point x="368" y="230"/>
      <point x="368" y="142" type="curve" smooth="yes"/>
    </contour>
    <contour>
      <point x="176" y="401"/>
      <point x="153" y="396"/>
      <point x="152" y="396" type="curve" smooth="yes"/>
      <point x="150" y="396"/>
      <point x="148" y="397"/>
      <point x="148" y="399" type="curve" smooth="yes"/>
      <point x="148" y="400"/>
      <point x="149" y="401"/>
      <point x="149" y="402" type="curve"/>
      <point x="208" y="493"/>
      <point x="296" y="557"/>
      <point x="395" y="589" type="curve"/>
      <point x="402" y="592"/>
      <point x="411" y="596"/>
      <point x="411" y="607" type="curve" smooth="yes"/>
      <point x="411" y="616"/>
      <point x="404" y="630"/>
      <point x="391" y="630" type="curve" smooth="yes"/>
      <point x="388" y="630"/>
      <point x="386" y="630"/>
      <point x="384" y="629" type="curve"/>
      <point x="184" y="592"/>
      <point x="33" y="418"/>
      <point x="33" y="227" type="curve" smooth="yes"/>
      <point x="33" y="63"/>
      <point x="146" y="-28"/>
      <point x="255" y="-28" type="curve" smooth="yes"/>
      <point x="369" y="-28"/>
      <point x="445" y="63"/>
      <point x="445" y="169" type="curve" smooth="yes"/>
      <point x="445" y="303"/>
      <point x="334" y="401"/>
      <point x="204" y="401" type="curve" smooth="yes"/>
    </contour>
  </outline>
</glyph>
<glyph name="seven" format="1">
  <advance width="450"/>
  <unicode hex="0037"/>
  <outline>
    <contour>
      <point x="63" y="217"/>
      <point x="66" y="226"/>
      <point x="68" y="232" type="curve" smooth="yes"/>
      <point x="95" y="321"/>
      <point x="93" y="326"/>
      <point x="112" y="330" type="curve"/>
      <point x="123" y="333"/>
      <point x="178" y="337"/>
      <point x="221" y="337" type="curve" smooth="yes"/>
      <point x="255" y="337"/>
      <point x="287" y="335"/>
      <point x="320" y="332" type="curve"/>
      <point x="332" y="330"/>
      <point x="350" y="327"/>
      <point x="350" y="308" type="curve" smooth="yes"/>
      <point x="350" y="301"/>
      <point x="329" y="246"/>
      <point x="285" y="125" type="curve" smooth="yes"/>
      <point x="174" y="-200"/>
      <point x="174" y="-199"/>
      <point x="174" y="-205" type="curve" smooth="yes"/>
      <point x="174" y="-218"/>
      <point x="186" y="-219"/>
      <point x="202" y="-219" type="curve" smooth="yes"/>
      <point x="208" y="-219" type="line"/>
      <point x="209" y="-219" type="line" smooth="yes"/>
      <point x="215" y="-219"/>
      <point x="222" y="-219"/>
      <point x="228" y="-218" type="curve"/>
      <point x="252" y="-216"/>
      <point x="230" y="-219"/>
      <point x="373" y="215" type="curve" smooth="yes"/>
      <point x="430" y="385"/>
      <point x="431" y="386"/>
      <point x="431" y="393" type="curve" smooth="yes"/>
      <point x="431" y="394" type="line" smooth="yes"/>
      <point x="431" y="409"/>
      <point x="421" y="412"/>
      <point x="409" y="412" type="curve" smooth="yes"/>
      <point x="107" y="412" type="line" smooth="yes"/>
      <point x="100" y="412"/>
      <point x="95" y="413"/>
      <point x="93" y="424" type="curve" smooth="yes"/>
      <point x="86" y="458"/>
      <point x="88" y="470"/>
      <point x="72" y="470" type="curve" smooth="yes"/>
      <point x="57" y="470"/>
      <point x="54" y="462"/>
      <point x="54" y="451" type="curve" smooth="yes"/>
      <point x="52" y="330"/>
      <point x="35" y="242"/>
      <point x="35" y="233" type="curve" smooth="yes"/>
      <point x="35" y="220"/>
      <point x="47" y="217"/>
      <point x="52" y="217" type="curve" smooth="yes"/>
    </contour>
  </outline>
</glyph>
<glyph name="eight" format="1">
  <advance width="447"/>
  <unicode hex="0038"/>
  <outline>
    <contour>
      <point x="102" y="572"/>
      <point x="143" y="620"/>
      <point x="197" y="621" type="curve" smooth="yes"/>
      <point x="198" y="621" type="line" smooth="yes"/>
      <point x="258" y="621"/>
      <point x="300" y="566"/>
      <point x="300" y="503" type="curve" smooth="yes"/>
      <point x="300" y="451"/>
      <point x="274" y="404"/>
      <point x="240" y="373" type="curve"/>
      <point x="236" y="369"/>
      <point x="232" y="366"/>
      <point x="226" y="366" type="curve" smooth="yes"/>
      <point x="202" y="366"/>
      <point x="102" y="415"/>
      <point x="102" y="514" type="curve" smooth="yes"/>
    </contour>
    <contour>
      <point x="151" y="25"/>
      <point x="90" y="76"/>
      <point x="90" y="151" type="curve" smooth="yes"/>
      <point x="90" y="239"/>
      <point x="169" y="308"/>
      <point x="183" y="308" type="curve" smooth="yes"/>
      <point x="188" y="308"/>
      <point x="193" y="305"/>
      <point x="198" y="302" type="curve"/>
      <point x="278" y="262"/>
      <point x="342" y="203"/>
      <point x="342" y="136" type="curve" smooth="yes"/>
      <point x="342" y="72"/>
      <point x="285" y="25"/>
      <point x="220" y="25" type="curve" smooth="yes"/>
    </contour>
    <contour>
      <point x="322" y="-22"/>
      <point x="425" y="64"/>
      <point x="425" y="161" type="curve" smooth="yes"/>
      <point x="425" y="236"/>
      <point x="361" y="306"/>
      <point x="268" y="348" type="curve"/>
      <point x="267" y="349"/>
      <point x="265" y="350"/>
      <point x="265" y="352" type="curve" smooth="yes"/>
      <point x="265" y="354"/>
      <point x="266" y="356"/>
      <point x="268" y="357" type="curve"/>
      <point x="329" y="391"/>
      <point x="374" y="458"/>
      <point x="374" y="526" type="curve" smooth="yes"/>
      <point x="374" y="621"/>
      <point x="295" y="668"/>
      <point x="209" y="668" type="curve" smooth="yes"/>
      <point x="104" y="668"/>
      <point x="33" y="581"/>
      <point x="33" y="502" type="curve" smooth="yes"/>
      <point x="33" y="434"/>
      <point x="81" y="372"/>
      <point x="140" y="332" type="curve" smooth="yes"/>
      <point x="143" y="330"/>
      <point x="145" y="328"/>
      <point x="145" y="326" type="curve" smooth="yes"/>
      <point x="145" y="322"/>
      <point x="144" y="323"/>
      <point x="85" y="277" type="curve" smooth="yes"/>
      <point x="50" y="249"/>
      <point x="16" y="212"/>
      <point x="16" y="153" type="curve" smooth="yes"/>
      <point x="16" y="60"/>
      <point x="101" y="-22"/>
      <point x="209" y="-22" type="curve" smooth="yes"/>
    </contour>
  </outline>
</glyph>
<glyph name="nine" format="1">
  <advance width="509"/>
  <unicode hex="0039"/>
  <outline>
    <contour>
      <point x="105" y="346"/>
      <point x="169" y="383"/>
      <point x="221" y="383" type="curve" smooth="yes"/>
      <point x="311" y="383"/>
      <point x="395" y="291"/>
      <point x="395" y="176" type="curve" smooth="yes"/>
      <point x="395" y="152"/>
      <point x="391" y="128"/>
      <point x="384" y="105" type="curve" smooth="yes"/>
      <point x="371" y="65"/>
      <point x="349" y="34"/>
      <point x="284" y="34" type="curve" smooth="yes"/>
      <point x="166" y="34"/>
      <point x="105" y="154"/>
      <point x="105" y="250" type="curve" smooth="yes"/>
    </contour>
    <contour>
      <point x="318" y="-5"/>
      <point x="354" y="8"/>
      <point x="356" y="8" type="curve" smooth="yes"/>
      <point x="358" y="8"/>
      <point x="359" y="7"/>
      <point x="359" y="5" type="curve" smooth="yes"/>
      <point x="359" y="1"/>
      <point x="279" y="-121"/>
      <point x="122" y="-170" type="curve" smooth="yes"/>
      <point x="112" y="-173"/>
      <point x="105" y="-177"/>
      <point x="105" y="-187" type="curve" smooth="yes"/>
      <point x="105" y="-193"/>
      <point x="109" y="-211"/>
      <point x="124" y="-211" type="curve" smooth="yes"/>
      <point x="130" y="-211"/>
      <point x="140" y="-208"/>
      <point x="155" y="-204" type="curve"/>
      <point x="348" y="-144"/>
      <point x="472" y="24"/>
      <point x="472" y="175" type="curve" smooth="yes"/>
      <point x="472" y="318"/>
      <point x="364" y="428"/>
      <point x="238" y="428" type="curve" smooth="yes"/>
      <point x="127" y="428"/>
      <point x="32" y="342"/>
      <point x="32" y="227" type="curve" smooth="yes"/>
      <point x="32" y="104"/>
      <point x="140" y="-5"/>
      <point x="275" y="-5" type="curve" smooth="yes"/>
    </contour>
  </outline>
</glyph>
<glyph name="colon" format="1">
  <advance width="228"/>
  <unicode hex="003A"/>
  <outline>
    <contour>
      <point x="93" y="411"/>
      <point x="65" y="387"/>
      <point x="65" y="353" type="curve" smooth="yes"/>
      <point x="65" y="318"/>
      <point x="93" y="293"/>
      <point x="124" y="293" type="curve" smooth="yes"/>
      <point x="158" y="293"/>
      <point x="184" y="321"/>
      <point x="184" y="352" type="curve" smooth="yes"/>
      <point x="184" y="385"/>
      <point x="156" y="411"/>
      <point x="124" y="411" type="curve" smooth="yes"/>
    </contour>
    <contour>
      <point x="93" y="101"/>
      <point x="65" y="78"/>
      <point x="65" y="43" type="curve" smooth="yes"/>
      <point x="65" y="8"/>
      <point x="93" y="-17"/>
      <point x="124" y="-17" type="curve" smooth="yes"/>
      <point x="158" y="-17"/>
      <point x="184" y="11"/>
      <point x="184" y="42" type="curve" smooth="yes"/>
      <point x="184" y="75"/>
      <point x="156" y="101"/>
      <point x="124" y="101" type="curve" smooth="yes"/>
    </contour>
  </outline>
</glyph>
<glyph name="semicolon" format="1">
  <advance width="227"/>
  <unicode hex="003B"/>
  <outline>
    <contour>
      <point x="93" y="100"/>
      <point x="63" y="77"/>
      <point x="63" y="45" type="curve" smooth="yes"/>
      <point x="63" y="35"/>
      <point x="65" y="26"/>
      <point x="71" y="19" type="curve"/>
      <point x="96" y="-18"/>
      <point x="160" y="7"/>
      <point x="161" y="-43" type="curve" smooth="yes"/>
      <point x="161" y="-44" type="line" smooth="yes"/>
      <point x="161" y="-53"/>
      <point x="157" y="-70"/>
      <point x="135" y="-91" type="curve" smooth="yes"/>
      <point x="112" y="-112"/>
      <point x="92" y="-113"/>
      <point x="92" y="-130" type="curve" smooth="yes"/>
      <point x="92" y="-141"/>
      <point x="101" y="-147"/>
      <point x="110" y="-147" type="curve" smooth="yes"/>
      <point x="132" y="-147"/>
      <point x="212" y="-104"/>
      <point x="212" y="-15" type="curve" smooth="yes"/>
      <point x="212" y="49"/>
      <point x="171" y="100"/>
      <point x="124" y="100" type="curve" smooth="yes"/>
    </contour>
    <contour>
      <point x="93" y="411"/>
      <point x="65" y="387"/>
      <point x="65" y="353" type="curve" smooth="yes"/>
      <point x="65" y="318"/>
      <point x="93" y="293"/>
      <point x="124" y="293" type="curve" smooth="yes"/>
      <point x="158" y="293"/>
      <point x="184" y="321"/>
      <point x="184" y="352" type="curve" smooth="yes"/>
      <point x="184" y="385"/>
      <point x="156" y="411"/>
      <point x="124" y="411" type="curve" smooth="yes"/>
    </contour>
  </outline>
</glyph>
<glyph name="less" format="1">
  <advance width="672"/>
  <unicode hex="003C"/>
  <outline>
    <contour>
      <point x="52" y="230" type="line" smooth="yes"/>
      <point x="52" y="219"/>
      <point x="60" y="215"/>
      <point x="69" y="212" type="curve" smooth="yes"/>
      <point x="587" y="23"/>
      <point x="584" y="23"/>
      <point x="592" y="23" type="curve" smooth="yes"/>
      <point x="615" y="23"/>
      <point x="621" y="50"/>
      <point x="621" y="60" type="curve" smooth="yes"/>
      <point x="621" y="69"/>
      <point x="616" y="74"/>
      <point x="608" y="77" type="curve" smooth="yes"/>
      <point x="161" y="239" type="line"/>
      <point x="602" y="400" type="line"/>
      <point x="612" y="403"/>
      <point x="621" y="408"/>
      <point x="621" y="420" type="curve" smooth="yes"/>
      <point x="621" y="447"/>
      <point x="610" y="458"/>
      <point x="598" y="458" type="curve" smooth="yes"/>
      <point x="590" y="458"/>
      <point x="591" y="457"/>
      <point x="70" y="267" type="curve" smooth="yes"/>
      <point x="62" y="264"/>
      <point x="52" y="260"/>
      <point x="52" y="249" type="curve" smooth="yes"/>
    </contour>
  </outline>
</glyph>
<glyph name="equal" format="1">
  <advance width="701"/>
  <unicode hex="003D"/>
  <outline>
    <contour>
      <point x="622" y="305" type="line" smooth="yes"/>
      <point x="634" y="305"/>
      <point x="648" y="307"/>
      <point x="648" y="330" type="curve" smooth="yes"/>
      <point x="648" y="343" type="line" smooth="yes"/>
      <point x="648" y="359"/>
      <point x="641" y="363"/>
      <point x="628" y="363" type="curve" smooth="yes"/>
      <point x="76" y="363" type="line" smooth="yes"/>
      <point x="65" y="363"/>
      <point x="53" y="362"/>
      <point x="53" y="341" type="curve" smooth="yes"/>
      <point x="53" y="327" type="line" smooth="yes"/>
      <point x="53" y="309"/>
      <point x="61" y="305"/>
      <point x="76" y="305" type="curve" smooth="yes"/>
    </contour>
    <contour>
      <point x="623" y="156" type="line" smooth="yes"/>
      <point x="635" y="156"/>
      <point x="649" y="157"/>
      <point x="649" y="180" type="curve" smooth="yes"/>
      <point x="649" y="194" type="line" smooth="yes"/>
      <point x="649" y="210"/>
      <point x="642" y="214"/>
      <point x="629" y="214" type="curve" smooth="yes"/>
      <point x="77" y="214" type="line" smooth="yes"/>
      <point x="66" y="214"/>
      <point x="54" y="213"/>
      <point x="54" y="192" type="curve" smooth="yes"/>
      <point x="54" y="178" type="line" smooth="yes"/>
      <point x="54" y="161"/>
      <point x="61" y="156"/>
      <point x="76" y="156" type="curve" smooth="yes"/>
    </contour>
  </outline>
</glyph>
<glyph name="greater" format="1">
  <advance width="672"/>
  <unicode hex="003E"/>
  <outline>
    <contour>
      <point x="621" y="249" type="line" smooth="yes"/>
      <point x="621" y="260"/>
      <point x="611" y="264"/>
      <point x="603" y="267" type="curve" smooth="yes"/>
      <point x="82" y="457"/>
      <point x="83" y="458"/>
      <point x="75" y="458" type="curve" smooth="yes"/>
      <point x="63" y="458"/>
      <point x="52" y="447"/>
      <point x="52" y="420" type="curve" smooth="yes"/>
      <point x="52" y="408"/>
      <point x="61" y="403"/>
      <point x="71" y="400" type="curve"/>
      <point x="512" y="239" type="line"/>
      <point x="65" y="77" type="line" smooth="yes"/>
      <point x="57" y="74"/>
      <point x="52" y="69"/>
      <point x="52" y="60" type="curve" smooth="yes"/>
      <point x="52" y="50"/>
      <point x="58" y="23"/>
      <point x="81" y="23" type="curve" smooth="yes"/>
      <point x="88" y="23"/>
      <point x="88" y="24"/>
      <point x="604" y="212" type="curve" smooth="yes"/>
      <point x="613" y="215"/>
      <point x="621" y="219"/>
      <point x="621" y="230" type="curve" smooth="yes"/>
    </contour>
  </outline>
</glyph>
<glyph name="question" format="1">
  <advance width="380"/>
  <unicode hex="003F"/>
  <outline>
    <contour>
      <point x="128" y="101"/>
      <point x="99" y="78"/>
      <point x="99" y="43" type="curve" smooth="yes"/>
      <point x="99" y="8"/>
      <point x="128" y="-17"/>
      <point x="159" y="-17" type="curve" smooth="yes"/>
      <point x="193" y="-17"/>
      <point x="219" y="11"/>
      <point x="219" y="42" type="curve" smooth="yes"/>
      <point x="219" y="75"/>
      <point x="191" y="101"/>
      <point x="159" y="101" type="curve" smooth="yes"/>
    </contour>
    <contour>
      <point x="133" y="689"/>
      <point x="105" y="686"/>
      <point x="79" y="680" type="curve" smooth="yes"/>
      <point x="18" y="667"/>
      <point x="15" y="633"/>
      <point x="15" y="621" type="curve" smooth="yes"/>
      <point x="15" y="597"/>
      <point x="33" y="577"/>
      <point x="57" y="577" type="curve" smooth="yes"/>
      <point x="107" y="577"/>
      <point x="101" y="651"/>
      <point x="165" y="651" type="curve" smooth="yes"/>
      <point x="214" y="651"/>
      <point x="252" y="604"/>
      <point x="252" y="547" type="curve" smooth="yes"/>
      <point x="252" y="432"/>
      <point x="119" y="378"/>
      <point x="119" y="247" type="curve" smooth="yes"/>
      <point x="119" y="200"/>
      <point x="135" y="192"/>
      <point x="146" y="192" type="curve" smooth="yes"/>
      <point x="156" y="192"/>
      <point x="172" y="201"/>
      <point x="172" y="228" type="curve" smooth="yes"/>
      <point x="172" y="235"/>
      <point x="171" y="241"/>
      <point x="171" y="250" type="curve" smooth="yes"/>
      <point x="171" y="390"/>
      <point x="337" y="417"/>
      <point x="337" y="542" type="curve" smooth="yes"/>
      <point x="337" y="601"/>
      <point x="288" y="689"/>
      <point x="160" y="689" type="curve" smooth="yes"/>
    </contour>
  </outline>
</glyph>
<glyph name="at" format="1">
  <advance width="1000"/>
  <unicode hex="0040"/>
  <outline>
    <contour>
      <point x="718" y="-71"/>
      <point x="711" y="-77"/>
      <point x="706" y="-80" type="curve"/>
      <point x="675" y="-105"/>
      <point x="597" y="-138"/>
      <point x="500" y="-138" type="curve" smooth="yes"/>
      <point x="302" y="-138"/>
      <point x="170" y="3"/>
      <point x="170" y="198" type="curve" smooth="yes"/>
      <point x="170" y="425"/>
      <point x="349" y="572"/>
      <point x="543" y="572" type="curve" smooth="yes"/>
      <point x="696" y="572"/>
      <point x="824" y="478"/>
      <point x="824" y="301" type="curve" smooth="yes"/>
      <point x="824" y="300" type="line" smooth="yes"/>
      <point x="824" y="230"/>
      <point x="806" y="158"/>
      <point x="773" y="112" type="curve" smooth="yes"/>
      <point x="741" y="67"/>
      <point x="684" y="38"/>
      <point x="643" y="38" type="curve" smooth="yes"/>
      <point x="623" y="38"/>
      <point x="595" y="48"/>
      <point x="595" y="86" type="curve" smooth="yes"/>
      <point x="595" y="100"/>
      <point x="598" y="116"/>
      <point x="600" y="125" type="curve"/>
      <point x="631" y="306"/>
      <point x="669" y="398"/>
      <point x="669" y="412" type="curve" smooth="yes"/>
      <point x="669" y="423"/>
      <point x="657" y="429"/>
      <point x="646" y="429" type="curve" smooth="yes"/>
      <point x="642" y="429"/>
      <point x="637" y="428"/>
      <point x="633" y="425" type="curve"/>
      <point x="626" y="419"/>
      <point x="621" y="393"/>
      <point x="608" y="393" type="curve" smooth="yes"/>
      <point x="603" y="393"/>
      <point x="597" y="396"/>
      <point x="579" y="396" type="curve" smooth="yes"/>
      <point x="552" y="396"/>
      <point x="527" y="386"/>
      <point x="504" y="372" type="curve" smooth="yes"/>
      <point x="427" y="325"/>
      <point x="302" y="176"/>
      <point x="302" y="83" type="curve" smooth="yes"/>
      <point x="302" y="25"/>
      <point x="344" y="-14"/>
      <point x="395" y="-14" type="curve" smooth="yes"/>
      <point x="448" y="-14"/>
      <point x="497" y="26"/>
      <point x="526" y="62" type="curve"/>
      <point x="528" y="64"/>
      <point x="529" y="66"/>
      <point x="531" y="66" type="curve" smooth="yes"/>
      <point x="538" y="66"/>
      <point x="536" y="-8"/>
      <point x="632" y="-8" type="curve" smooth="yes"/>
      <point x="749" y="-8"/>
      <point x="866" y="126"/>
      <point x="866" y="296" type="curve" smooth="yes"/>
      <point x="866" y="469"/>
      <point x="738" y="611"/>
      <point x="542" y="611" type="curve" smooth="yes"/>
      <point x="455" y="611"/>
      <point x="379" y="584"/>
      <point x="325" y="557" type="curve" smooth="yes"/>
      <point x="123" y="456"/>
      <point x="88" y="284"/>
      <point x="88" y="187" type="curve" smooth="yes"/>
      <point x="88" y="186" type="line" smooth="yes"/>
      <point x="88" y="-41"/>
      <point x="263" y="-175"/>
      <point x="481" y="-176" type="curve" smooth="yes"/>
      <point x="482" y="-176" type="line" smooth="yes"/>
      <point x="528" y="-176"/>
      <point x="573" y="-170"/>
      <point x="617" y="-156" type="curve" smooth="yes"/>
      <point x="658" y="-143"/>
      <point x="737" y="-107"/>
      <point x="737" y="-83" type="curve" smooth="yes"/>
      <point x="737" y="-74"/>
      <point x="730" y="-71"/>
      <point x="725" y="-71" type="curve" smooth="yes"/>
    </contour>
    <contour>
      <point x="587" y="349"/>
      <point x="587" y="351"/>
      <point x="538" y="139" type="curve" smooth="yes"/>
      <point x="535" y="124"/>
      <point x="532" y="123"/>
      <point x="516" y="105" type="curve" smooth="yes"/>
      <point x="486" y="70"/>
      <point x="438" y="52"/>
      <point x="418" y="52" type="curve" smooth="yes"/>
      <point x="401" y="52"/>
      <point x="376" y="62"/>
      <point x="376" y="102" type="curve" smooth="yes"/>
      <point x="376" y="122"/>
      <point x="382" y="143"/>
      <point x="390" y="162" type="curve" smooth="yes"/>
      <point x="439" y="287"/>
      <point x="539" y="363"/>
      <point x="576" y="363" type="curve" smooth="yes"/>
      <point x="583" y="363"/>
      <point x="587" y="359"/>
      <point x="587" y="353" type="curve" smooth="yes"/>
    </contour>
  </outline>
</glyph>
<glyph name="B" format="1">
  <advance width="564"/>
  <unicode hex="0042"/>
  <outline>
    <contour>
      <point x="61" y="686"/>
      <point x="46" y="687"/>
      <point x="42" y="687" type="curve" smooth="yes"/>
      <point x="30" y="687"/>
      <point x="24" y="680"/>
      <point x="24" y="669" type="curve" smooth="yes"/>
      <point x="24" y="648"/>
      <point x="32" y="644"/>
      <point x="42" y="644" type="curve"/>
      <point x="76" y="641"/>
      <point x="94" y="640"/>
      <point x="94" y="612" type="curve" smooth="yes"/>
      <point x="94" y="65" type="line" smooth="yes"/>
      <point x="94" y="48"/>
      <point x="84" y="47"/>
      <point x="73" y="45" type="curve"/>
      <point x="30" y="40"/>
      <point x="17" y="41"/>
      <point x="17" y="22" type="curve" smooth="yes"/>
      <point x="17" y="-1"/>
      <point x="26" y="-2"/>
      <point x="36" y="-2" type="curve" smooth="yes"/>
      <point x="38" y="-2" type="line" smooth="yes"/>
      <point x="83" y="-2"/>
      <point x="117" y="0"/>
      <point x="152" y="0" type="curve" smooth="yes"/>
      <point x="198" y="0"/>
      <point x="243" y="-6"/>
      <point x="289" y="-6" type="curve" smooth="yes"/>
      <point x="361" y="-6"/>
      <point x="398" y="12"/>
      <point x="409" y="17" type="curve" smooth="yes"/>
      <point x="468" y="43"/>
      <point x="536" y="110"/>
      <point x="536" y="206" type="curve" smooth="yes"/>
      <point x="536" y="295"/>
      <point x="474" y="365"/>
      <point x="397" y="380" type="curve"/>
      <point x="395" y="381"/>
      <point x="394" y="382"/>
      <point x="394" y="383" type="curve" smooth="yes"/>
      <point x="394" y="384"/>
      <point x="395" y="385"/>
      <point x="396" y="386" type="curve"/>
      <point x="449" y="419"/>
      <point x="491" y="477"/>
      <point x="491" y="540" type="curve" smooth="yes"/>
      <point x="491" y="594"/>
      <point x="459" y="634"/>
      <point x="430" y="655" type="curve" smooth="yes"/>
      <point x="378" y="691"/>
      <point x="305" y="695"/>
      <point x="264" y="695" type="curve" smooth="yes"/>
      <point x="204" y="695"/>
      <point x="151" y="686"/>
      <point x="90" y="686" type="curve" smooth="yes"/>
    </contour>
    <contour>
      <point x="402" y="499"/>
      <point x="397" y="480"/>
      <point x="388" y="462" type="curve" smooth="yes"/>
      <point x="356" y="401"/>
      <point x="288" y="398"/>
      <point x="248" y="398" type="curve" smooth="yes"/>
      <point x="235" y="398" type="line"/>
      <point x="190" y="398" type="line" smooth="yes"/>
      <point x="181" y="398"/>
      <point x="180" y="403"/>
      <point x="180" y="411" type="curve" smooth="yes"/>
      <point x="180" y="625" type="line"/>
      <point x="180" y="627" type="line" smooth="yes"/>
      <point x="180" y="631"/>
      <point x="180" y="636"/>
      <point x="185" y="640" type="curve" smooth="yes"/>
      <point x="195" y="648"/>
      <point x="235" y="651"/>
      <point x="255" y="651" type="curve" smooth="yes"/>
      <point x="372" y="651"/>
      <point x="402" y="567"/>
      <point x="402" y="519" type="curve" smooth="yes"/>
    </contour>
    <contour>
      <point x="241" y="41"/>
      <point x="225" y="43"/>
      <point x="210" y="45" type="curve"/>
      <point x="181" y="50"/>
      <point x="180" y="65"/>
      <point x="180" y="82" type="curve" smooth="yes"/>
      <point x="180" y="340" type="line" smooth="yes"/>
      <point x="180" y="348"/>
      <point x="181" y="355"/>
      <point x="194" y="355" type="curve" smooth="yes"/>
      <point x="245" y="355" type="line" smooth="yes"/>
      <point x="273" y="355"/>
      <point x="302" y="355"/>
      <point x="329" y="349" type="curve" smooth="yes"/>
      <point x="416" y="330"/>
      <point x="447" y="260"/>
      <point x="447" y="201" type="curve" smooth="yes"/>
      <point x="447" y="96"/>
      <point x="356" y="41"/>
      <point x="257" y="41" type="curve" smooth="yes"/>
    </contour>
  </outline>
</glyph>
<glyph name="C" format="1">
  <advance width="700"/>
  <unicode hex="0043"/>
  <outline>
    <contour>
      <point x="115" y="539"/>
      <point x="246" y="650"/>
      <point x="383" y="650" type="curve" smooth="yes"/>
      <point x="475" y="650"/>
      <point x="546" y="604"/>
      <point x="587" y="552" type="curve" smooth="yes"/>
      <point x="605" y="529"/>
      <point x="609" y="513"/>
      <point x="613" y="486" type="curve" smooth="yes"/>
      <point x="618" y="446"/>
      <point x="616" y="439"/>
      <point x="642" y="439" type="curve" smooth="yes"/>
      <point x="659" y="439"/>
      <point x="662" y="449"/>
      <point x="662" y="456" type="curve" smooth="yes"/>
      <point x="662" y="466"/>
      <point x="635" y="667"/>
      <point x="635" y="668" type="curve"/>
      <point x="634" y="674"/>
      <point x="632" y="680"/>
      <point x="622" y="680" type="curve" smooth="yes"/>
      <point x="620" y="680"/>
      <point x="614" y="679"/>
      <point x="611" y="679" type="curve"/>
      <point x="592" y="674"/>
      <point x="599" y="643"/>
      <point x="582" y="643" type="curve" smooth="yes"/>
      <point x="569" y="643"/>
      <point x="507" y="696"/>
      <point x="386" y="696" type="curve" smooth="yes"/>
      <point x="385" y="696" type="line" smooth="yes"/>
      <point x="292" y="696"/>
      <point x="198" y="659"/>
      <point x="130" y="594" type="curve" smooth="yes"/>
      <point x="65" y="531"/>
      <point x="19" y="436"/>
      <point x="19" y="335" type="curve" smooth="yes"/>
      <point x="19" y="240"/>
      <point x="59" y="145"/>
      <point x="127" y="79" type="curve" smooth="yes"/>
      <point x="194" y="14"/>
      <point x="287" y="-24"/>
      <point x="380" y="-24" type="curve" smooth="yes"/>
      <point x="436" y="-24"/>
      <point x="501" y="-11"/>
      <point x="565" y="26" type="curve" smooth="yes"/>
      <point x="586" y="39"/>
      <point x="588" y="47"/>
      <point x="612" y="47" type="curve" smooth="yes"/>
      <point x="640" y="47" type="line"/>
      <point x="641" y="47" type="line" smooth="yes"/>
      <point x="646" y="47"/>
      <point x="659" y="48"/>
      <point x="663" y="63" type="curve"/>
      <point x="666" y="70"/>
      <point x="688" y="226"/>
      <point x="688" y="226" type="curve"/>
      <point x="688" y="234"/>
      <point x="679" y="237"/>
      <point x="672" y="237" type="curve" smooth="yes"/>
      <point x="660" y="237"/>
      <point x="658" y="227"/>
      <point x="657" y="224" type="curve" smooth="yes"/>
      <point x="620" y="104"/>
      <point x="511" y="27"/>
      <point x="396" y="27" type="curve" smooth="yes"/>
      <point x="240" y="27"/>
      <point x="115" y="170"/>
      <point x="115" y="354" type="curve" smooth="yes"/>
    </contour>
  </outline>
</glyph>
<glyph name="F" format="1">
  <advance width="541"/>
  <unicode hex="0046"/>
  <outline>
    <contour>
      <point x="450" y="496"/>
      <point x="440" y="504"/>
      <point x="427" y="504" type="curve" smooth="yes"/>
      <point x="410" y="504"/>
      <point x="405" y="490"/>
      <point x="403" y="477" type="curve" smooth="yes"/>
      <point x="394" y="427"/>
      <point x="397" y="418"/>
      <point x="376" y="418" type="curve" smooth="yes"/>
      <point x="209" y="418" type="line" smooth="yes"/>
      <point x="197" y="418"/>
      <point x="194" y="423"/>
      <point x="194" y="433" type="curve" smooth="yes"/>
      <point x="194" y="600" type="line" smooth="yes"/>
      <point x="194" y="619"/>
      <point x="196" y="636"/>
      <point x="223" y="636" type="curve" smooth="yes"/>
      <point x="407" y="636" type="line" smooth="yes"/>
      <point x="427" y="636"/>
      <point x="432" y="631"/>
      <point x="442" y="615" type="curve"/>
      <point x="479" y="549"/>
      <point x="485" y="532"/>
      <point x="505" y="532" type="curve" smooth="yes"/>
      <point x="516" y="532"/>
      <point x="525" y="541"/>
      <point x="525" y="555" type="curve" smooth="yes"/>
      <point x="525" y="561"/>
      <point x="508" y="635"/>
      <point x="502" y="662" type="curve" smooth="yes"/>
      <point x="496" y="686"/>
      <point x="481" y="687"/>
      <point x="469" y="687" type="curve" smooth="yes"/>
      <point x="464" y="687" type="line"/>
      <point x="274" y="687" type="line" smooth="yes"/>
      <point x="220" y="687"/>
      <point x="150" y="684"/>
      <point x="112" y="684" type="curve" smooth="yes"/>
      <point x="62" y="684"/>
      <point x="37" y="688"/>
      <point x="28" y="688" type="curve" smooth="yes"/>
      <point x="17" y="688"/>
      <point x="10" y="681"/>
      <point x="10" y="658" type="curve" smooth="yes"/>
      <point x="10" y="637"/>
      <point x="28" y="637"/>
      <point x="33" y="637" type="curve"/>
      <point x="83" y="635"/>
      <point x="98" y="638"/>
      <point x="98" y="606" type="curve" smooth="yes"/>
      <point x="98" y="76" type="line" smooth="yes"/>
      <point x="98" y="59"/>
      <point x="94" y="48"/>
      <point x="68" y="45" type="curve" smooth="yes"/>
      <point x="25" y="41"/>
      <point x="11" y="46"/>
      <point x="11" y="17" type="curve" smooth="yes"/>
      <point x="11" y="3"/>
      <point x="19" y="-6"/>
      <point x="34" y="-6" type="curve" smooth="yes"/>
      <point x="38" y="-6"/>
      <point x="96" y="0"/>
      <point x="169" y="0" type="curve" smooth="yes"/>
      <point x="241" y="0"/>
      <point x="299" y="-6"/>
      <point x="304" y="-6" type="curve" smooth="yes"/>
      <point x="317" y="-6"/>
      <point x="321" y="4"/>
      <point x="321" y="15" type="curve" smooth="yes"/>
      <point x="321" y="24" type="line" smooth="yes"/>
      <point x="321" y="51"/>
      <point x="298" y="45"/>
      <point x="233" y="47" type="curve" smooth="yes"/>
      <point x="192" y="49"/>
      <point x="192" y="67"/>
      <point x="192" y="84" type="curve" smooth="yes"/>
      <point x="192" y="332" type="line" smooth="yes"/>
      <point x="192" y="346"/>
      <point x="193" y="360"/>
      <point x="214" y="360" type="curve" smooth="yes"/>
      <point x="377" y="360" type="line" smooth="yes"/>
      <point x="389" y="360"/>
      <point x="394" y="357"/>
      <point x="395" y="346" type="curve" smooth="yes"/>
      <point x="402" y="288"/>
      <point x="399" y="270"/>
      <point x="423" y="270" type="curve" smooth="yes"/>
      <point x="434" y="270"/>
      <point x="450" y="275"/>
      <point x="450" y="296" type="curve" smooth="yes"/>
      <point x="450" y="305"/>
      <point x="446" y="333"/>
      <point x="446" y="390" type="curve" smooth="yes"/>
      <point x="446" y="446"/>
      <point x="450" y="473"/>
      <point x="450" y="483" type="curve" smooth="yes"/>
    </contour>
  </outline>
</glyph>
<glyph name="J" format="1">
  <advance width="316"/>
  <unicode hex="004A"/>
  <outline>
    <contour>
      <point x="161" y="675" type="line" smooth="yes"/>
      <point x="95" y="675"/>
      <point x="41" y="680"/>
      <point x="37" y="680" type="curve" smooth="yes"/>
      <point x="20" y="680"/>
      <point x="15" y="665"/>
      <point x="15" y="653" type="curve" smooth="yes"/>
      <point x="15" y="636"/>
      <point x="28" y="633"/>
      <point x="37" y="632" type="curve" smooth="yes"/>
      <point x="94" y="626"/>
      <point x="118" y="630"/>
      <point x="118" y="595" type="curve" smooth="yes"/>
      <point x="118" y="-26" type="line" smooth="yes"/>
      <point x="118" y="-52"/>
      <point x="116" y="-66"/>
      <point x="109" y="-91" type="curve" smooth="yes"/>
      <point x="104" y="-110"/>
      <point x="93" y="-152"/>
      <point x="59" y="-152" type="curve" smooth="yes"/>
      <point x="16" y="-152"/>
      <point x="12" y="-86"/>
      <point x="-37" y="-86" type="curve" smooth="yes"/>
      <point x="-64" y="-86"/>
      <point x="-82" y="-109"/>
      <point x="-82" y="-135" type="curve" smooth="yes"/>
      <point x="-82" y="-170"/>
      <point x="-50" y="-212"/>
      <point x="-2" y="-212" type="curve" smooth="yes"/>
      <point x="47" y="-212"/>
      <point x="111" y="-156"/>
      <point x="121" y="-146" type="curve" smooth="yes"/>
      <point x="171" y="-98"/>
      <point x="209" y="-25"/>
      <point x="209" y="56" type="curve" smooth="yes"/>
      <point x="209" y="593" type="line" smooth="yes"/>
      <point x="209" y="612"/>
      <point x="212" y="625"/>
      <point x="235" y="627" type="curve" smooth="yes"/>
      <point x="282" y="632"/>
      <point x="299" y="627"/>
      <point x="299" y="659" type="curve" smooth="yes"/>
      <point x="299" y="669"/>
      <point x="296" y="679"/>
      <point x="282" y="679" type="curve" smooth="yes"/>
      <point x="270" y="679"/>
      <point x="235" y="675"/>
      <point x="165" y="675" type="curve" smooth="yes"/>
    </contour>
  </outline>
</glyph>
<glyph name="M" format="1">
  <advance width="998"/>
  <unicode hex="004D"/>
  <outline>
    <contour>
      <point x="725" y="-6"/>
      <point x="780" y="0"/>
      <point x="848" y="0" type="curve" smooth="yes"/>
      <point x="917" y="0"/>
      <point x="972" y="-6"/>
      <point x="977" y="-6" type="curve" smooth="yes"/>
      <point x="989" y="-6"/>
      <point x="997" y="3"/>
      <point x="997" y="16" type="curve" smooth="yes"/>
      <point x="997" y="45"/>
      <point x="977" y="41"/>
      <point x="933" y="45" type="curve" smooth="yes"/>
      <point x="899" y="49"/>
      <point x="898" y="69"/>
      <point x="898" y="94" type="curve" smooth="yes"/>
      <point x="898" y="101" type="line" smooth="yes"/>
      <point x="898" y="150"/>
      <point x="897" y="199"/>
      <point x="893" y="587" type="curve"/>
      <point x="893" y="605"/>
      <point x="901" y="612"/>
      <point x="917" y="616" type="curve"/>
      <point x="971" y="633"/>
      <point x="995" y="626"/>
      <point x="995" y="653" type="curve" smooth="yes"/>
      <point x="995" y="674"/>
      <point x="987" y="675"/>
      <point x="980" y="675" type="curve" smooth="yes"/>
      <point x="835" y="675" type="line" smooth="yes"/>
      <point x="826" y="675"/>
      <point x="821" y="673"/>
      <point x="817" y="666" type="curve"/>
      <point x="816" y="666"/>
      <point x="817" y="666"/>
      <point x="546" y="159" type="curve"/>
      <point x="543" y="152"/>
      <point x="539" y="148"/>
      <point x="532" y="148" type="curve" smooth="yes"/>
      <point x="523" y="148"/>
      <point x="517" y="156"/>
      <point x="515" y="160" type="curve"/>
      <point x="398" y="346" type="line"/>
      <point x="209" y="662" type="line" smooth="yes"/>
      <point x="203" y="672"/>
      <point x="198" y="675"/>
      <point x="184" y="675" type="curve" smooth="yes"/>
      <point x="40" y="675" type="line" smooth="yes"/>
      <point x="33" y="675"/>
      <point x="22" y="674"/>
      <point x="22" y="653" type="curve" smooth="yes"/>
      <point x="22" y="636"/>
      <point x="35" y="636"/>
      <point x="42" y="635" type="curve"/>
      <point x="100" y="634"/>
      <point x="123" y="590"/>
      <point x="138" y="574" type="curve"/>
      <point x="143" y="568"/>
      <point x="149" y="562"/>
      <point x="149" y="549" type="curve" smooth="yes"/>
      <point x="149" y="504"/>
      <point x="139" y="280"/>
      <point x="124" y="102" type="curve" smooth="yes"/>
      <point x="121" y="74"/>
      <point x="125" y="53"/>
      <point x="92" y="49" type="curve" smooth="yes"/>
      <point x="42" y="43"/>
      <point x="18" y="46"/>
      <point x="18" y="16" type="curve" smooth="yes"/>
      <point x="18" y="-2"/>
      <point x="29" y="-6"/>
      <point x="36" y="-6" type="curve" smooth="yes"/>
      <point x="40" y="-6"/>
      <point x="92" y="0"/>
      <point x="156" y="0" type="curve" smooth="yes"/>
      <point x="220" y="0"/>
      <point x="272" y="-6"/>
      <point x="276" y="-6" type="curve" smooth="yes"/>
      <point x="290" y="-6"/>
      <point x="294" y="8"/>
      <point x="294" y="17" type="curve" smooth="yes"/>
      <point x="294" y="65"/>
      <point x="210" y="29"/>
      <point x="200" y="62" type="curve" smooth="yes"/>
      <point x="197" y="72"/>
      <point x="194" y="223"/>
      <point x="194" y="265" type="curve" smooth="yes"/>
      <point x="194" y="335"/>
      <point x="196" y="403"/>
      <point x="200" y="473" type="curve"/>
      <point x="200" y="475"/>
      <point x="201" y="478"/>
      <point x="204" y="478" type="curve" smooth="yes"/>
      <point x="205" y="478"/>
      <point x="206" y="478"/>
      <point x="207" y="477" type="curve"/>
      <point x="215" y="472"/>
      <point x="359" y="243"/>
      <point x="467" y="21" type="curve" smooth="yes"/>
      <point x="474" y="7"/>
      <point x="483" y="-15"/>
      <point x="502" y="-15" type="curve" smooth="yes"/>
      <point x="506" y="-15"/>
      <point x="515" y="-14"/>
      <point x="524" y="-3" type="curve" smooth="yes"/>
      <point x="542" y="19"/>
      <point x="696" y="323"/>
      <point x="785" y="465" type="curve" smooth="yes"/>
      <point x="788" y="470"/>
      <point x="792" y="477"/>
      <point x="799" y="477" type="curve" smooth="yes"/>
      <point x="802" y="477"/>
      <point x="805" y="476"/>
      <point x="806" y="471" type="curve"/>
      <point x="807" y="468"/>
      <point x="809" y="380"/>
      <point x="809" y="311" type="curve" smooth="yes"/>
      <point x="809" y="98" type="line" smooth="yes"/>
      <point x="809" y="92"/>
      <point x="809" y="85"/>
      <point x="808" y="79" type="curve" smooth="yes"/>
      <point x="797" y="20"/>
      <point x="702" y="63"/>
      <point x="702" y="18" type="curve" smooth="yes"/>
      <point x="702" y="9"/>
      <point x="706" y="-6"/>
      <point x="721" y="-6" type="curve" smooth="yes"/>
    </contour>
  </outline>
</glyph>
<glyph name="O" format="1">
  <advance width="778"/>
  <unicode hex="004F"/>
  <outline>
    <contour>
      <point x="760" y="541"/>
      <point x="602" y="720"/>
      <point x="387" y="720" type="curve" smooth="yes"/>
      <point x="186" y="720"/>
      <point x="18" y="556"/>
      <point x="18" y="353" type="curve" smooth="yes"/>
      <point x="19" y="252"/>
      <point x="62" y="153"/>
      <point x="134" y="84" type="curve" smooth="yes"/>
      <point x="205" y="16"/>
      <point x="303" y="-24"/>
      <point x="401" y="-24" type="curve" smooth="yes"/>
      <point x="596" y="-24"/>
      <point x="760" y="127"/>
      <point x="760" y="337" type="curve" smooth="yes"/>
    </contour>
    <contour>
      <point x="113" y="582"/>
      <point x="247" y="667"/>
      <point x="371" y="667" type="curve" smooth="yes"/>
      <point x="437" y="667"/>
      <point x="502" y="643"/>
      <point x="551" y="600" type="curve" smooth="yes"/>
      <point x="632" y="529"/>
      <point x="661" y="415"/>
      <point x="661" y="319" type="curve" smooth="yes"/>
      <point x="661" y="109"/>
      <point x="511" y="34"/>
      <point x="397" y="34" type="curve" smooth="yes"/>
      <point x="208" y="34"/>
      <point x="113" y="211"/>
      <point x="113" y="384" type="curve" smooth="yes"/>
    </contour>
  </outline>
</glyph>
<glyph name="P" format="1">
  <advance width="572"/>
  <unicode hex="0050"/>
  <outline>
    <contour>
      <point x="476" y="401"/>
      <point x="376" y="336"/>
      <point x="229" y="336" type="curve" smooth="yes"/>
      <point x="195" y="336"/>
      <point x="192" y="337"/>
      <point x="192" y="348" type="curve" smooth="yes"/>
      <point x="192" y="633" type="line" smooth="yes"/>
      <point x="192" y="645"/>
      <point x="198" y="648"/>
      <point x="253" y="648" type="curve" smooth="yes"/>
      <point x="395" y="648"/>
      <point x="476" y="581"/>
      <point x="476" y="498" type="curve" smooth="yes"/>
    </contour>
    <contour>
      <point x="44" y="683" type="line" smooth="yes"/>
      <point x="29" y="683"/>
      <point x="22" y="676"/>
      <point x="22" y="661" type="curve" smooth="yes"/>
      <point x="22" y="636"/>
      <point x="36" y="635"/>
      <point x="46" y="635" type="curve" smooth="yes"/>
      <point x="82" y="635" type="line" smooth="yes"/>
      <point x="103" y="635"/>
      <point x="104" y="621"/>
      <point x="104" y="609" type="curve" smooth="yes"/>
      <point x="104" y="74" type="line" smooth="yes"/>
      <point x="104" y="58"/>
      <point x="99" y="50"/>
      <point x="76" y="47" type="curve" smooth="yes"/>
      <point x="24" y="42"/>
      <point x="14" y="46"/>
      <point x="14" y="18" type="curve" smooth="yes"/>
      <point x="14" y="7"/>
      <point x="18" y="-6"/>
      <point x="34" y="-6" type="curve" smooth="yes"/>
      <point x="39" y="-6"/>
      <point x="98" y="0"/>
      <point x="173" y="0" type="curve" smooth="yes"/>
      <point x="246" y="0"/>
      <point x="306" y="-6"/>
      <point x="311" y="-6" type="curve" smooth="yes"/>
      <point x="327" y="-6"/>
      <point x="330" y="6"/>
      <point x="330" y="18" type="curve" smooth="yes"/>
      <point x="330" y="19" type="line" smooth="yes"/>
      <point x="330" y="49"/>
      <point x="317" y="43"/>
      <point x="222" y="47" type="curve" smooth="yes"/>
      <point x="196" y="49"/>
      <point x="190" y="60"/>
      <point x="190" y="82" type="curve" smooth="yes"/>
      <point x="190" y="285" type="line" smooth="yes"/>
      <point x="190" y="295"/>
      <point x="193" y="301"/>
      <point x="203" y="301" type="curve" smooth="yes"/>
      <point x="233" y="301" type="line" smooth="yes"/>
      <point x="357" y="301"/>
      <point x="420" y="321"/>
      <point x="458" y="342" type="curve" smooth="yes"/>
      <point x="513" y="371"/>
      <point x="559" y="427"/>
      <point x="560" y="502" type="curve" smooth="yes"/>
      <point x="560" y="503" type="line" smooth="yes"/>
      <point x="560" y="552"/>
      <point x="538" y="600"/>
      <point x="502" y="633" type="curve" smooth="yes"/>
      <point x="454" y="676"/>
      <point x="390" y="693"/>
      <point x="307" y="693" type="curve" smooth="yes"/>
      <point x="235" y="693"/>
      <point x="164" y="683"/>
      <point x="69" y="683" type="curve" smooth="yes"/>
    </contour>
  </outline>
</glyph>
<glyph name="Q" format="1">
  <advance width="752"/>
  <unicode hex="0051"/>
  <outline>
    <contour>
      <point x="229" y="32"/>
      <point x="117" y="218"/>
      <point x="117" y="392" type="curve" smooth="yes"/>
      <point x="117" y="579"/>
      <point x="248" y="675"/>
      <point x="376" y="675" type="curve" smooth="yes"/>
      <point x="437" y="675"/>
      <point x="497" y="654"/>
      <point x="543" y="615" type="curve" smooth="yes"/>
      <point x="628" y="542"/>
      <point x="655" y="422"/>
      <point x="655" y="329" type="curve" smooth="yes"/>
      <point x="655" y="146"/>
      <point x="542" y="32"/>
      <point x="407" y="32" type="curve" smooth="yes"/>
    </contour>
    <contour>
      <point x="478" y="-11"/>
      <point x="564" y="-97"/>
      <point x="565" y="-98" type="curve" smooth="yes"/>
      <point x="609" y="-142"/>
      <point x="660" y="-203"/>
      <point x="740" y="-203" type="curve" smooth="yes"/>
      <point x="782" y="-203"/>
      <point x="829" y="-179"/>
      <point x="829" y="-163" type="curve" smooth="yes"/>
      <point x="829" y="-157"/>
      <point x="824" y="-153"/>
      <point x="817" y="-153" type="curve" smooth="yes"/>
      <point x="813" y="-153"/>
      <point x="809" y="-154"/>
      <point x="796" y="-154" type="curve" smooth="yes"/>
      <point x="766" y="-154"/>
      <point x="736" y="-144"/>
      <point x="711" y="-127" type="curve" smooth="yes"/>
      <point x="661" y="-94"/>
      <point x="635" y="-45"/>
      <point x="562" y="6" type="curve"/>
      <point x="560" y="7"/>
      <point x="559" y="8"/>
      <point x="559" y="10" type="curve" smooth="yes"/>
      <point x="559" y="13"/>
      <point x="561" y="14"/>
      <point x="562" y="15" type="curve"/>
      <point x="668" y="87"/>
      <point x="744" y="218"/>
      <point x="744" y="356" type="curve" smooth="yes"/>
      <point x="744" y="455"/>
      <point x="705" y="554"/>
      <point x="634" y="624" type="curve" smooth="yes"/>
      <point x="564" y="693"/>
      <point x="471" y="724"/>
      <point x="388" y="724" type="curve" smooth="yes"/>
      <point x="293" y="724"/>
      <point x="199" y="686"/>
      <point x="132" y="620" type="curve" smooth="yes"/>
      <point x="61" y="551"/>
      <point x="20" y="452"/>
      <point x="20" y="354" type="curve" smooth="yes"/>
      <point x="20" y="258"/>
      <point x="58" y="163"/>
      <point x="126" y="94" type="curve" smooth="yes"/>
      <point x="191" y="28"/>
      <point x="286" y="-16"/>
      <point x="389" y="-16" type="curve" smooth="yes"/>
      <point x="425" y="-16"/>
      <point x="448" y="-11"/>
      <point x="456" y="-11" type="curve" smooth="yes"/>
    </contour>
  </outline>
</glyph>
<glyph name="R" format="1">
  <advance width="696"/>
  <unicode hex="0052"/>
  <outline>
    <contour>
      <point x="438" y="436"/>
      <point x="398" y="397"/>
      <point x="356" y="380" type="curve" smooth="yes"/>
      <point x="328" y="369"/>
      <point x="300" y="366"/>
      <point x="264" y="366" type="curve" smooth="yes"/>
      <point x="205" y="366"/>
      <point x="198" y="366"/>
      <point x="198" y="384" type="curve" smooth="yes"/>
      <point x="198" y="619" type="line" smooth="yes"/>
      <point x="198" y="620"/>
      <point x="197" y="621"/>
      <point x="197" y="622" type="curve" smooth="yes"/>
      <point x="197" y="629"/>
      <point x="198" y="635"/>
      <point x="203" y="638" type="curve"/>
      <point x="212" y="645"/>
      <point x="250" y="648"/>
      <point x="263" y="648" type="curve" smooth="yes"/>
      <point x="364" y="648"/>
      <point x="438" y="576"/>
      <point x="438" y="496" type="curve" smooth="yes"/>
    </contour>
    <contour>
      <point x="217" y="687"/>
      <point x="151" y="675"/>
      <point x="62" y="675" type="curve" smooth="yes"/>
      <point x="27" y="675" type="line" smooth="yes"/>
      <point x="18" y="675"/>
      <point x="14" y="671"/>
      <point x="14" y="656" type="curve" smooth="yes"/>
      <point x="14" y="646"/>
      <point x="19" y="642"/>
      <point x="29" y="640" type="curve" smooth="yes"/>
      <point x="98" y="628"/>
      <point x="113" y="629"/>
      <point x="113" y="597" type="curve" smooth="yes"/>
      <point x="113" y="80" type="line" smooth="yes"/>
      <point x="113" y="60"/>
      <point x="110" y="48"/>
      <point x="86" y="45" type="curve"/>
      <point x="40" y="41"/>
      <point x="24" y="43"/>
      <point x="24" y="21" type="curve" smooth="yes"/>
      <point x="24" y="9"/>
      <point x="27" y="-6"/>
      <point x="42" y="-6" type="curve" smooth="yes"/>
      <point x="46" y="-6"/>
      <point x="101" y="0"/>
      <point x="170" y="0" type="curve" smooth="yes"/>
      <point x="239" y="0"/>
      <point x="295" y="-6"/>
      <point x="299" y="-6" type="curve" smooth="yes"/>
      <point x="312" y="-6"/>
      <point x="319" y="3"/>
      <point x="319" y="16" type="curve" smooth="yes"/>
      <point x="319" y="47"/>
      <point x="295" y="43"/>
      <point x="228" y="49" type="curve" smooth="yes"/>
      <point x="203" y="52"/>
      <point x="202" y="69"/>
      <point x="202" y="81" type="curve" smooth="yes"/>
      <point x="202" y="84" type="line"/>
      <point x="202" y="315" type="line" smooth="yes"/>
      <point x="202" y="327"/>
      <point x="207" y="330"/>
      <point x="216" y="330" type="curve" smooth="yes"/>
      <point x="289" y="330" type="line" smooth="yes"/>
      <point x="296" y="330"/>
      <point x="301" y="330"/>
      <point x="306" y="326" type="curve"/>
      <point x="312" y="322"/>
      <point x="309" y="326"/>
      <point x="398" y="202" type="curve" smooth="yes"/>
      <point x="498" y="60" type="line" smooth="yes"/>
      <point x="510" y="44"/>
      <point x="551" y="-13"/>
      <point x="604" y="-13" type="curve" smooth="yes"/>
      <point x="662" y="-13"/>
      <point x="691" y="45"/>
      <point x="691" y="60" type="curve" smooth="yes"/>
      <point x="691" y="66"/>
      <point x="687" y="71"/>
      <point x="681" y="71" type="curve" smooth="yes"/>
      <point x="668" y="71"/>
      <point x="664" y="49"/>
      <point x="638" y="49" type="curve" smooth="yes"/>
      <point x="617" y="49"/>
      <point x="598" y="65"/>
      <point x="584" y="81" type="curve" smooth="yes"/>
      <point x="546" y="126"/>
      <point x="522" y="194"/>
      <point x="399" y="338" type="curve"/>
      <point x="398" y="339"/>
      <point x="397" y="340"/>
      <point x="397" y="342" type="curve" smooth="yes"/>
      <point x="397" y="345"/>
      <point x="400" y="346"/>
      <point x="402" y="347" type="curve"/>
      <point x="429" y="357"/>
      <point x="516" y="413"/>
      <point x="516" y="513" type="curve" smooth="yes"/>
      <point x="516" y="583"/>
      <point x="463" y="687"/>
      <point x="283" y="687" type="curve" smooth="yes"/>
    </contour>
  </outline>
</glyph>
<glyph name="U" format="1">
  <advance width="756"/>
  <unicode hex="0055"/>
  <outline>
    <contour>
      <point x="742" y="675"/>
      <point x="742" y="689"/>
      <point x="724" y="689" type="curve" smooth="yes"/>
      <point x="715" y="689"/>
      <point x="689" y="686"/>
      <point x="636" y="686" type="curve" smooth="yes"/>
      <point x="583" y="686"/>
      <point x="557" y="689"/>
      <point x="548" y="689" type="curve" smooth="yes"/>
      <point x="538" y="689"/>
      <point x="529" y="684"/>
      <point x="529" y="667" type="curve" smooth="yes"/>
      <point x="529" y="649"/>
      <point x="540" y="646"/>
      <point x="551" y="645" type="curve" smooth="yes"/>
      <point x="597" y="640"/>
      <point x="618" y="641"/>
      <point x="618" y="592" type="curve" smooth="yes"/>
      <point x="618" y="320" type="line" smooth="yes"/>
      <point x="618" y="299"/>
      <point x="619" y="279"/>
      <point x="619" y="258" type="curve" smooth="yes"/>
      <point x="619" y="244" type="line" smooth="yes"/>
      <point x="619" y="215"/>
      <point x="618" y="170"/>
      <point x="600" y="133" type="curve" smooth="yes"/>
      <point x="559" y="46"/>
      <point x="455" y="42"/>
      <point x="417" y="42" type="curve" smooth="yes"/>
      <point x="362" y="42"/>
      <point x="287" y="51"/>
      <point x="237" y="97" type="curve" smooth="yes"/>
      <point x="180" y="148"/>
      <point x="176" y="218"/>
      <point x="176" y="289" type="curve" smooth="yes"/>
      <point x="176" y="602" type="line" smooth="yes"/>
      <point x="176" y="616"/>
      <point x="179" y="633"/>
      <point x="208" y="637" type="curve" smooth="yes"/>
      <point x="249" y="643"/>
      <point x="270" y="636"/>
      <point x="270" y="663" type="curve" smooth="yes"/>
      <point x="270" y="678"/>
      <point x="266" y="689"/>
      <point x="251" y="689" type="curve" smooth="yes"/>
      <point x="240" y="689"/>
      <point x="208" y="686"/>
      <point x="144" y="686" type="curve" smooth="yes"/>
      <point x="138" y="686" type="line" smooth="yes"/>
      <point x="77" y="687"/>
      <point x="47" y="689"/>
      <point x="37" y="689" type="curve" smooth="yes"/>
      <point x="21" y="689"/>
      <point x="17" y="674"/>
      <point x="17" y="665" type="curve" smooth="yes"/>
      <point x="17" y="645"/>
      <point x="36" y="642"/>
      <point x="44" y="641" type="curve" smooth="yes"/>
      <point x="70" y="638"/>
      <point x="86" y="639"/>
      <point x="86" y="612" type="curve" smooth="yes"/>
      <point x="86" y="360" type="line" smooth="yes"/>
      <point x="86" y="335"/>
      <point x="85" y="309"/>
      <point x="85" y="284" type="curve" smooth="yes"/>
      <point x="85" y="237"/>
      <point x="86" y="198"/>
      <point x="98" y="156" type="curve" smooth="yes"/>
      <point x="110" y="117"/>
      <point x="158" y="-15"/>
      <point x="397" y="-15" type="curve" smooth="yes"/>
      <point x="473" y="-15"/>
      <point x="537" y="0"/>
      <point x="586" y="34" type="curve" smooth="yes"/>
      <point x="669" y="92"/>
      <point x="675" y="187"/>
      <point x="675" y="256" type="curve" smooth="yes"/>
      <point x="675" y="288" type="line" smooth="yes"/>
      <point x="675" y="304"/>
      <point x="674" y="319"/>
      <point x="674" y="335" type="curve" smooth="yes"/>
      <point x="674" y="562" type="line" smooth="yes"/>
      <point x="674" y="565"/>
      <point x="675" y="569"/>
      <point x="675" y="572" type="curve" smooth="yes"/>
      <point x="675" y="677"/>
      <point x="742" y="619"/>
      <point x="742" y="663" type="curve" smooth="yes"/>
    </contour>
  </outline>
</glyph>
<glyph name="V" format="1">
  <advance width="830"/>
  <unicode hex="0056"/>
  <outline>
    <contour>
      <point x="22" y="689"/>
      <point x="16" y="677"/>
      <point x="16" y="669" type="curve" smooth="yes"/>
      <point x="16" y="647"/>
      <point x="50" y="641"/>
      <point x="62" y="632" type="curve" smooth="yes"/>
      <point x="92" y="611"/>
      <point x="79" y="561"/>
      <point x="400" y="0" type="curve" smooth="yes"/>
      <point x="403" y="-5"/>
      <point x="410" y="-20"/>
      <point x="426" y="-20" type="curve" smooth="yes"/>
      <point x="441" y="-20"/>
      <point x="448" y="-5"/>
      <point x="451" y="0" type="curve"/>
      <point x="665" y="394"/>
      <point x="717" y="584"/>
      <point x="747" y="617" type="curve" smooth="yes"/>
      <point x="779" y="651"/>
      <point x="823" y="628"/>
      <point x="823" y="662" type="curve" smooth="yes"/>
      <point x="823" y="679"/>
      <point x="817" y="689"/>
      <point x="801" y="689" type="curve" smooth="yes"/>
      <point x="791" y="689"/>
      <point x="761" y="686"/>
      <point x="699" y="686" type="curve" smooth="yes"/>
      <point x="638" y="686"/>
      <point x="607" y="689"/>
      <point x="597" y="689" type="curve" smooth="yes"/>
      <point x="580" y="689"/>
      <point x="575" y="676"/>
      <point x="575" y="664" type="curve" smooth="yes"/>
      <point x="575" y="630"/>
      <point x="615" y="646"/>
      <point x="640" y="637" type="curve" smooth="yes"/>
      <point x="649" y="634"/>
      <point x="662" y="625"/>
      <point x="662" y="607" type="curve" smooth="yes"/>
      <point x="662" y="599"/>
      <point x="658" y="591"/>
      <point x="656" y="585" type="curve" smooth="yes"/>
      <point x="599" y="432"/>
      <point x="532" y="287"/>
      <point x="456" y="149" type="curve"/>
      <point x="455" y="147"/>
      <point x="452" y="141"/>
      <point x="445" y="141" type="curve" smooth="yes"/>
      <point x="441" y="141"/>
      <point x="438" y="143"/>
      <point x="436" y="145" type="curve"/>
      <point x="429" y="153"/>
      <point x="308" y="361"/>
      <point x="204" y="593" type="curve"/>
      <point x="202" y="597"/>
      <point x="198" y="605"/>
      <point x="198" y="613" type="curve" smooth="yes"/>
      <point x="198" y="634"/>
      <point x="216" y="638"/>
      <point x="225" y="639" type="curve"/>
      <point x="270" y="646"/>
      <point x="281" y="645"/>
      <point x="281" y="670" type="curve" smooth="yes"/>
      <point x="281" y="679"/>
      <point x="277" y="689"/>
      <point x="263" y="689" type="curve" smooth="yes"/>
      <point x="253" y="689"/>
      <point x="221" y="686"/>
      <point x="157" y="686" type="curve" smooth="yes"/>
      <point x="90" y="686"/>
      <point x="56" y="689"/>
      <point x="45" y="689" type="curve" smooth="yes"/>
    </contour>
  </outline>
</glyph>
<glyph name="X" format="1">
  <advance width="665"/>
  <unicode hex="0058"/>
  <outline>
    <contour>
      <point x="153" y="686" type="line" smooth="yes"/>
      <point x="84" y="686"/>
      <point x="49" y="689"/>
      <point x="38" y="689" type="curve" smooth="yes"/>
      <point x="22" y="689"/>
      <point x="18" y="678"/>
      <point x="18" y="667" type="curve" smooth="yes"/>
      <point x="18" y="646"/>
      <point x="31" y="642"/>
      <point x="43" y="641" type="curve" smooth="yes"/>
      <point x="85" y="637"/>
      <point x="95" y="640"/>
      <point x="126" y="591" type="curve" smooth="yes"/>
      <point x="282" y="342"/>
      <point x="285" y="339"/>
      <point x="285" y="333" type="curve" smooth="yes"/>
      <point x="285" y="328"/>
      <point x="285" y="330"/>
      <point x="138" y="124" type="curve" smooth="yes"/>
      <point x="98" y="68"/>
      <point x="92" y="54"/>
      <point x="54" y="47" type="curve" smooth="yes"/>
      <point x="13" y="40"/>
      <point x="5" y="42"/>
      <point x="5" y="13" type="curve" smooth="yes"/>
      <point x="5" y="4"/>
      <point x="8" y="-6"/>
      <point x="20" y="-6" type="curve" smooth="yes"/>
      <point x="24" y="-6"/>
      <point x="70" y="0"/>
      <point x="129" y="0" type="curve" smooth="yes"/>
      <point x="187" y="0"/>
      <point x="235" y="-6"/>
      <point x="238" y="-6" type="curve" smooth="yes"/>
      <point x="253" y="-6"/>
      <point x="256" y="7"/>
      <point x="256" y="16" type="curve" smooth="yes"/>
      <point x="256" y="37"/>
      <point x="241" y="40"/>
      <point x="229" y="42" type="curve"/>
      <point x="186" y="47"/>
      <point x="167" y="47"/>
      <point x="167" y="69" type="curve" smooth="yes"/>
      <point x="167" y="79"/>
      <point x="173" y="88"/>
      <point x="178" y="95" type="curve" smooth="yes"/>
      <point x="312" y="288"/>
      <point x="311" y="288"/>
      <point x="315" y="288" type="curve" smooth="yes"/>
      <point x="317" y="288"/>
      <point x="318" y="286"/>
      <point x="318" y="285" type="curve"/>
      <point x="444" y="84"/>
      <point x="447" y="82"/>
      <point x="447" y="70" type="curve" smooth="yes"/>
      <point x="447" y="68" type="line" smooth="yes"/>
      <point x="447" y="59"/>
      <point x="444" y="49"/>
      <point x="425" y="46" type="curve" smooth="yes"/>
      <point x="380" y="40"/>
      <point x="365" y="41"/>
      <point x="365" y="15" type="curve" smooth="yes"/>
      <point x="365" y="3"/>
      <point x="371" y="-6"/>
      <point x="384" y="-6" type="curve" smooth="yes"/>
      <point x="388" y="-6"/>
      <point x="444" y="0"/>
      <point x="512" y="0" type="curve" smooth="yes"/>
      <point x="582" y="0"/>
      <point x="637" y="-6"/>
      <point x="641" y="-6" type="curve" smooth="yes"/>
      <point x="647" y="-6"/>
      <point x="658" y="-4"/>
      <point x="658" y="15" type="curve" smooth="yes"/>
      <point x="658" y="36"/>
      <point x="645" y="41"/>
      <point x="632" y="43" type="curve"/>
      <point x="575" y="49"/>
      <point x="572" y="46"/>
      <point x="546" y="87" type="curve" smooth="yes"/>
      <point x="376" y="356"/>
      <point x="374" y="357"/>
      <point x="374" y="363" type="curve" smooth="yes"/>
      <point x="374" y="369"/>
      <point x="375" y="368"/>
      <point x="504" y="551" type="curve"/>
      <point x="511" y="562"/>
      <point x="548" y="612"/>
      <point x="566" y="625" type="curve" smooth="yes"/>
      <point x="609" y="657"/>
      <point x="658" y="619"/>
      <point x="658" y="671" type="curve" smooth="yes"/>
      <point x="658" y="682"/>
      <point x="652" y="689"/>
      <point x="640" y="689" type="curve" smooth="yes"/>
      <point x="628" y="689"/>
      <point x="593" y="686"/>
      <point x="523" y="686" type="curve" smooth="yes"/>
      <point x="454" y="686"/>
      <point x="419" y="689"/>
      <point x="408" y="689" type="curve" smooth="yes"/>
      <point x="395" y="689"/>
      <point x="392" y="680"/>
      <point x="392" y="672" type="curve" smooth="yes"/>
      <point x="392" y="650"/>
      <point x="402" y="644"/>
      <point x="418" y="643" type="curve" smooth="yes"/>
      <point x="448" y="641"/>
      <point x="473" y="643"/>
      <point x="473" y="611" type="curve" smooth="yes"/>
      <point x="473" y="583"/>
      <point x="457" y="568"/>
      <point x="345" y="410" type="curve"/>
      <point x="344" y="409"/>
      <point x="343" y="408"/>
      <point x="341" y="408" type="curve" smooth="yes"/>
      <point x="337" y="408"/>
      <point x="336" y="411"/>
      <point x="229" y="587" type="curve"/>
      <point x="226" y="593"/>
      <point x="217" y="605"/>
      <point x="217" y="617" type="curve" smooth="yes"/>
      <point x="217" y="659"/>
      <point x="287" y="627"/>
      <point x="287" y="660" type="curve" smooth="yes"/>
      <point x="287" y="685"/>
      <point x="280" y="689"/>
      <point x="268" y="689" type="curve" smooth="yes"/>
      <point x="257" y="689"/>
      <point x="224" y="686"/>
      <point x="156" y="686" type="curve" smooth="yes"/>
    </contour>
  </outline>
</glyph>
<glyph name="Y" format="1">
  <advance width="667"/>
  <unicode hex="0059"/>
  <outline>
    <contour>
      <point x="490" y="21" type="line" smooth="yes"/>
      <point x="490" y="35"/>
      <point x="486" y="44"/>
      <point x="468" y="45" type="curve" smooth="yes"/>
      <point x="371" y="50"/>
      <point x="358" y="46"/>
      <point x="358" y="70" type="curve" smooth="yes"/>
      <point x="358" y="265" type="line" smooth="yes"/>
      <point x="358" y="296"/>
      <point x="359" y="287"/>
      <point x="462" y="427" type="curve" smooth="yes"/>
      <point x="607" y="614" type="line" smooth="yes"/>
      <point x="631" y="645"/>
      <point x="659" y="648"/>
      <point x="659" y="669" type="curve" smooth="yes"/>
      <point x="659" y="677"/>
      <point x="652" y="689"/>
      <point x="631" y="689" type="curve" smooth="yes"/>
      <point x="622" y="689"/>
      <point x="596" y="687"/>
      <point x="542" y="686" type="curve" smooth="yes"/>
      <point x="539" y="686" type="line" smooth="yes"/>
      <point x="486" y="686"/>
      <point x="459" y="689"/>
      <point x="450" y="689" type="curve" smooth="yes"/>
      <point x="434" y="689"/>
      <point x="429" y="677"/>
      <point x="429" y="669" type="curve" smooth="yes"/>
      <point x="429" y="618"/>
      <point x="521" y="666"/>
      <point x="521" y="617" type="curve" smooth="yes"/>
      <point x="521" y="589"/>
      <point x="495" y="558"/>
      <point x="346" y="353" type="curve"/>
      <point x="345" y="352"/>
      <point x="343" y="347"/>
      <point x="338" y="347" type="curve" smooth="yes"/>
      <point x="332" y="347"/>
      <point x="330" y="351"/>
      <point x="324" y="361" type="curve" smooth="yes"/>
      <point x="186" y="600"/>
      <point x="182" y="604"/>
      <point x="182" y="614" type="curve" smooth="yes"/>
      <point x="182" y="616" type="line" smooth="yes"/>
      <point x="182" y="636"/>
      <point x="200" y="638"/>
      <point x="208" y="639" type="curve"/>
      <point x="259" y="643"/>
      <point x="273" y="639"/>
      <point x="273" y="669" type="curve" smooth="yes"/>
      <point x="273" y="679"/>
      <point x="270" y="689"/>
      <point x="255" y="689" type="curve" smooth="yes"/>
      <point x="244" y="689"/>
      <point x="212" y="686"/>
      <point x="146" y="686" type="curve" smooth="yes"/>
      <point x="80" y="686"/>
      <point x="47" y="689"/>
      <point x="36" y="689" type="curve" smooth="yes"/>
      <point x="16" y="689"/>
      <point x="11" y="676"/>
      <point x="11" y="667" type="curve" smooth="yes"/>
      <point x="11" y="661"/>
      <point x="13" y="656"/>
      <point x="15" y="653" type="curve"/>
      <point x="26" y="632"/>
      <point x="49" y="651"/>
      <point x="68" y="627" type="curve"/>
      <point x="73" y="620"/>
      <point x="68" y="627"/>
      <point x="252" y="332" type="curve" smooth="yes"/>
      <point x="267" y="307"/>
      <point x="273" y="301"/>
      <point x="273" y="277" type="curve" smooth="yes"/>
      <point x="273" y="70" type="line" smooth="yes"/>
      <point x="273" y="48"/>
      <point x="258" y="49"/>
      <point x="244" y="48" type="curve" smooth="yes"/>
      <point x="178" y="44"/>
      <point x="166" y="49"/>
      <point x="166" y="22" type="curve" smooth="yes"/>
      <point x="166" y="0"/>
      <point x="179" y="-6"/>
      <point x="191" y="-6" type="curve" smooth="yes"/>
      <point x="195" y="-6"/>
      <point x="256" y="0"/>
      <point x="333" y="0" type="curve" smooth="yes"/>
      <point x="408" y="0"/>
      <point x="469" y="-6"/>
      <point x="474" y="-6" type="curve" smooth="yes"/>
      <point x="487" y="-6"/>
      <point x="490" y="4"/>
      <point x="490" y="13" type="curve" smooth="yes"/>
    </contour>
  </outline>
</glyph>
<glyph name="Z" format="1">
  <advance width="629"/>
  <unicode hex="005A"/>
  <outline>
    <contour>
      <point x="16" y="492"/>
      <point x="28" y="486"/>
      <point x="36" y="486" type="curve" smooth="yes"/>
      <point x="51" y="486"/>
      <point x="55" y="500"/>
      <point x="57" y="508" type="curve" smooth="yes"/>
      <point x="77" y="586"/>
      <point x="73" y="600"/>
      <point x="123" y="600" type="curve" smooth="yes"/>
      <point x="446" y="600" type="line" smooth="yes"/>
      <point x="458" y="600"/>
      <point x="460" y="593"/>
      <point x="460" y="589" type="curve" smooth="yes"/>
      <point x="460" y="585"/>
      <point x="460" y="583"/>
      <point x="446" y="567" type="curve" smooth="yes"/>
      <point x="296" y="401"/>
      <point x="154" y="224"/>
      <point x="24" y="40" type="curve"/>
      <point x="20" y="35"/>
      <point x="16" y="29"/>
      <point x="16" y="21" type="curve" smooth="yes"/>
      <point x="16" y="1"/>
      <point x="37" y="0"/>
      <point x="44" y="0" type="curve" smooth="yes"/>
      <point x="46" y="0" type="line"/>
      <point x="569" y="0" type="line"/>
      <point x="609" y="5"/>
      <point x="601" y="51"/>
      <point x="608" y="123" type="curve" smooth="yes"/>
      <point x="613" y="165"/>
      <point x="620" y="185"/>
      <point x="620" y="227" type="curve" smooth="yes"/>
      <point x="620" y="228" type="line" smooth="yes"/>
      <point x="620" y="248"/>
      <point x="605" y="256"/>
      <point x="596" y="256" type="curve" smooth="yes"/>
      <point x="585" y="256"/>
      <point x="579" y="249"/>
      <point x="577" y="246" type="curve"/>
      <point x="570" y="232"/>
      <point x="565" y="171"/>
      <point x="553" y="142" type="curve" smooth="yes"/>
      <point x="528" y="83"/>
      <point x="478" y="81"/>
      <point x="405" y="81" type="curve" smooth="yes"/>
      <point x="384" y="81" type="line" smooth="yes"/>
      <point x="351" y="81"/>
      <point x="318" y="82"/>
      <point x="286" y="84" type="curve" smooth="yes"/>
      <point x="209" y="89"/>
      <point x="186" y="90"/>
      <point x="186" y="112" type="curve" smooth="yes"/>
      <point x="186" y="118"/>
      <point x="189" y="124"/>
      <point x="191" y="127" type="curve"/>
      <point x="236" y="207"/>
      <point x="293" y="279"/>
      <point x="351" y="349" type="curve" smooth="yes"/>
      <point x="496" y="531" type="line" smooth="yes"/>
      <point x="579" y="640"/>
      <point x="586" y="647"/>
      <point x="586" y="657" type="curve" smooth="yes"/>
      <point x="586" y="664"/>
      <point x="582" y="675"/>
      <point x="562" y="675" type="curve" smooth="yes"/>
      <point x="126" y="675" type="line" smooth="yes"/>
      <point x="98" y="675"/>
      <point x="76" y="686"/>
      <point x="71" y="702" type="curve"/>
      <point x="67" y="711"/>
      <point x="61" y="726"/>
      <point x="45" y="726" type="curve" smooth="yes"/>
      <point x="36" y="726"/>
      <point x="24" y="720"/>
      <point x="24" y="698" type="curve" smooth="yes"/>
      <point x="24" y="661" type="line" smooth="yes"/>
      <point x="24" y="571"/>
      <point x="16" y="526"/>
      <point x="16" y="511" type="curve" smooth="yes"/>
    </contour>
  </outline>
</glyph>
<glyph name="bracketleft" format="1">
  <advance width="378"/>
  <unicode hex="005B"/>
  <outline>
    <contour>
      <point x="125" y="674" type="line" smooth="yes"/>
      <point x="125" y="677"/>
      <point x="126" y="679"/>
      <point x="128" y="679" type="curve" smooth="yes"/>
      <point x="130" y="679"/>
      <point x="131" y="678"/>
      <point x="132" y="677" type="curve"/>
      <point x="170" y="653"/>
      <point x="192" y="662"/>
      <point x="192" y="649" type="curve" smooth="yes"/>
      <point x="192" y="-131" type="line" smooth="yes"/>
      <point x="192" y="-134"/>
      <point x="192" y="-136"/>
      <point x="188" y="-137" type="curve"/>
      <point x="148" y="-143"/>
      <point x="134" y="-160"/>
      <point x="129" y="-160" type="curve" smooth="yes"/>
      <point x="126" y="-160"/>
      <point x="125" y="-158"/>
      <point x="125" y="-155" type="curve" smooth="yes"/>
    </contour>
    <contour>
      <point x="81" y="744"/>
      <point x="79" y="723"/>
      <point x="79" y="710" type="curve" smooth="yes"/>
      <point x="79" y="300" type="line" smooth="yes"/>
      <point x="79" y="296"/>
      <point x="78" y="293"/>
      <point x="75" y="293" type="curve" smooth="yes"/>
      <point x="71" y="293"/>
      <point x="65" y="300"/>
      <point x="52" y="300" type="curve" smooth="yes"/>
      <point x="40" y="300"/>
      <point x="23" y="293"/>
      <point x="23" y="264" type="curve" smooth="yes"/>
      <point x="23" y="246"/>
      <point x="29" y="223"/>
      <point x="52" y="223" type="curve" smooth="yes"/>
      <point x="66" y="223"/>
      <point x="72" y="233"/>
      <point x="76" y="233" type="curve" smooth="yes"/>
      <point x="79" y="233"/>
      <point x="80" y="230"/>
      <point x="80" y="226" type="curve" smooth="yes"/>
      <point x="80" y="-188" type="line" smooth="yes"/>
      <point x="80" y="-200"/>
      <point x="83" y="-210"/>
      <point x="96" y="-210" type="curve" smooth="yes"/>
      <point x="107" y="-210"/>
      <point x="142" y="-185"/>
      <point x="211" y="-185" type="curve" smooth="yes"/>
      <point x="287" y="-185"/>
      <point x="333" y="-220"/>
      <point x="342" y="-220" type="curve" smooth="yes"/>
      <point x="349" y="-220"/>
      <point x="354" y="-213"/>
      <point x="354" y="-207" type="curve" smooth="yes"/>
      <point x="354" y="-197"/>
      <point x="332" y="-175"/>
      <point x="307" y="-159" type="curve" smooth="yes"/>
      <point x="253" y="-127"/>
      <point x="234" y="-147"/>
      <point x="234" y="-127" type="curve"/>
      <point x="233" y="646" type="line"/>
      <point x="233" y="651"/>
      <point x="234" y="653"/>
      <point x="239" y="653" type="curve" smooth="yes"/>
      <point x="309" y="654"/>
      <point x="355" y="709"/>
      <point x="355" y="721" type="curve" smooth="yes"/>
      <point x="355" y="726"/>
      <point x="350" y="737"/>
      <point x="343" y="737" type="curve" smooth="yes"/>
      <point x="338" y="737"/>
      <point x="288" y="708"/>
      <point x="222" y="708" type="curve" smooth="yes"/>
      <point x="145" y="708"/>
      <point x="127" y="744"/>
      <point x="104" y="744" type="curve" smooth="yes"/>
    </contour>
  </outline>
</glyph>
<glyph name="backslash" format="1">
  <advance width="235"/>
  <unicode hex="005C"/>
  <outline>
    <contour>
      <point x="232" y="-181"/>
      <point x="141" y="144"/>
      <point x="49" y="603" type="curve"/>
      <point x="47" y="610"/>
      <point x="45" y="618"/>
      <point x="34" y="618" type="curve" smooth="yes"/>
      <point x="26" y="618"/>
      <point x="3" y="608"/>
      <point x="3" y="596" type="curve" smooth="yes"/>
      <point x="3" y="592"/>
      <point x="26" y="493"/>
      <point x="190" y="-215" type="curve"/>
      <point x="190" y="-217"/>
      <point x="192" y="-226"/>
      <point x="201" y="-226" type="curve" smooth="yes"/>
      <point x="207" y="-226"/>
      <point x="232" y="-214"/>
      <point x="232" y="-200" type="curve" smooth="yes"/>
    </contour>
  </outline>
</glyph>
<glyph name="bracketright" format="1">
  <advance width="378"/>
  <unicode hex="005D"/>
  <outline>
    <contour>
      <point x="253" y="-155" type="line" smooth="yes"/>
      <point x="253" y="-158"/>
      <point x="252" y="-160"/>
      <point x="249" y="-160" type="curve" smooth="yes"/>
      <point x="244" y="-160"/>
      <point x="230" y="-143"/>
      <point x="190" y="-137" type="curve"/>
      <point x="186" y="-136"/>
      <point x="186" y="-134"/>
      <point x="186" y="-131" type="curve" smooth="yes"/>
      <point x="186" y="649" type="line" smooth="yes"/>
      <point x="186" y="662"/>
      <point x="208" y="653"/>
      <point x="246" y="677" type="curve"/>
      <point x="247" y="678"/>
      <point x="248" y="679"/>
      <point x="250" y="679" type="curve" smooth="yes"/>
      <point x="252" y="679"/>
      <point x="253" y="677"/>
      <point x="253" y="674" type="curve" smooth="yes"/>
    </contour>
    <contour>
      <point x="251" y="744"/>
      <point x="233" y="708"/>
      <point x="156" y="708" type="curve" smooth="yes"/>
      <point x="90" y="708"/>
      <point x="40" y="737"/>
      <point x="35" y="737" type="curve" smooth="yes"/>
      <point x="28" y="737"/>
      <point x="23" y="726"/>
      <point x="23" y="721" type="curve" smooth="yes"/>
      <point x="23" y="709"/>
      <point x="69" y="654"/>
      <point x="139" y="653" type="curve" smooth="yes"/>
      <point x="144" y="653"/>
      <point x="145" y="651"/>
      <point x="145" y="646" type="curve" smooth="yes"/>
      <point x="144" y="-127" type="line" smooth="yes"/>
      <point x="144" y="-147"/>
      <point x="125" y="-127"/>
      <point x="71" y="-159" type="curve" smooth="yes"/>
      <point x="46" y="-175"/>
      <point x="24" y="-197"/>
      <point x="24" y="-207" type="curve" smooth="yes"/>
      <point x="24" y="-213"/>
      <point x="29" y="-220"/>
      <point x="36" y="-220" type="curve" smooth="yes"/>
      <point x="45" y="-220"/>
      <point x="91" y="-185"/>
      <point x="167" y="-185" type="curve" smooth="yes"/>
      <point x="236" y="-185"/>
      <point x="271" y="-210"/>
      <point x="282" y="-210" type="curve" smooth="yes"/>
      <point x="295" y="-210"/>
      <point x="298" y="-200"/>
      <point x="298" y="-188" type="curve" smooth="yes"/>
      <point x="298" y="226" type="line" smooth="yes"/>
      <point x="298" y="230"/>
      <point x="299" y="233"/>
      <point x="302" y="233" type="curve" smooth="yes"/>
      <point x="306" y="233"/>
      <point x="312" y="223"/>
      <point x="326" y="223" type="curve" smooth="yes"/>
      <point x="349" y="223"/>
      <point x="355" y="246"/>
      <point x="355" y="264" type="curve" smooth="yes"/>
      <point x="355" y="293"/>
      <point x="338" y="300"/>
      <point x="326" y="300" type="curve" smooth="yes"/>
      <point x="313" y="300"/>
      <point x="307" y="293"/>
      <point x="303" y="293" type="curve" smooth="yes"/>
      <point x="300" y="293"/>
      <point x="299" y="296"/>
      <point x="299" y="300" type="curve" smooth="yes"/>
      <point x="299" y="710" type="line" smooth="yes"/>
      <point x="299" y="723"/>
      <point x="297" y="744"/>
      <point x="274" y="744" type="curve" smooth="yes"/>
    </contour>
  </outline>
</glyph>
<glyph name="asciicircum" format="1">
  <advance width="423"/>
  <unicode hex="005E"/>
  <outline>
    <contour>
      <point x="92" y="462"/>
      <point x="103" y="480"/>
      <point x="120" y="500" type="curve" smooth="yes"/>
      <point x="208" y="608"/>
      <point x="204" y="605"/>
      <point x="212" y="606" type="curve"/>
      <point x="221" y="606"/>
      <point x="219" y="605"/>
      <point x="299" y="502" type="curve" smooth="yes"/>
      <point x="312" y="485"/>
      <point x="328" y="460"/>
      <point x="349" y="460" type="curve" smooth="yes"/>
      <point x="362" y="460"/>
      <point x="373" y="469"/>
      <point x="373" y="483" type="curve" smooth="yes"/>
      <point x="373" y="498"/>
      <point x="368" y="500"/>
      <point x="259" y="675" type="curve"/>
      <point x="248" y="691"/>
      <point x="233" y="716"/>
      <point x="209" y="716" type="curve" smooth="yes"/>
      <point x="204" y="716"/>
      <point x="199" y="715"/>
      <point x="194" y="713" type="curve"/>
      <point x="172" y="703"/>
      <point x="172" y="697"/>
      <point x="58" y="504" type="curve" smooth="yes"/>
      <point x="55" y="499"/>
      <point x="51" y="492"/>
      <point x="51" y="484" type="curve" smooth="yes"/>
      <point x="51" y="472"/>
      <point x="60" y="462"/>
      <point x="73" y="462" type="curve" smooth="yes"/>
    </contour>
  </outline>
</glyph>
<glyph name="underscore" format="1">
  <advance width="527"/>
  <unicode hex="005F"/>
  <outline>
    <contour>
      <point x="27" y="-50" type="line" smooth="yes"/>
      <point x="27" y="-62"/>
      <point x="27" y="-76"/>
      <point x="41" y="-76" type="curve" smooth="yes"/>
      <point x="487" y="-76" type="line" smooth="yes"/>
      <point x="501" y="-76"/>
      <point x="501" y="-61"/>
      <point x="501" y="-48" type="curve" smooth="yes"/>
      <point x="501" y="-46" type="line" smooth="yes"/>
      <point x="501" y="-34"/>
      <point x="499" y="-21"/>
      <point x="487" y="-21" type="curve" smooth="yes"/>
      <point x="41" y="-21" type="line" smooth="yes"/>
      <point x="28" y="-21"/>
      <point x="27" y="-34"/>
      <point x="27" y="-46" type="curve" smooth="yes"/>
    </contour>
  </outline>
</glyph>
<glyph name="grave" format="1">
  <advance width="227"/>
  <unicode hex="0060"/>
  <outline>
    <contour>
      <point x="8" y="642"/>
      <point x="26" y="626"/>
      <point x="33" y="619" type="curve" smooth="yes"/>
      <point x="173" y="477"/>
      <point x="173" y="474"/>
      <point x="185" y="474" type="curve" smooth="yes"/>
      <point x="187" y="474" type="line" smooth="yes"/>
      <point x="198" y="474"/>
      <point x="206" y="484"/>
      <point x="206" y="494" type="curve" smooth="yes"/>
      <point x="206" y="507"/>
      <point x="201" y="510"/>
      <point x="101" y="659" type="curve" smooth="yes"/>
      <point x="92" y="673"/>
      <point x="74" y="701"/>
      <point x="46" y="701" type="curve" smooth="yes"/>
      <point x="45" y="701" type="line" smooth="yes"/>
      <point x="26" y="701"/>
      <point x="8" y="686"/>
      <point x="8" y="664" type="curve" smooth="yes"/>
    </contour>
  </outline>
</glyph>
<glyph name="b" format="1">
  <advance width="486"/>
  <unicode hex="0062"/>
  <outline>
    <contour>
      <point x="142" y="425"/>
      <point x="145" y="634"/>
      <point x="145" y="693" type="curve" smooth="yes"/>
      <point x="145" y="709"/>
      <point x="137" y="712"/>
      <point x="131" y="713" type="curve"/>
      <point x="127" y="713"/>
      <point x="118" y="709"/>
      <point x="17" y="669" type="curve" smooth="yes"/>
      <point x="12" y="667"/>
      <point x="4" y="664"/>
      <point x="4" y="656" type="curve" smooth="yes"/>
      <point x="4" y="648"/>
      <point x="16" y="643"/>
      <point x="60" y="616" type="curve"/>
      <point x="69" y="610"/>
      <point x="72" y="606"/>
      <point x="72" y="594" type="curve" smooth="yes"/>
      <point x="72" y="477"/>
      <point x="69" y="126"/>
      <point x="69" y="9" type="curve" smooth="yes"/>
      <point x="69" y="-5"/>
      <point x="71" y="-21"/>
      <point x="85" y="-21" type="curve" smooth="yes"/>
      <point x="100" y="-21"/>
      <point x="105" y="0"/>
      <point x="135" y="0" type="curve" smooth="yes"/>
      <point x="165" y="0"/>
      <point x="184" y="-19"/>
      <point x="232" y="-19" type="curve" smooth="yes"/>
      <point x="254" y="-19"/>
      <point x="302" y="-15"/>
      <point x="344" y="1" type="curve" smooth="yes"/>
      <point x="455" y="43"/>
      <point x="477" y="146"/>
      <point x="477" y="209" type="curve" smooth="yes"/>
      <point x="477" y="341"/>
      <point x="399" y="430"/>
      <point x="282" y="430" type="curve" smooth="yes"/>
      <point x="197" y="430"/>
      <point x="155" y="389"/>
      <point x="146" y="389" type="curve" smooth="yes"/>
      <point x="144" y="389"/>
      <point x="142" y="390"/>
      <point x="142" y="395" type="curve" smooth="yes"/>
    </contour>
    <contour>
      <point x="414" y="91"/>
      <point x="346" y="22"/>
      <point x="244" y="22" type="curve" smooth="yes"/>
      <point x="212" y="22"/>
      <point x="181" y="29"/>
      <point x="152" y="41" type="curve" smooth="yes"/>
      <point x="140" y="46"/>
      <point x="138" y="53"/>
      <point x="138" y="65" type="curve" smooth="yes"/>
      <point x="138" y="67"/>
      <point x="139" y="70"/>
      <point x="139" y="72" type="curve" smooth="yes"/>
      <point x="139" y="328" type="line" smooth="yes"/>
      <point x="139" y="349"/>
      <point x="201" y="377"/>
      <point x="247" y="377" type="curve" smooth="yes"/>
      <point x="333" y="377"/>
      <point x="414" y="304"/>
      <point x="414" y="192" type="curve" smooth="yes"/>
    </contour>
  </outline>
</glyph>
<glyph name="c" format="1">
  <advance width="381"/>
  <unicode hex="0063"/>
  <outline>
    <contour>
      <point x="284" y="-18"/>
      <point x="342" y="23"/>
      <point x="374" y="67" type="curve" smooth="yes"/>
      <point x="377" y="71"/>
      <point x="380" y="77"/>
      <point x="380" y="83" type="curve" smooth="yes"/>
      <point x="380" y="93"/>
      <point x="372" y="100"/>
      <point x="363" y="100" type="curve" smooth="yes"/>
      <point x="340" y="100"/>
      <point x="319" y="46"/>
      <point x="241" y="46" type="curve" smooth="yes"/>
      <point x="149" y="46"/>
      <point x="83" y="129"/>
      <point x="83" y="222" type="curve" smooth="yes"/>
      <point x="83" y="306"/>
      <point x="136" y="376"/>
      <point x="197" y="376" type="curve" smooth="yes"/>
      <point x="255" y="376"/>
      <point x="272" y="316"/>
      <point x="318" y="316" type="curve" smooth="yes"/>
      <point x="339" y="316"/>
      <point x="358" y="331"/>
      <point x="358" y="354" type="curve" smooth="yes"/>
      <point x="358" y="392"/>
      <point x="303" y="428"/>
      <point x="231" y="428" type="curve" smooth="yes"/>
      <point x="103" y="428"/>
      <point x="17" y="333"/>
      <point x="17" y="197" type="curve" smooth="yes"/>
      <point x="17" y="74"/>
      <point x="94" y="-18"/>
      <point x="209" y="-18" type="curve" smooth="yes"/>
    </contour>
  </outline>
</glyph>
<glyph name="d" format="1">
  <advance width="494"/>
  <unicode hex="0064"/>
  <outline>
    <contour>
      <point x="275" y="383"/>
      <point x="315" y="373"/>
      <point x="345" y="345" type="curve" smooth="yes"/>
      <point x="355" y="335"/>
      <point x="355" y="328"/>
      <point x="355" y="321" type="curve" smooth="yes"/>
      <point x="355" y="97" type="line" smooth="yes"/>
      <point x="355" y="89"/>
      <point x="354" y="82"/>
      <point x="352" y="74" type="curve"/>
      <point x="344" y="48"/>
      <point x="296" y="31"/>
      <point x="258" y="31" type="curve" smooth="yes"/>
      <point x="189" y="31"/>
      <point x="84" y="92"/>
      <point x="84" y="216" type="curve" smooth="yes"/>
      <point x="84" y="317"/>
      <point x="136" y="383"/>
      <point x="238" y="383" type="curve" smooth="yes"/>
    </contour>
    <contour>
      <point x="239" y="423" type="line" smooth="yes"/>
      <point x="81" y="423"/>
      <point x="17" y="311"/>
      <point x="17" y="207" type="curve" smooth="yes"/>
      <point x="17" y="81"/>
      <point x="104" y="-21"/>
      <point x="235" y="-21" type="curve" smooth="yes"/>
      <point x="313" y="-21"/>
      <point x="351" y="18"/>
      <point x="354" y="18" type="curve" smooth="yes"/>
      <point x="355" y="18"/>
      <point x="356" y="17"/>
      <point x="356" y="15" type="curve" smooth="yes"/>
      <point x="356" y="-18" type="line" smooth="yes"/>
      <point x="356" y="-27"/>
      <point x="361" y="-28"/>
      <point x="364" y="-28" type="curve" smooth="yes"/>
      <point x="374" y="-28"/>
      <point x="387" y="-9"/>
      <point x="433" y="16" type="curve" smooth="yes"/>
      <point x="473" y="39"/>
      <point x="492" y="39"/>
      <point x="492" y="54" type="curve" smooth="yes"/>
      <point x="492" y="68"/>
      <point x="474" y="68"/>
      <point x="473" y="68" type="curve"/>
      <point x="437" y="70"/>
      <point x="427" y="67"/>
      <point x="426" y="82" type="curve"/>
      <point x="425" y="91"/>
      <point x="423" y="277"/>
      <point x="423" y="376" type="curve" smooth="yes"/>
      <point x="423" y="570"/>
      <point x="426" y="667"/>
      <point x="426" y="700" type="curve" smooth="yes"/>
      <point x="426" y="708"/>
      <point x="422" y="714"/>
      <point x="414" y="714" type="curve" smooth="yes"/>
      <point x="410" y="714"/>
      <point x="391" y="705"/>
      <point x="285" y="653" type="curve"/>
      <point x="282" y="651"/>
      <point x="276" y="648"/>
      <point x="276" y="642" type="curve" smooth="yes"/>
      <point x="276" y="632"/>
      <point x="288" y="628"/>
      <point x="295" y="626" type="curve"/>
      <point x="348" y="605"/>
      <point x="355" y="605"/>
      <point x="355" y="585" type="curve" smooth="yes"/>
      <point x="355" y="417" type="line" smooth="yes"/>
      <point x="355" y="412"/>
      <point x="353" y="408"/>
      <point x="348" y="408" type="curve" smooth="yes"/>
      <point x="343" y="408"/>
      <point x="305" y="423"/>
      <point x="240" y="423" type="curve" smooth="yes"/>
    </contour>
  </outline>
</glyph>
<glyph name="f" format="1">
  <advance width="292"/>
  <unicode hex="0066"/>
  <outline>
    <contour>
      <point x="36" y="-6"/>
      <point x="75" y="0"/>
      <point x="124" y="0" type="curve" smooth="yes"/>
      <point x="172" y="0"/>
      <point x="211" y="-6"/>
      <point x="214" y="-6" type="curve" smooth="yes"/>
      <point x="226" y="-6"/>
      <point x="230" y="4"/>
      <point x="230" y="16" type="curve" smooth="yes"/>
      <point x="230" y="39"/>
      <point x="219" y="33"/>
      <point x="173" y="37" type="curve" smooth="yes"/>
      <point x="154" y="38"/>
      <point x="153" y="51"/>
      <point x="153" y="61" type="curve" smooth="yes"/>
      <point x="153" y="64" type="line"/>
      <point x="153" y="351" type="line" smooth="yes"/>
      <point x="153" y="358"/>
      <point x="156" y="359"/>
      <point x="162" y="359" type="curve" smooth="yes"/>
      <point x="256" y="359" type="line" smooth="yes"/>
      <point x="280" y="359"/>
      <point x="282" y="381"/>
      <point x="282" y="390" type="curve" smooth="yes"/>
      <point x="282" y="391" type="line" smooth="yes"/>
      <point x="282" y="407"/>
      <point x="272" y="411"/>
      <point x="260" y="411" type="curve" smooth="yes"/>
      <point x="162" y="411" type="line" smooth="yes"/>
      <point x="153" y="411"/>
      <point x="152" y="414"/>
      <point x="152" y="427" type="curve" smooth="yes"/>
      <point x="152" y="436" type="line" smooth="yes"/>
      <point x="152" y="553"/>
      <point x="184" y="653"/>
      <point x="255" y="653" type="curve" smooth="yes"/>
      <point x="286" y="653"/>
      <point x="310" y="629"/>
      <point x="338" y="629" type="curve" smooth="yes"/>
      <point x="365" y="629"/>
      <point x="380" y="649"/>
      <point x="380" y="668" type="curve" smooth="yes"/>
      <point x="380" y="689"/>
      <point x="362" y="720"/>
      <point x="308" y="720" type="curve" smooth="yes"/>
      <point x="247" y="720"/>
      <point x="165" y="679"/>
      <point x="125" y="611" type="curve" smooth="yes"/>
      <point x="88" y="546"/>
      <point x="83" y="458"/>
      <point x="82" y="419" type="curve" smooth="yes"/>
      <point x="82" y="418" type="line" smooth="yes"/>
      <point x="82" y="406"/>
      <point x="81" y="410"/>
      <point x="31" y="408" type="curve"/>
      <point x="18" y="408"/>
      <point x="10" y="401"/>
      <point x="10" y="378" type="curve" smooth="yes"/>
      <point x="10" y="360"/>
      <point x="25" y="360"/>
      <point x="31" y="360" type="curve" smooth="yes"/>
      <point x="79" y="359"/>
      <point x="84" y="362"/>
      <point x="84" y="350" type="curve" smooth="yes"/>
      <point x="84" y="156"/>
      <point x="82" y="88"/>
      <point x="80" y="63" type="curve" smooth="yes"/>
      <point x="79" y="51"/>
      <point x="80" y="41"/>
      <point x="65" y="39" type="curve" smooth="yes"/>
      <point x="28" y="33"/>
      <point x="18" y="35"/>
      <point x="18" y="19" type="curve" smooth="yes"/>
      <point x="18" y="8"/>
      <point x="20" y="-6"/>
      <point x="33" y="-6" type="curve" smooth="yes"/>
    </contour>
  </outline>
</glyph>
<glyph name="i" format="1">
  <advance width="243"/>
  <unicode hex="0069"/>
  <outline>
    <contour>
      <point x="104" y="591"/>
      <point x="125" y="571"/>
      <point x="151" y="571" type="curve" smooth="yes"/>
      <point x="177" y="571"/>
      <point x="200" y="592"/>
      <point x="200" y="619" type="curve" smooth="yes"/>
      <point x="200" y="644"/>
      <point x="178" y="665"/>
      <point x="152" y="665" type="curve" smooth="yes"/>
      <point x="126" y="665"/>
      <point x="104" y="644"/>
      <point x="104" y="618" type="curve" smooth="yes"/>
    </contour>
    <contour>
      <point x="94" y="74" type="line" smooth="yes"/>
      <point x="94" y="56"/>
      <point x="92" y="42"/>
      <point x="67" y="38" type="curve" smooth="yes"/>
      <point x="22" y="32"/>
      <point x="18" y="34"/>
      <point x="18" y="11" type="curve" smooth="yes"/>
      <point x="18" y="1"/>
      <point x="23" y="-6"/>
      <point x="33" y="-6" type="curve" smooth="yes"/>
      <point x="36" y="-6"/>
      <point x="75" y="0"/>
      <point x="125" y="0" type="curve" smooth="yes"/>
      <point x="174" y="0"/>
      <point x="214" y="-6"/>
      <point x="217" y="-6" type="curve" smooth="yes"/>
      <point x="228" y="-6"/>
      <point x="229" y="8"/>
      <point x="229" y="16" type="curve" smooth="yes"/>
      <point x="229" y="33"/>
      <point x="217" y="32"/>
      <point x="184" y="37" type="curve" smooth="yes"/>
      <point x="162" y="40"/>
      <point x="161" y="43"/>
      <point x="161" y="165" type="curve" smooth="yes"/>
      <point x="161" y="198" type="line" smooth="yes"/>
      <point x="161" y="320"/>
      <point x="167" y="417"/>
      <point x="167" y="425" type="curve" smooth="yes"/>
      <point x="167" y="437"/>
      <point x="159" y="441"/>
      <point x="153" y="441" type="curve" smooth="yes"/>
      <point x="152" y="441" type="line" smooth="yes"/>
      <point x="147" y="441"/>
      <point x="146" y="439"/>
      <point x="42" y="389" type="curve" smooth="yes"/>
      <point x="31" y="384"/>
      <point x="15" y="380"/>
      <point x="15" y="368" type="curve" smooth="yes"/>
      <point x="15" y="360"/>
      <point x="22" y="357"/>
      <point x="27" y="355" type="curve" smooth="yes"/>
      <point x="91" y="329"/>
      <point x="95" y="330"/>
      <point x="95" y="314" type="curve" smooth="yes"/>
      <point x="95" y="295"/>
      <point x="94" y="237"/>
      <point x="94" y="121" type="curve" smooth="yes"/>
    </contour>
  </outline>
</glyph>
<glyph name="m" format="1">
  <advance width="723"/>
  <unicode hex="006D"/>
  <outline>
    <contour>
      <point x="139" y="378"/>
      <point x="138" y="381"/>
      <point x="138" y="384" type="curve" smooth="yes"/>
      <point x="138" y="422" type="line" smooth="yes"/>
      <point x="138" y="427"/>
      <point x="137" y="434"/>
      <point x="129" y="434" type="curve" smooth="yes"/>
      <point x="123" y="434"/>
      <point x="121" y="431"/>
      <point x="110" y="425" type="curve"/>
      <point x="29" y="373"/>
      <point x="29" y="376"/>
      <point x="29" y="367" type="curve" smooth="yes"/>
      <point x="29" y="361"/>
      <point x="35" y="357"/>
      <point x="38" y="355" type="curve"/>
      <point x="75" y="327"/>
      <point x="78" y="328"/>
      <point x="78" y="308" type="curve" smooth="yes"/>
      <point x="78" y="60" type="line"/>
      <point x="74" y="20"/>
      <point x="22" y="47"/>
      <point x="22" y="16" type="curve" smooth="yes"/>
      <point x="22" y="6"/>
      <point x="24" y="-4"/>
      <point x="36" y="-4" type="curve" smooth="yes"/>
      <point x="43" y="-4"/>
      <point x="65" y="0"/>
      <point x="109" y="0" type="curve" smooth="yes"/>
      <point x="155" y="0"/>
      <point x="191" y="-6"/>
      <point x="194" y="-6" type="curve" smooth="yes"/>
      <point x="203" y="-6"/>
      <point x="207" y="1"/>
      <point x="207" y="10" type="curve" smooth="yes"/>
      <point x="207" y="20"/>
      <point x="207" y="29"/>
      <point x="193" y="31" type="curve" smooth="yes"/>
      <point x="149" y="38"/>
      <point x="140" y="36"/>
      <point x="140" y="65" type="curve" smooth="yes"/>
      <point x="140" y="306" type="line" smooth="yes"/>
      <point x="140" y="321"/>
      <point x="142" y="327"/>
      <point x="144" y="332" type="curve"/>
      <point x="150" y="343"/>
      <point x="176" y="371"/>
      <point x="220" y="371" type="curve" smooth="yes"/>
      <point x="248" y="371"/>
      <point x="273" y="360"/>
      <point x="290" y="347" type="curve" smooth="yes"/>
      <point x="318" y="326"/>
      <point x="322" y="293"/>
      <point x="322" y="260" type="curve" smooth="yes"/>
      <point x="322" y="75" type="line" smooth="yes"/>
      <point x="322" y="51"/>
      <point x="318" y="41"/>
      <point x="296" y="37" type="curve" smooth="yes"/>
      <point x="254" y="30"/>
      <point x="242" y="32"/>
      <point x="242" y="16" type="curve" smooth="yes"/>
      <point x="242" y="3"/>
      <point x="244" y="-6"/>
      <point x="256" y="-6" type="curve" smooth="yes"/>
      <point x="258" y="-6"/>
      <point x="299" y="0"/>
      <point x="349" y="0" type="curve" smooth="yes"/>
      <point x="399" y="0"/>
      <point x="439" y="-6"/>
      <point x="442" y="-6" type="curve" smooth="yes"/>
      <point x="453" y="-6"/>
      <point x="455" y="6"/>
      <point x="455" y="15" type="curve" smooth="yes"/>
      <point x="455" y="26"/>
      <point x="449" y="32"/>
      <point x="436" y="34" type="curve" smooth="yes"/>
      <point x="395" y="39"/>
      <point x="387" y="37"/>
      <point x="387" y="56" type="curve" smooth="yes"/>
      <point x="387" y="57" type="line" smooth="yes"/>
      <point x="387" y="60"/>
      <point x="388" y="62"/>
      <point x="388" y="65" type="curve" smooth="yes"/>
      <point x="388" y="258" type="line" smooth="yes"/>
      <point x="388" y="301"/>
      <point x="382" y="324"/>
      <point x="382" y="325" type="curve" smooth="yes"/>
      <point x="382" y="340"/>
      <point x="429" y="371"/>
      <point x="473" y="371" type="curve" smooth="yes"/>
      <point x="504" y="371"/>
      <point x="525" y="357"/>
      <point x="535" y="349" type="curve"/>
      <point x="573" y="316"/>
      <point x="576" y="255"/>
      <point x="576" y="203" type="curve" smooth="yes"/>
      <point x="576" y="64" type="line" smooth="yes"/>
      <point x="576" y="50"/>
      <point x="576" y="40"/>
      <point x="556" y="37" type="curve"/>
      <point x="516" y="29"/>
      <point x="509" y="31"/>
      <point x="509" y="11" type="curve" smooth="yes"/>
      <point x="509" y="-2"/>
      <point x="519" y="-6"/>
      <point x="525" y="-6" type="curve" smooth="yes"/>
      <point x="533" y="-6"/>
      <point x="559" y="0"/>
      <point x="610" y="0" type="curve" smooth="yes"/>
      <point x="660" y="0"/>
      <point x="686" y="-6"/>
      <point x="694" y="-6" type="curve" smooth="yes"/>
      <point x="707" y="-6"/>
      <point x="709" y="5"/>
      <point x="709" y="14" type="curve" smooth="yes"/>
      <point x="709" y="21"/>
      <point x="708" y="30"/>
      <point x="695" y="32" type="curve"/>
      <point x="657" y="40"/>
      <point x="647" y="37"/>
      <point x="647" y="69" type="curve" smooth="yes"/>
      <point x="647" y="196" type="line" smooth="yes"/>
      <point x="647" y="236"/>
      <point x="647" y="275"/>
      <point x="636" y="313" type="curve" smooth="yes"/>
      <point x="613" y="395"/>
      <point x="552" y="422"/>
      <point x="501" y="422" type="curve" smooth="yes"/>
      <point x="482" y="422"/>
      <point x="447" y="418"/>
      <point x="404" y="393" type="curve" smooth="yes"/>
      <point x="366" y="371"/>
      <point x="370" y="366"/>
      <point x="362" y="366" type="curve" smooth="yes"/>
      <point x="360" y="366"/>
      <point x="359" y="366"/>
      <point x="358" y="367" type="curve"/>
      <point x="356" y="368"/>
      <point x="315" y="422"/>
      <point x="250" y="422" type="curve" smooth="yes"/>
      <point x="190" y="422"/>
      <point x="147" y="378"/>
      <point x="142" y="378" type="curve" smooth="yes"/>
    </contour>
  </outline>
</glyph>
<glyph name="n" format="1">
  <advance width="499"/>
  <unicode hex="006E"/>
  <outline>
    <contour>
      <point x="141" y="378"/>
      <point x="142" y="381"/>
      <point x="142" y="383" type="curve" smooth="yes"/>
      <point x="142" y="422" type="line" smooth="yes"/>
      <point x="142" y="430"/>
      <point x="139" y="437"/>
      <point x="130" y="437" type="curve" smooth="yes"/>
      <point x="126" y="437"/>
      <point x="123" y="435"/>
      <point x="120" y="433" type="curve"/>
      <point x="27" y="383"/>
      <point x="25" y="384"/>
      <point x="25" y="376" type="curve" smooth="yes"/>
      <point x="25" y="375" type="line" smooth="yes"/>
      <point x="25" y="371"/>
      <point x="28" y="368"/>
      <point x="31" y="365" type="curve"/>
      <point x="76" y="331"/>
      <point x="76" y="333"/>
      <point x="76" y="309" type="curve" smooth="yes"/>
      <point x="76" y="70" type="line" smooth="yes"/>
      <point x="76" y="53"/>
      <point x="75" y="40"/>
      <point x="50" y="36" type="curve" smooth="yes"/>
      <point x="19" y="31"/>
      <point x="11" y="32"/>
      <point x="11" y="12" type="curve" smooth="yes"/>
      <point x="11" y="-2"/>
      <point x="21" y="-6"/>
      <point x="27" y="-6" type="curve" smooth="yes"/>
      <point x="30" y="-6"/>
      <point x="67" y="0"/>
      <point x="115" y="0" type="curve" smooth="yes"/>
      <point x="164" y="0"/>
      <point x="205" y="-7"/>
      <point x="208" y="-7" type="curve" smooth="yes"/>
      <point x="217" y="-7"/>
      <point x="221" y="1"/>
      <point x="221" y="11" type="curve" smooth="yes"/>
      <point x="221" y="33"/>
      <point x="209" y="31"/>
      <point x="167" y="38" type="curve" smooth="yes"/>
      <point x="146" y="41"/>
      <point x="145" y="55"/>
      <point x="145" y="66" type="curve" smooth="yes"/>
      <point x="145" y="69" type="line"/>
      <point x="145" y="306" type="line" smooth="yes"/>
      <point x="145" y="310"/>
      <point x="145" y="315"/>
      <point x="146" y="319" type="curve" smooth="yes"/>
      <point x="150" y="337"/>
      <point x="191" y="384"/>
      <point x="249" y="384" type="curve" smooth="yes"/>
      <point x="272" y="384"/>
      <point x="327" y="375"/>
      <point x="349" y="324" type="curve" smooth="yes"/>
      <point x="361" y="294"/>
      <point x="362" y="234"/>
      <point x="362" y="216" type="curve" smooth="yes"/>
      <point x="362" y="61" type="line" smooth="yes"/>
      <point x="362" y="44"/>
      <point x="359" y="39"/>
      <point x="346" y="37" type="curve" smooth="yes"/>
      <point x="306" y="30"/>
      <point x="294" y="32"/>
      <point x="294" y="14" type="curve" smooth="yes"/>
      <point x="294" y="4"/>
      <point x="296" y="-6"/>
      <point x="308" y="-6" type="curve" smooth="yes"/>
      <point x="310" y="-6"/>
      <point x="346" y="0"/>
      <point x="390" y="0" type="curve" smooth="yes"/>
      <point x="440" y="0"/>
      <point x="465" y="-6"/>
      <point x="474" y="-6" type="curve" smooth="yes"/>
      <point x="480" y="-6"/>
      <point x="489" y="-3"/>
      <point x="489" y="14" type="curve" smooth="yes"/>
      <point x="489" y="21"/>
      <point x="488" y="30"/>
      <point x="475" y="32" type="curve" smooth="yes"/>
      <point x="440" y="37"/>
      <point x="427" y="35"/>
      <point x="427" y="63" type="curve" smooth="yes"/>
      <point x="427" y="65" type="line" smooth="yes"/>
      <point x="427" y="203"/>
      <point x="428" y="221"/>
      <point x="428" y="238" type="curve" smooth="yes"/>
      <point x="428" y="255"/>
      <point x="428" y="272"/>
      <point x="426" y="289" type="curve"/>
      <point x="416" y="413"/>
      <point x="329" y="433"/>
      <point x="284" y="433" type="curve" smooth="yes"/>
      <point x="282" y="433" type="line" smooth="yes"/>
      <point x="196" y="432"/>
      <point x="149" y="373"/>
      <point x="145" y="373" type="curve" smooth="yes"/>
      <point x="144" y="373" type="line" smooth="yes"/>
      <point x="143" y="373"/>
      <point x="141" y="374"/>
      <point x="141" y="377" type="curve" smooth="yes"/>
    </contour>
  </outline>
</glyph>
<glyph name="o" format="1">
  <advance width="467"/>
  <unicode hex="006F"/>
  <outline>
    <contour>
      <point x="21" y="81"/>
      <point x="106" y="-19"/>
      <point x="233" y="-19" type="curve" smooth="yes"/>
      <point x="345" y="-19"/>
      <point x="446" y="61"/>
      <point x="446" y="204" type="curve" smooth="yes"/>
      <point x="446" y="338"/>
      <point x="356" y="432"/>
      <point x="237" y="432" type="curve" smooth="yes"/>
      <point x="125" y="432"/>
      <point x="21" y="343"/>
      <point x="21" y="204" type="curve" smooth="yes"/>
    </contour>
    <contour>
      <point x="154" y="30"/>
      <point x="99" y="105"/>
      <point x="99" y="209" type="curve" smooth="yes"/>
      <point x="99" y="343"/>
      <point x="178" y="385"/>
      <point x="230" y="385" type="curve" smooth="yes"/>
      <point x="306" y="385"/>
      <point x="378" y="307"/>
      <point x="378" y="200" type="curve" smooth="yes"/>
      <point x="378" y="111"/>
      <point x="321" y="30"/>
      <point x="236" y="30" type="curve" smooth="yes"/>
    </contour>
  </outline>
</glyph>
<glyph name="p" format="1">
  <advance width="494"/>
  <unicode hex="0070"/>
  <outline>
    <contour>
      <point x="227" y="27"/>
      <point x="204" y="33"/>
      <point x="184" y="43" type="curve" smooth="yes"/>
      <point x="158" y="55"/>
      <point x="158" y="65"/>
      <point x="158" y="74" type="curve" smooth="yes"/>
      <point x="158" y="289" type="line" smooth="yes"/>
      <point x="158" y="318"/>
      <point x="165" y="335"/>
      <point x="187" y="351" type="curve" smooth="yes"/>
      <point x="213" y="371"/>
      <point x="240" y="372"/>
      <point x="253" y="372" type="curve" smooth="yes"/>
      <point x="333" y="372"/>
      <point x="408" y="292"/>
      <point x="408" y="195" type="curve" smooth="yes"/>
      <point x="408" y="95"/>
      <point x="331" y="27"/>
      <point x="250" y="27" type="curve" smooth="yes"/>
    </contour>
    <contour>
      <point x="278" y="431"/>
      <point x="271" y="431"/>
      <point x="263" y="430" type="curve" smooth="yes"/>
      <point x="185" y="419"/>
      <point x="153" y="365"/>
      <point x="148" y="365" type="curve" smooth="yes"/>
      <point x="146" y="365"/>
      <point x="145" y="368"/>
      <point x="145" y="371" type="curve" smooth="yes"/>
      <point x="145" y="430" type="line" smooth="yes"/>
      <point x="145" y="436"/>
      <point x="143" y="441"/>
      <point x="137" y="441" type="curve" smooth="yes"/>
      <point x="132" y="441"/>
      <point x="130" y="438"/>
      <point x="120" y="433" type="curve"/>
      <point x="15" y="371"/>
      <point x="13" y="372"/>
      <point x="13" y="366" type="curve" smooth="yes"/>
      <point x="13" y="365" type="line" smooth="yes"/>
      <point x="13" y="358"/>
      <point x="15" y="359"/>
      <point x="80" y="330" type="curve" smooth="yes"/>
      <point x="92" y="325"/>
      <point x="93" y="315"/>
      <point x="93" y="310" type="curve" smooth="yes"/>
      <point x="93" y="308" type="line"/>
      <point x="93" y="-154" type="line" smooth="yes"/>
      <point x="93" y="-171"/>
      <point x="87" y="-179"/>
      <point x="71" y="-182" type="curve" smooth="yes"/>
      <point x="25" y="-192"/>
      <point x="13" y="-190"/>
      <point x="13" y="-208" type="curve" smooth="yes"/>
      <point x="13" y="-225"/>
      <point x="23" y="-228"/>
      <point x="29" y="-228" type="curve" smooth="yes"/>
      <point x="34" y="-228"/>
      <point x="89" y="-220"/>
      <point x="162" y="-220" type="curve" smooth="yes"/>
      <point x="218" y="-220"/>
      <point x="247" y="-224"/>
      <point x="256" y="-224" type="curve" smooth="yes"/>
      <point x="265" y="-224"/>
      <point x="268" y="-217"/>
      <point x="268" y="-209" type="curve" smooth="yes"/>
      <point x="268" y="-178"/>
      <point x="248" y="-184"/>
      <point x="188" y="-178" type="curve" smooth="yes"/>
      <point x="167" y="-176"/>
      <point x="166" y="-162"/>
      <point x="166" y="-152" type="curve" smooth="yes"/>
      <point x="166" y="-149" type="line"/>
      <point x="166" y="-12" type="line" smooth="yes"/>
      <point x="166" y="-5"/>
      <point x="167" y="-1"/>
      <point x="173" y="-1" type="curve" smooth="yes"/>
      <point x="175" y="-1"/>
      <point x="203" y="-7"/>
      <point x="237" y="-7" type="curve" smooth="yes"/>
      <point x="376" y="-7"/>
      <point x="475" y="82"/>
      <point x="475" y="215" type="curve" smooth="yes"/>
      <point x="475" y="331"/>
      <point x="397" y="431"/>
      <point x="286" y="431" type="curve" smooth="yes"/>
    </contour>
  </outline>
</glyph>
<glyph name="q" format="1">
  <advance width="525"/>
  <unicode hex="0071"/>
  <outline>
    <contour>
      <point x="294" y="401"/>
      <point x="329" y="391"/>
      <point x="358" y="372" type="curve"/>
      <point x="369" y="364"/>
      <point x="372" y="358"/>
      <point x="372" y="343" type="curve" smooth="yes"/>
      <point x="375" y="155"/>
      <point x="375" y="131"/>
      <point x="375" y="108" type="curve" smooth="yes"/>
      <point x="375" y="96"/>
      <point x="374" y="86"/>
      <point x="366" y="78" type="curve"/>
      <point x="353" y="66"/>
      <point x="310" y="52"/>
      <point x="273" y="52" type="curve" smooth="yes"/>
      <point x="174" y="52"/>
      <point x="88" y="131"/>
      <point x="88" y="233" type="curve" smooth="yes"/>
      <point x="88" y="327"/>
      <point x="165" y="401"/>
      <point x="259" y="401" type="curve" smooth="yes"/>
    </contour>
    <contour>
      <point x="16" y="90"/>
      <point x="118" y="-9"/>
      <point x="239" y="-9" type="curve" smooth="yes"/>
      <point x="319" y="-9"/>
      <point x="359" y="29"/>
      <point x="368" y="29" type="curve" smooth="yes"/>
      <point x="372" y="29"/>
      <point x="374" y="26"/>
      <point x="374" y="22" type="curve" smooth="yes"/>
      <point x="374" y="-150" type="line" smooth="yes"/>
      <point x="374" y="-166"/>
      <point x="373" y="-184"/>
      <point x="345" y="-190" type="curve" smooth="yes"/>
      <point x="308" y="-197"/>
      <point x="290" y="-197"/>
      <point x="290" y="-217" type="curve" smooth="yes"/>
      <point x="290" y="-228"/>
      <point x="297" y="-235"/>
      <point x="308" y="-235" type="curve" smooth="yes"/>
      <point x="312" y="-235"/>
      <point x="367" y="-223"/>
      <point x="443" y="-223" type="curve" smooth="yes"/>
      <point x="476" y="-223"/>
      <point x="492" y="-225"/>
      <point x="498" y="-225" type="curve" smooth="yes"/>
      <point x="512" y="-225"/>
      <point x="516" y="-212"/>
      <point x="516" y="-203" type="curve" smooth="yes"/>
      <point x="516" y="-195"/>
      <point x="511" y="-191"/>
      <point x="502" y="-189" type="curve"/>
      <point x="463" y="-184"/>
      <point x="447" y="-183"/>
      <point x="447" y="-139" type="curve" smooth="yes"/>
      <point x="447" y="364" type="line" smooth="yes"/>
      <point x="447" y="373"/>
      <point x="446" y="382"/>
      <point x="446" y="391" type="curve" smooth="yes"/>
      <point x="446" y="434"/>
      <point x="444" y="446"/>
      <point x="435" y="446" type="curve" smooth="yes"/>
      <point x="424" y="446"/>
      <point x="426" y="421"/>
      <point x="397" y="421" type="curve" smooth="yes"/>
      <point x="383" y="421"/>
      <point x="345" y="434"/>
      <point x="283" y="434" type="curve" smooth="yes"/>
      <point x="86" y="434"/>
      <point x="16" y="308"/>
      <point x="16" y="213" type="curve" smooth="yes"/>
    </contour>
  </outline>
</glyph>
<glyph name="r" format="1">
  <advance width="358"/>
  <unicode hex="0072"/>
  <outline>
    <contour>
      <point x="143" y="377"/>
      <point x="142" y="379"/>
      <point x="142" y="382" type="curve" smooth="yes"/>
      <point x="142" y="422" type="line" smooth="yes"/>
      <point x="142" y="431"/>
      <point x="141" y="442"/>
      <point x="130" y="442" type="curve" smooth="yes"/>
      <point x="127" y="442"/>
      <point x="124" y="440"/>
      <point x="121" y="439" type="curve"/>
      <point x="17" y="388"/>
      <point x="16" y="390"/>
      <point x="16" y="385" type="curve"/>
      <point x="17" y="381"/>
      <point x="19" y="379"/>
      <point x="20" y="378" type="curve"/>
      <point x="67" y="344"/>
      <point x="75" y="345"/>
      <point x="75" y="325" type="curve" smooth="yes"/>
      <point x="75" y="60" type="line" smooth="yes"/>
      <point x="75" y="45"/>
      <point x="71" y="39"/>
      <point x="57" y="36" type="curve"/>
      <point x="30" y="29"/>
      <point x="12" y="35"/>
      <point x="12" y="11" type="curve" smooth="yes"/>
      <point x="12" y="1"/>
      <point x="18" y="-6"/>
      <point x="28" y="-6" type="curve" smooth="yes"/>
      <point x="31" y="-6"/>
      <point x="74" y="0"/>
      <point x="130" y="0" type="curve" smooth="yes"/>
      <point x="184" y="0"/>
      <point x="228" y="-6"/>
      <point x="231" y="-6" type="curve" smooth="yes"/>
      <point x="244" y="-6"/>
      <point x="245" y="6"/>
      <point x="245" y="14" type="curve" smooth="yes"/>
      <point x="245" y="37"/>
      <point x="232" y="33"/>
      <point x="172" y="38" type="curve" smooth="yes"/>
      <point x="148" y="40"/>
      <point x="147" y="57"/>
      <point x="147" y="68" type="curve" smooth="yes"/>
      <point x="147" y="72" type="line"/>
      <point x="147" y="312" type="line" smooth="yes"/>
      <point x="147" y="319"/>
      <point x="147" y="324"/>
      <point x="151" y="330" type="curve" smooth="yes"/>
      <point x="157" y="339"/>
      <point x="197" y="371"/>
      <point x="229" y="371" type="curve" smooth="yes"/>
      <point x="262" y="371"/>
      <point x="263" y="346"/>
      <point x="288" y="346" type="curve" smooth="yes"/>
      <point x="305" y="346"/>
      <point x="318" y="359"/>
      <point x="329" y="366" type="curve"/>
      <point x="337" y="373"/>
      <point x="355" y="384"/>
      <point x="356" y="401" type="curve"/>
      <point x="356" y="402" type="line" smooth="yes"/>
      <point x="356" y="430"/>
      <point x="310" y="446"/>
      <point x="278" y="446" type="curve" smooth="yes"/>
      <point x="267" y="446"/>
      <point x="258" y="445"/>
      <point x="249" y="442" type="curve" smooth="yes"/>
      <point x="222" y="432"/>
      <point x="149" y="377"/>
      <point x="145" y="377" type="curve" smooth="yes"/>
    </contour>
  </outline>
</glyph>
<glyph name="t" format="1">
  <advance width="333"/>
  <unicode hex="0074"/>
  <outline>
    <contour>
      <point x="72" y="365" type="line" smooth="yes"/>
      <point x="78" y="365"/>
      <point x="79" y="361"/>
      <point x="79" y="356" type="curve" smooth="yes"/>
      <point x="79" y="334"/>
      <point x="75" y="179"/>
      <point x="75" y="135" type="curve" smooth="yes"/>
      <point x="75" y="124"/>
      <point x="75" y="114"/>
      <point x="76" y="103" type="curve" smooth="yes"/>
      <point x="83" y="9"/>
      <point x="137" y="-19"/>
      <point x="177" y="-19" type="curve" smooth="yes"/>
      <point x="232" y="-19"/>
      <point x="281" y="31"/>
      <point x="316" y="71" type="curve"/>
      <point x="318" y="74"/>
      <point x="323" y="80"/>
      <point x="323" y="88" type="curve" smooth="yes"/>
      <point x="323" y="97"/>
      <point x="316" y="106"/>
      <point x="305" y="106" type="curve" smooth="yes"/>
      <point x="283" y="106"/>
      <point x="244" y="46"/>
      <point x="196" y="46" type="curve" smooth="yes"/>
      <point x="154" y="46"/>
      <point x="145" y="85"/>
      <point x="145" y="120" type="curve" smooth="yes"/>
      <point x="145" y="144"/>
      <point x="145" y="167"/>
      <point x="146" y="354" type="curve" smooth="yes"/>
      <point x="146" y="361"/>
      <point x="149" y="363"/>
      <point x="156" y="363" type="curve" smooth="yes"/>
      <point x="273" y="363" type="line" smooth="yes"/>
      <point x="282" y="363"/>
      <point x="287" y="364"/>
      <point x="291" y="368" type="curve"/>
      <point x="296" y="374"/>
      <point x="300" y="391"/>
      <point x="300" y="397" type="curve" smooth="yes"/>
      <point x="300" y="416"/>
      <point x="283" y="416"/>
      <point x="274" y="416" type="curve" smooth="yes"/>
      <point x="271" y="416"/>
      <point x="269" y="417"/>
      <point x="266" y="417" type="curve" smooth="yes"/>
      <point x="176" y="417" type="line" smooth="yes"/>
      <point x="164" y="417"/>
      <point x="156" y="420"/>
      <point x="156" y="437" type="curve" smooth="yes"/>
      <point x="156" y="451"/>
      <point x="157" y="493"/>
      <point x="157" y="507" type="curve" smooth="yes"/>
      <point x="157" y="520"/>
      <point x="150" y="523"/>
      <point x="144" y="523" type="curve" smooth="yes"/>
      <point x="133" y="523"/>
      <point x="127" y="510"/>
      <point x="124" y="505" type="curve" smooth="yes"/>
      <point x="70" y="413"/>
      <point x="20" y="395"/>
      <point x="20" y="378" type="curve" smooth="yes"/>
      <point x="20" y="366"/>
      <point x="31" y="365"/>
      <point x="40" y="365" type="curve" smooth="yes"/>
    </contour>
  </outline>
</glyph>
<glyph name="v" format="1">
  <advance width="490"/>
  <unicode hex="0076"/>
  <outline>
    <contour>
      <point x="298" y="396" type="line" smooth="yes"/>
      <point x="298" y="380"/>
      <point x="308" y="380"/>
      <point x="313" y="379" type="curve"/>
      <point x="351" y="376"/>
      <point x="372" y="378"/>
      <point x="372" y="359" type="curve" smooth="yes"/>
      <point x="372" y="343"/>
      <point x="352" y="217"/>
      <point x="276" y="84" type="curve"/>
      <point x="276" y="83"/>
      <point x="274" y="79"/>
      <point x="271" y="79" type="curve" smooth="yes"/>
      <point x="266" y="79"/>
      <point x="263" y="86"/>
      <point x="262" y="87" type="curve"/>
      <point x="191" y="209"/>
      <point x="143" y="343"/>
      <point x="143" y="356" type="curve" smooth="yes"/>
      <point x="143" y="366"/>
      <point x="151" y="373"/>
      <point x="163" y="374" type="curve"/>
      <point x="197" y="380"/>
      <point x="219" y="370"/>
      <point x="219" y="395" type="curve" smooth="yes"/>
      <point x="219" y="406"/>
      <point x="217" y="415"/>
      <point x="205" y="415" type="curve" smooth="yes"/>
      <point x="195" y="415"/>
      <point x="167" y="412"/>
      <point x="109" y="412" type="curve" smooth="yes"/>
      <point x="52" y="412"/>
      <point x="24" y="415"/>
      <point x="14" y="415" type="curve" smooth="yes"/>
      <point x="6" y="415"/>
      <point x="2" y="410"/>
      <point x="2" y="402" type="curve" smooth="yes"/>
      <point x="2" y="363"/>
      <point x="29" y="388"/>
      <point x="49" y="363" type="curve" smooth="yes"/>
      <point x="63" y="345"/>
      <point x="99" y="233"/>
      <point x="227" y="6" type="curve" smooth="yes"/>
      <point x="236" y="-11"/>
      <point x="245" y="-25"/>
      <point x="260" y="-25" type="curve" smooth="yes"/>
      <point x="268" y="-25"/>
      <point x="275" y="-21"/>
      <point x="279" y="-16" type="curve"/>
      <point x="291" y="-3"/>
      <point x="372" y="157"/>
      <point x="424" y="346" type="curve" smooth="yes"/>
      <point x="427" y="358"/>
      <point x="427" y="360"/>
      <point x="430" y="366" type="curve"/>
      <point x="443" y="388"/>
      <point x="485" y="363"/>
      <point x="485" y="396" type="curve" smooth="yes"/>
      <point x="485" y="406"/>
      <point x="482" y="415"/>
      <point x="470" y="415" type="curve" smooth="yes"/>
      <point x="462" y="415"/>
      <point x="438" y="412"/>
      <point x="390" y="412" type="curve" smooth="yes"/>
      <point x="342" y="412"/>
      <point x="318" y="415"/>
      <point x="310" y="415" type="curve" smooth="yes"/>
      <point x="301" y="415"/>
      <point x="298" y="408"/>
      <point x="298" y="401" type="curve" smooth="yes"/>
    </contour>
  </outline>
</glyph>
<glyph name="w" format="1">
  <advance width="752"/>
  <unicode hex="0077"/>
  <outline>
    <contour>
      <point x="727" y="415"/>
      <point x="703" y="411"/>
      <point x="655" y="411" type="curve" smooth="yes"/>
      <point x="608" y="411"/>
      <point x="584" y="415"/>
      <point x="577" y="415" type="curve" smooth="yes"/>
      <point x="566" y="415"/>
      <point x="565" y="406"/>
      <point x="565" y="398" type="curve" smooth="yes"/>
      <point x="565" y="382"/>
      <point x="573" y="379"/>
      <point x="583" y="378" type="curve" smooth="yes"/>
      <point x="626" y="375"/>
      <point x="644" y="378"/>
      <point x="644" y="354" type="curve" smooth="yes"/>
      <point x="644" y="343"/>
      <point x="619" y="221"/>
      <point x="547" y="94" type="curve"/>
      <point x="546" y="91"/>
      <point x="543" y="85"/>
      <point x="535" y="85" type="curve" smooth="yes"/>
      <point x="529" y="85"/>
      <point x="524" y="90"/>
      <point x="519" y="99" type="curve"/>
      <point x="454" y="202"/>
      <point x="394" y="336"/>
      <point x="394" y="355" type="curve" smooth="yes"/>
      <point x="394" y="371"/>
      <point x="407" y="375"/>
      <point x="417" y="376" type="curve" smooth="yes"/>
      <point x="473" y="381"/>
      <point x="475" y="378"/>
      <point x="475" y="394" type="curve" smooth="yes"/>
      <point x="475" y="400" type="line" smooth="yes"/>
      <point x="475" y="407"/>
      <point x="472" y="415"/>
      <point x="461" y="415" type="curve" smooth="yes"/>
      <point x="451" y="415"/>
      <point x="420" y="412"/>
      <point x="358" y="412" type="curve" smooth="yes"/>
      <point x="296" y="412"/>
      <point x="265" y="415"/>
      <point x="255" y="415" type="curve" smooth="yes"/>
      <point x="242" y="415"/>
      <point x="239" y="406"/>
      <point x="239" y="392" type="curve" smooth="yes"/>
      <point x="239" y="360"/>
      <point x="289" y="391"/>
      <point x="314" y="352" type="curve" smooth="yes"/>
      <point x="318" y="346"/>
      <point x="352" y="276"/>
      <point x="352" y="268" type="curve" smooth="yes"/>
      <point x="352" y="267" type="line"/>
      <point x="351" y="252"/>
      <point x="300" y="152"/>
      <point x="261" y="92" type="curve"/>
      <point x="261" y="91"/>
      <point x="257" y="84"/>
      <point x="251" y="84" type="curve" smooth="yes"/>
      <point x="245" y="84"/>
      <point x="242" y="90"/>
      <point x="241" y="92" type="curve" smooth="yes"/>
      <point x="200" y="172"/>
      <point x="162" y="256"/>
      <point x="129" y="343" type="curve"/>
      <point x="126" y="349"/>
      <point x="123" y="357"/>
      <point x="123" y="362" type="curve" smooth="yes"/>
      <point x="123" y="392"/>
      <point x="185" y="361"/>
      <point x="185" y="398" type="curve" smooth="yes"/>
      <point x="185" y="410"/>
      <point x="180" y="415"/>
      <point x="173" y="415" type="curve" smooth="yes"/>
      <point x="166" y="415"/>
      <point x="144" y="412"/>
      <point x="101" y="412" type="curve" smooth="yes"/>
      <point x="98" y="412" type="line" smooth="yes"/>
      <point x="54" y="412"/>
      <point x="31" y="415"/>
      <point x="24" y="415" type="curve" smooth="yes"/>
      <point x="9" y="415"/>
      <point x="6" y="407"/>
      <point x="6" y="398" type="curve" smooth="yes"/>
      <point x="6" y="365"/>
      <point x="34" y="390"/>
      <point x="50" y="362" type="curve" smooth="yes"/>
      <point x="57" y="350"/>
      <point x="108" y="204"/>
      <point x="215" y="1" type="curve" smooth="yes"/>
      <point x="224" y="-16"/>
      <point x="232" y="-25"/>
      <point x="244" y="-25" type="curve" smooth="yes"/>
      <point x="252" y="-25"/>
      <point x="258" y="-21"/>
      <point x="262" y="-16" type="curve"/>
      <point x="270" y="-7"/>
      <point x="270" y="-4"/>
      <point x="337" y="131" type="curve" smooth="yes"/>
      <point x="374" y="210"/>
      <point x="374" y="210"/>
      <point x="377" y="210" type="curve" smooth="yes"/>
      <point x="381" y="210"/>
      <point x="380" y="209"/>
      <point x="443" y="87" type="curve" smooth="yes"/>
      <point x="490" y="0"/>
      <point x="501" y="-25"/>
      <point x="520" y="-25" type="curve" smooth="yes"/>
      <point x="531" y="-25"/>
      <point x="538" y="-19"/>
      <point x="548" y="0" type="curve" smooth="yes"/>
      <point x="709" y="300"/>
      <point x="676" y="367"/>
      <point x="719" y="376" type="curve"/>
      <point x="728" y="377"/>
      <point x="750" y="372"/>
      <point x="750" y="398" type="curve" smooth="yes"/>
      <point x="750" y="408"/>
      <point x="745" y="415"/>
      <point x="735" y="415" type="curve" smooth="yes"/>
    </contour>
  </outline>
</glyph>
<glyph name="x" format="1">
  <advance width="443"/>
  <unicode hex="0078"/>
  <outline>
    <contour>
      <point x="19" y="415"/>
      <point x="11" y="413"/>
      <point x="11" y="398" type="curve" smooth="yes"/>
      <point x="11" y="385"/>
      <point x="13" y="378"/>
      <point x="29" y="376" type="curve" smooth="yes"/>
      <point x="56" y="372"/>
      <point x="41" y="385"/>
      <point x="177" y="216" type="curve"/>
      <point x="179" y="214"/>
      <point x="181" y="212"/>
      <point x="181" y="209" type="curve" smooth="yes"/>
      <point x="181" y="203"/>
      <point x="181" y="206"/>
      <point x="64" y="53" type="curve" smooth="yes"/>
      <point x="61" y="49"/>
      <point x="59" y="45"/>
      <point x="55" y="42" type="curve" smooth="yes"/>
      <point x="40" y="30"/>
      <point x="9" y="42"/>
      <point x="9" y="16" type="curve" smooth="yes"/>
      <point x="9" y="6"/>
      <point x="9" y="-5"/>
      <point x="19" y="-5" type="curve" smooth="yes"/>
      <point x="26" y="-5"/>
      <point x="48" y="0"/>
      <point x="91" y="0" type="curve" smooth="yes"/>
      <point x="135" y="0"/>
      <point x="156" y="-4"/>
      <point x="163" y="-4" type="curve" smooth="yes"/>
      <point x="174" y="-4"/>
      <point x="176" y="4"/>
      <point x="176" y="16" type="curve" smooth="yes"/>
      <point x="176" y="19"/>
      <point x="176" y="23"/>
      <point x="174" y="26" type="curve"/>
      <point x="164" y="39"/>
      <point x="115" y="26"/>
      <point x="115" y="51" type="curve" smooth="yes"/>
      <point x="115" y="57"/>
      <point x="116" y="59"/>
      <point x="129" y="76" type="curve" smooth="yes"/>
      <point x="203" y="176"/>
      <point x="202" y="177"/>
      <point x="207" y="177" type="curve" smooth="yes"/>
      <point x="208" y="177"/>
      <point x="209" y="176"/>
      <point x="210" y="176" type="curve"/>
      <point x="212" y="174"/>
      <point x="211" y="175"/>
      <point x="303" y="61" type="curve"/>
      <point x="304" y="59"/>
      <point x="307" y="55"/>
      <point x="307" y="51" type="curve" smooth="yes"/>
      <point x="307" y="46"/>
      <point x="304" y="41"/>
      <point x="295" y="38" type="curve"/>
      <point x="266" y="30"/>
      <point x="245" y="37"/>
      <point x="245" y="13" type="curve" smooth="yes"/>
      <point x="245" y="5"/>
      <point x="246" y="-4"/>
      <point x="257" y="-4" type="curve" smooth="yes"/>
      <point x="265" y="-4"/>
      <point x="289" y="0"/>
      <point x="338" y="0" type="curve" smooth="yes"/>
      <point x="387" y="0"/>
      <point x="411" y="-4"/>
      <point x="419" y="-4" type="curve" smooth="yes"/>
      <point x="433" y="-4"/>
      <point x="434" y="6"/>
      <point x="434" y="20" type="curve" smooth="yes"/>
      <point x="434" y="30"/>
      <point x="429" y="31"/>
      <point x="424" y="32" type="curve" smooth="yes"/>
      <point x="404" y="36"/>
      <point x="402" y="34"/>
      <point x="387" y="54" type="curve" smooth="yes"/>
      <point x="249" y="229"/>
      <point x="249" y="228"/>
      <point x="249" y="231" type="curve" smooth="yes"/>
      <point x="249" y="235"/>
      <point x="249" y="233"/>
      <point x="334" y="345" type="curve"/>
      <point x="350" y="364"/>
      <point x="357" y="372"/>
      <point x="386" y="376" type="curve" smooth="yes"/>
      <point x="416" y="380"/>
      <point x="423" y="379"/>
      <point x="423" y="400" type="curve" smooth="yes"/>
      <point x="423" y="407"/>
      <point x="420" y="415"/>
      <point x="410" y="415" type="curve" smooth="yes"/>
      <point x="403" y="415"/>
      <point x="381" y="412"/>
      <point x="337" y="412" type="curve" smooth="yes"/>
      <point x="334" y="412" type="line" smooth="yes"/>
      <point x="291" y="412"/>
      <point x="270" y="415"/>
      <point x="263" y="415" type="curve" smooth="yes"/>
      <point x="253" y="415"/>
      <point x="250" y="407"/>
      <point x="250" y="390" type="curve" smooth="yes"/>
      <point x="250" y="366"/>
      <point x="299" y="386"/>
      <point x="299" y="364" type="curve" smooth="yes"/>
      <point x="299" y="358"/>
      <point x="290" y="347"/>
      <point x="229" y="266" type="curve"/>
      <point x="227" y="264"/>
      <point x="226" y="263"/>
      <point x="224" y="263" type="curve" smooth="yes"/>
      <point x="220" y="263"/>
      <point x="222" y="264"/>
      <point x="164" y="338" type="curve"/>
      <point x="159" y="345"/>
      <point x="150" y="354"/>
      <point x="150" y="362" type="curve" smooth="yes"/>
      <point x="150" y="372"/>
      <point x="159" y="375"/>
      <point x="166" y="376" type="curve"/>
      <point x="195" y="379"/>
      <point x="202" y="378"/>
      <point x="202" y="390" type="curve" smooth="yes"/>
      <point x="202" y="393"/>
      <point x="201" y="395"/>
      <point x="201" y="399" type="curve" smooth="yes"/>
      <point x="201" y="401" type="line" smooth="yes"/>
      <point x="201" y="408"/>
      <point x="199" y="415"/>
      <point x="189" y="415" type="curve" smooth="yes"/>
      <point x="181" y="415"/>
      <point x="156" y="412"/>
      <point x="106" y="412" type="curve" smooth="yes"/>
      <point x="57" y="412"/>
      <point x="32" y="415"/>
      <point x="24" y="415" type="curve" smooth="yes"/>
    </contour>
  </outline>
</glyph>
<glyph name="braceleft" format="1">
  <advance width="251"/>
  <unicode hex="007B"/>
  <outline>
    <contour>
      <point x="45" y="255"/>
      <point x="45" y="255"/>
      <point x="46" y="254" type="curve" smooth="yes"/>
      <point x="49" y="251"/>
      <point x="105" y="229"/>
      <point x="105" y="148" type="curve" smooth="yes"/>
      <point x="105" y="84"/>
      <point x="73" y="20"/>
      <point x="73" y="-57" type="curve" smooth="yes"/>
      <point x="73" y="-167"/>
      <point x="140" y="-198"/>
      <point x="185" y="-198" type="curve" smooth="yes"/>
      <point x="198" y="-198"/>
      <point x="201" y="-197"/>
      <point x="201" y="-195" type="curve" smooth="yes"/>
      <point x="201" y="-192"/>
      <point x="137" y="-162"/>
      <point x="137" y="-70" type="curve" smooth="yes"/>
      <point x="137" y="-7"/>
      <point x="165" y="55"/>
      <point x="165" y="120" type="curve" smooth="yes"/>
      <point x="165" y="206"/>
      <point x="122" y="244"/>
      <point x="122" y="254" type="curve" smooth="yes"/>
      <point x="122" y="263"/>
      <point x="168" y="315"/>
      <point x="168" y="411" type="curve" smooth="yes"/>
      <point x="168" y="488"/>
      <point x="141" y="546"/>
      <point x="141" y="604" type="curve" smooth="yes"/>
      <point x="141" y="620"/>
      <point x="143" y="635"/>
      <point x="148" y="650" type="curve" smooth="yes"/>
      <point x="166" y="701"/>
      <point x="208" y="711"/>
      <point x="208" y="715" type="curve" smooth="yes"/>
      <point x="208" y="719"/>
      <point x="194" y="720"/>
      <point x="184" y="720" type="curve" smooth="yes"/>
      <point x="141" y="720"/>
      <point x="77" y="691"/>
      <point x="77" y="586" type="curve" smooth="yes"/>
      <point x="77" y="505"/>
      <point x="104" y="436"/>
      <point x="104" y="359" type="curve" smooth="yes"/>
      <point x="104" y="271"/>
      <point x="45" y="263"/>
      <point x="45" y="256" type="curve" smooth="yes"/>
    </contour>
  </outline>
</glyph>
<glyph name="bar" format="1">
  <advance width="153"/>
  <unicode hex="007C"/>
  <outline>
    <contour>
      <point x="77" y="-198" type="line" smooth="yes"/>
      <point x="100" y="-198"/>
      <point x="103" y="-193"/>
      <point x="103" y="-185" type="curve" smooth="yes"/>
      <point x="103" y="705" type="line" smooth="yes"/>
      <point x="103" y="715"/>
      <point x="97" y="718"/>
      <point x="76" y="718" type="curve" smooth="yes"/>
      <point x="74" y="718" type="line" smooth="yes"/>
      <point x="63" y="718"/>
      <point x="50" y="717"/>
      <point x="50" y="705" type="curve" smooth="yes"/>
      <point x="50" y="-185" type="line" smooth="yes"/>
      <point x="50" y="-197"/>
      <point x="63" y="-198"/>
      <point x="73" y="-198" type="curve" smooth="yes"/>
    </contour>
  </outline>
</glyph>
<glyph name="braceright" format="1">
  <advance width="251"/>
  <unicode hex="007D"/>
  <outline>
    <contour>
      <point x="177" y="691"/>
      <point x="113" y="720"/>
      <point x="70" y="720" type="curve" smooth="yes"/>
      <point x="61" y="720"/>
      <point x="46" y="719"/>
      <point x="46" y="715" type="curve" smooth="yes"/>
      <point x="46" y="710"/>
      <point x="113" y="693"/>
      <point x="113" y="604" type="curve" smooth="yes"/>
      <point x="113" y="546"/>
      <point x="86" y="488"/>
      <point x="86" y="411" type="curve" smooth="yes"/>
      <point x="86" y="367"/>
      <point x="96" y="314"/>
      <point x="128" y="264" type="curve"/>
      <point x="129" y="262"/>
      <point x="132" y="258"/>
      <point x="132" y="254" type="curve" smooth="yes"/>
      <point x="132" y="244"/>
      <point x="89" y="207"/>
      <point x="89" y="120" type="curve" smooth="yes"/>
      <point x="89" y="55"/>
      <point x="117" y="-7"/>
      <point x="117" y="-70" type="curve" smooth="yes"/>
      <point x="117" y="-162"/>
      <point x="53" y="-192"/>
      <point x="53" y="-195" type="curve" smooth="yes"/>
      <point x="53" y="-197"/>
      <point x="56" y="-198"/>
      <point x="69" y="-198" type="curve" smooth="yes"/>
      <point x="114" y="-198"/>
      <point x="181" y="-167"/>
      <point x="181" y="-57" type="curve" smooth="yes"/>
      <point x="181" y="20"/>
      <point x="149" y="84"/>
      <point x="149" y="148" type="curve" smooth="yes"/>
      <point x="149" y="200"/>
      <point x="172" y="234"/>
      <point x="205" y="252" type="curve"/>
      <point x="208" y="253"/>
      <point x="209" y="255"/>
      <point x="209" y="257" type="curve" smooth="yes"/>
      <point x="209" y="258"/>
      <point x="209" y="258"/>
      <point x="208" y="259" type="curve"/>
      <point x="204" y="262"/>
      <point x="150" y="274"/>
      <point x="150" y="359" type="curve" smooth="yes"/>
      <point x="150" y="436"/>
      <point x="177" y="505"/>
      <point x="177" y="586" type="curve" smooth="yes"/>
    </contour>
  </outline>
</glyph>
<glyph name="asciitilde" format="1">
  <advance width="451"/>
  <unicode hex="007E"/>
  <outline>
    <contour>
      <point x="44" y="173"/>
      <point x="46" y="176"/>
      <point x="47" y="178" type="curve"/>
      <point x="73" y="218"/>
      <point x="98" y="242"/>
      <point x="133" y="242" type="curve" smooth="yes"/>
      <point x="187" y="242"/>
      <point x="209" y="183"/>
      <point x="277" y="183" type="curve" smooth="yes"/>
      <point x="361" y="183"/>
      <point x="427" y="291"/>
      <point x="427" y="298" type="curve" smooth="yes"/>
      <point x="427" y="308"/>
      <point x="408" y="316"/>
      <point x="403" y="316" type="curve" smooth="yes"/>
      <point x="401" y="316"/>
      <point x="399" y="315"/>
      <point x="397" y="314" type="curve"/>
      <point x="388" y="309"/>
      <point x="355" y="254"/>
      <point x="299" y="254" type="curve" smooth="yes"/>
      <point x="240" y="254"/>
      <point x="208" y="312"/>
      <point x="149" y="312" type="curve" smooth="yes"/>
      <point x="120" y="312"/>
      <point x="97" y="296"/>
      <point x="83" y="281" type="curve" smooth="yes"/>
      <point x="61" y="259"/>
      <point x="24" y="197"/>
      <point x="24" y="193" type="curve" smooth="yes"/>
      <point x="24" y="187"/>
      <point x="35" y="173"/>
      <point x="40" y="173" type="curve" smooth="yes"/>
    </contour>
  </outline>
</glyph>
<glyph name="exclamdown" format="1">
  <advance width="325"/>
  <unicode hex="00A1"/>
  <outline>
    <contour>
      <point x="137" y="-16"/>
      <point x="136" y="-16"/>
      <point x="204" y="24" type="curve"/>
      <point x="212" y="28"/>
      <point x="217" y="33"/>
      <point x="217" y="46" type="curve" smooth="yes"/>
      <point x="217" y="47"/>
      <point x="204" y="193"/>
      <point x="199" y="416" type="curve"/>
      <point x="199" y="429" type="line" smooth="yes"/>
      <point x="199" y="445"/>
      <point x="197" y="462"/>
      <point x="183" y="462" type="curve" smooth="yes"/>
      <point x="173" y="462"/>
      <point x="168" y="452"/>
      <point x="166" y="446" type="curve"/>
      <point x="160" y="425"/>
      <point x="122" y="246"/>
      <point x="122" y="32" type="curve" smooth="yes"/>
      <point x="122" y="9" type="line" smooth="yes"/>
      <point x="122" y="-9"/>
      <point x="123" y="-16"/>
      <point x="132" y="-16" type="curve" smooth="yes"/>
    </contour>
    <contour>
      <point x="187" y="572"/>
      <point x="211" y="592"/>
      <point x="211" y="623" type="curve" smooth="yes"/>
      <point x="211" y="653"/>
      <point x="186" y="674"/>
      <point x="159" y="674" type="curve" smooth="yes"/>
      <point x="130" y="674"/>
      <point x="108" y="650"/>
      <point x="108" y="623" type="curve" smooth="yes"/>
      <point x="108" y="595"/>
      <point x="132" y="572"/>
      <point x="160" y="572" type="curve" smooth="yes"/>
    </contour>
  </outline>
</glyph>
<glyph name="dieresis" format="1">
  <advance width="255"/>
  <unicode hex="00A8"/>
  <outline>
    <contour>
      <point x="147" y="591"/>
      <point x="169" y="571"/>
      <point x="195" y="571" type="curve" smooth="yes"/>
      <point x="221" y="571"/>
      <point x="243" y="592"/>
      <point x="243" y="619" type="curve" smooth="yes"/>
      <point x="243" y="644"/>
      <point x="222" y="665"/>
      <point x="195" y="665" type="curve" smooth="yes"/>
      <point x="170" y="665"/>
      <point x="147" y="644"/>
      <point x="147" y="618" type="curve" smooth="yes"/>
    </contour>
    <contour>
      <point x="12" y="591"/>
      <point x="34" y="571"/>
      <point x="60" y="571" type="curve" smooth="yes"/>
      <point x="86" y="571"/>
      <point x="108" y="592"/>
      <point x="108" y="619" type="curve" smooth="yes"/>
      <point x="108" y="644"/>
      <point x="87" y="665"/>
      <point x="60" y="665" type="curve" smooth="yes"/>
      <point x="35" y="665"/>
      <point x="12" y="644"/>
      <point x="12" y="618" type="curve" smooth="yes"/>
    </contour>
  </outline>
</glyph>
<glyph name="copyright" format="1">
  <advance width="772"/>
  <unicode hex="00A9"/>
  <outline>
    <contour>
      <point x="222" y="27"/>
      <point x="81" y="160"/>
      <point x="81" y="332" type="curve" smooth="yes"/>
      <point x="81" y="498"/>
      <point x="214" y="637"/>
      <point x="385" y="637" type="curve" smooth="yes"/>
      <point x="560" y="637"/>
      <point x="691" y="495"/>
      <point x="691" y="333" type="curve" smooth="yes"/>
      <point x="691" y="157"/>
      <point x="548" y="27"/>
      <point x="386" y="27" type="curve" smooth="yes"/>
    </contour>
    <contour>
      <point x="30" y="131"/>
      <point x="193" y="-24"/>
      <point x="385" y="-24" type="curve" smooth="yes"/>
      <point x="589" y="-24"/>
      <point x="742" y="141"/>
      <point x="742" y="332" type="curve" smooth="yes"/>
      <point x="742" y="526"/>
      <point x="585" y="689"/>
      <point x="386" y="689" type="curve" smooth="yes"/>
      <point x="185" y="689"/>
      <point x="30" y="525"/>
      <point x="30" y="332" type="curve" smooth="yes"/>
    </contour>
    <contour>
      <point x="566" y="384"/>
      <point x="567" y="391"/>
      <point x="567" y="401" type="curve" smooth="yes"/>
      <point x="567" y="417"/>
      <point x="562" y="452"/>
      <point x="550" y="534" type="curve"/>
      <point x="548" y="543"/>
      <point x="543" y="544"/>
      <point x="538" y="544" type="curve" smooth="yes"/>
      <point x="518" y="544"/>
      <point x="522" y="521"/>
      <point x="514" y="521" type="curve" smooth="yes"/>
      <point x="501" y="521"/>
      <point x="472" y="554"/>
      <point x="388" y="554" type="curve" smooth="yes"/>
      <point x="256" y="554"/>
      <point x="151" y="447"/>
      <point x="151" y="320" type="curve" smooth="yes"/>
      <point x="151" y="194"/>
      <point x="254" y="88"/>
      <point x="385" y="88" type="curve" smooth="yes"/>
      <point x="420" y="88"/>
      <point x="463" y="97"/>
      <point x="504" y="121" type="curve" smooth="yes"/>
      <point x="522" y="131"/>
      <point x="519" y="134"/>
      <point x="533" y="134" type="curve" smooth="yes"/>
      <point x="551" y="134" type="line" smooth="yes"/>
      <point x="565" y="134"/>
      <point x="568" y="141"/>
      <point x="569" y="152" type="curve" smooth="yes"/>
      <point x="570" y="167"/>
      <point x="584" y="250"/>
      <point x="584" y="250" type="curve"/>
      <point x="584" y="256"/>
      <point x="580" y="260"/>
      <point x="573" y="260" type="curve" smooth="yes"/>
      <point x="568" y="260"/>
      <point x="562" y="257"/>
      <point x="559" y="250" type="curve"/>
      <point x="535" y="172"/>
      <point x="464" y="126"/>
      <point x="395" y="126" type="curve" smooth="yes"/>
      <point x="297" y="126"/>
      <point x="217" y="216"/>
      <point x="217" y="332" type="curve" smooth="yes"/>
      <point x="217" y="451"/>
      <point x="302" y="520"/>
      <point x="386" y="520" type="curve" smooth="yes"/>
      <point x="444" y="520"/>
      <point x="489" y="490"/>
      <point x="515" y="458" type="curve" smooth="yes"/>
      <point x="543" y="422"/>
      <point x="520" y="384"/>
      <point x="550" y="384" type="curve" smooth="yes"/>
    </contour>
  </outline>
</glyph>
<glyph name="guillemotleft" format="1">
  <advance width="365"/>
  <unicode hex="00AB"/>
  <outline>
    <contour>
      <point x="180" y="334"/>
      <point x="181" y="334"/>
      <point x="29" y="204" type="curve"/>
      <point x="26" y="201"/>
      <point x="22" y="198"/>
      <point x="22" y="193" type="curve" smooth="yes"/>
      <point x="22" y="189"/>
      <point x="25" y="186"/>
      <point x="28" y="184" type="curve"/>
      <point x="180" y="52"/>
      <point x="179" y="52"/>
      <point x="184" y="52" type="curve" smooth="yes"/>
      <point x="192" y="52"/>
      <point x="201" y="63"/>
      <point x="201" y="71" type="curve" smooth="yes"/>
      <point x="201" y="74"/>
      <point x="199" y="77"/>
      <point x="197" y="79" type="curve"/>
      <point x="105" y="186"/>
      <point x="102" y="188"/>
      <point x="102" y="194" type="curve" smooth="yes"/>
      <point x="102" y="197"/>
      <point x="104" y="199"/>
      <point x="105" y="201" type="curve"/>
      <point x="202" y="310"/>
      <point x="202" y="309"/>
      <point x="202" y="315" type="curve" smooth="yes"/>
      <point x="202" y="322"/>
      <point x="193" y="334"/>
      <point x="185" y="334" type="curve" smooth="yes"/>
    </contour>
    <contour>
      <point x="320" y="334"/>
      <point x="322" y="334"/>
      <point x="170" y="204" type="curve"/>
      <point x="166" y="201"/>
      <point x="163" y="198"/>
      <point x="163" y="193" type="curve" smooth="yes"/>
      <point x="163" y="189"/>
      <point x="166" y="186"/>
      <point x="169" y="184" type="curve"/>
      <point x="321" y="52"/>
      <point x="319" y="52"/>
      <point x="325" y="52" type="curve" smooth="yes"/>
      <point x="333" y="52"/>
      <point x="341" y="63"/>
      <point x="341" y="71" type="curve" smooth="yes"/>
      <point x="341" y="74"/>
      <point x="340" y="77"/>
      <point x="337" y="79" type="curve"/>
      <point x="246" y="186"/>
      <point x="242" y="188"/>
      <point x="242" y="194" type="curve" smooth="yes"/>
      <point x="242" y="197"/>
      <point x="244" y="199"/>
      <point x="246" y="201" type="curve"/>
      <point x="343" y="310"/>
      <point x="343" y="309"/>
      <point x="343" y="315" type="curve" smooth="yes"/>
      <point x="343" y="322"/>
      <point x="334" y="334"/>
      <point x="326" y="334" type="curve" smooth="yes"/>
    </contour>
  </outline>
</glyph>
<glyph name="logicalnot" format="1">
  <advance width="701"/>
  <unicode hex="00AC"/>
  <outline>
    <contour>
      <point x="592" y="231" type="line"/>
      <point x="592" y="67" type="line" smooth="yes"/>
      <point x="592" y="53"/>
      <point x="595" y="41"/>
      <point x="616" y="41" type="curve" smooth="yes"/>
      <point x="630" y="41" type="line" smooth="yes"/>
      <point x="646" y="41"/>
      <point x="649" y="48"/>
      <point x="649" y="61" type="curve" smooth="yes"/>
      <point x="649" y="279" type="line" smooth="yes"/>
      <point x="649" y="285"/>
      <point x="648" y="288"/>
      <point x="641" y="288" type="curve" smooth="yes"/>
      <point x="77" y="288" type="line" smooth="yes"/>
      <point x="66" y="288"/>
      <point x="53" y="287"/>
      <point x="53" y="266" type="curve" smooth="yes"/>
      <point x="53" y="253" type="line" smooth="yes"/>
      <point x="53" y="235"/>
      <point x="61" y="231"/>
      <point x="76" y="231" type="curve" smooth="yes"/>
    </contour>
  </outline>
</glyph>
